<?xml version="1.0" encoding="utf-8"?>
<!-- Generator: Adobe Illustrator 15.1.0, SVG Export Plug-In . SVG Version: 6.00 Build 0)  -->
<!DOCTYPE svg PUBLIC "-//W3C//DTD SVG 1.1//EN" "http://www.w3.org/Graphics/SVG/1.1/DTD/svg11.dtd">
<svg version="1.1" id="Layer_1" xmlns="http://www.w3.org/2000/svg" xmlns:xlink="http://www.w3.org/1999/xlink" x="0px" y="0px"
	  viewBox="0 0 117.415 117.416" enable-background="new 0 0 117.415 117.416"
	 xml:space="preserve">
<g>
	<defs>
		<rect id="SVGID_1_" width="117.415" height="117.416"/>
	</defs>
	<clipPath id="SVGID_2_">
		<use xlink:href="#SVGID_1_"  overflow="visible"/>
	</clipPath>
	<circle clip-path="url(#SVGID_2_)" fill="none" stroke="#000000" cx="58.707" cy="58.708" r="30.097"/>
	<circle clip-path="url(#SVGID_2_)" fill="none" stroke="#000000" cx="58.707" cy="58.708" r="42.019"/>
</g>
<rect x="14.238" y="51.149" fill="#FFFFFF" width="88.937" height="20.835"/>
<line fill="none" stroke="#000000" x1="14.052" y1="72.334" x2="103.127" y2="72.334"/>
<g>
	<defs>
		<rect id="SVGID_3_" width="117.415" height="117.416"/>
	</defs>
	<clipPath id="SVGID_4_">
		<use xlink:href="#SVGID_3_"  overflow="visible"/>
	</clipPath>
	<path clip-path="url(#SVGID_4_)" fill="#725548" d="M98.662,63.506l1.494-4.19h-1.418l-1.486,4.19
		c-0.03,0.088-0.044,0.167-0.044,0.235c0,0.271,0.197,0.406,0.592,0.406h1.543c0.192,0,0.372-0.04,0.54-0.12
		c0.241-0.113,0.394-0.287,0.461-0.521H98.662z M94.16,63.506c-0.454,0-0.681-0.116-0.681-0.349c0-0.048,0.008-0.101,0.024-0.161
		l0.28-0.932h0.885L94.16,63.506z M95.589,63.506l0.754-2.083h-2.288c-0.571,0-1.05,0.146-1.438,0.44
		c-0.427,0.324-0.64,0.764-0.64,1.323c0,0.308,0.097,0.559,0.292,0.753c0.195,0.192,0.449,0.288,0.761,0.288
		c0.425,0,0.782-0.166,1.073-0.497c0,0.278,0.217,0.417,0.649,0.417h1.518c0.526,0,0.854-0.214,0.982-0.641H95.589z M90.426,63.506
		l0.509-1.435c0.048-0.127,0.072-0.242,0.072-0.339c0-0.274-0.133-0.41-0.4-0.41c-0.401,0-0.759,0.13-1.074,0.389l-1.221,1.002
		l1.205-3.405h-1.442l-1.714,4.839h0.825c0.208,0,0.406-0.082,0.593-0.245l1.518-1.25l-0.288,0.854
		c-0.04,0.123-0.061,0.227-0.061,0.312c0,0.218,0.151,0.329,0.453,0.329h1.706c0.187,0,0.362-0.04,0.525-0.12
		c0.227-0.113,0.375-0.287,0.445-0.521H90.426z M83.577,63.506c-0.371,0-0.557-0.117-0.557-0.353c0-0.061,0.014-0.129,0.04-0.205
		l0.313-0.884h0.485v0.095c-0.003,0.214,0.075,0.396,0.234,0.543c0.159,0.149,0.352,0.223,0.579,0.223
		c0.224,0,0.417-0.073,0.578-0.221c0.162-0.146,0.243-0.325,0.243-0.537c0-0.208-0.08-0.384-0.241-0.528
		c-0.16-0.145-0.353-0.216-0.58-0.216h-1.01c-0.531,0-0.992,0.118-1.382,0.356c-0.443,0.27-0.691,0.644-0.745,1.122
		c-0.005,0.045-0.008,0.089-0.008,0.131c0,0.394,0.198,0.688,0.593,0.882c0.313,0.154,0.698,0.233,1.158,0.233h2.411
		c0.227,0,0.426-0.052,0.597-0.157c0.187-0.115,0.31-0.276,0.368-0.484H83.577z M80.008,63.506l0.741-2.083h-1.454l-0.697,1.95
		c-0.037,0.105-0.056,0.201-0.056,0.292c0,0.321,0.191,0.482,0.573,0.482h1.582c0.185,0,0.355-0.04,0.513-0.12
		c0.219-0.113,0.363-0.287,0.433-0.521H80.008z M81.044,59.104c-0.207-0.188-0.456-0.281-0.747-0.281
		c-0.297,0-0.548,0.093-0.755,0.281c-0.207,0.186-0.311,0.413-0.311,0.676c0,0.268,0.104,0.495,0.311,0.681
		c0.207,0.188,0.458,0.28,0.755,0.28c0.291,0,0.54-0.092,0.747-0.28c0.207-0.186,0.31-0.413,0.31-0.681
		C81.354,59.517,81.251,59.29,81.044,59.104 M76.796,63.506l0.957-2.527c0.054-0.139,0.08-0.266,0.08-0.381
		c0-0.2-0.08-0.353-0.24-0.457c-0.104-0.07-0.203-0.105-0.296-0.105c-0.235-0.002-0.416,0.032-0.541,0.105
		c-0.072,0.046-0.218,0.177-0.437,0.396l-1.542,1.551l0.777-2.02c0.059-0.145,0.088-0.279,0.088-0.395c0-0.19-0.073-0.333-0.22-0.43
		c-0.096-0.06-0.188-0.091-0.276-0.091c-0.31,0-0.562,0.062-0.757,0.183c-0.118,0.075-0.286,0.238-0.505,0.489l-1.722,1.952
		l0.861-2.485c0.051-0.146,0.076-0.271,0.076-0.376c0-0.269-0.184-0.404-0.553-0.404h-2.675l-0.605,1.01h2.223l-1.618,4.626h0.813
		c0.32,0,0.563-0.103,0.729-0.305l2.471-2.984l-0.985,2.544c-0.048,0.12-0.072,0.232-0.072,0.335c0,0.271,0.152,0.422,0.456,0.457
		c0.054,0.008,0.104,0.012,0.152,0.012c0.254,0,0.488-0.118,0.701-0.356l1.987-2.178l-0.665,1.73
		c-0.056,0.147-0.084,0.265-0.084,0.356c0,0.259,0.224,0.389,0.673,0.389h1.438c0.63,0,1.001-0.214,1.113-0.641H76.796z"/>
	<path clip-path="url(#SVGID_4_)" fill="#C25679" d="M44.32,63.506c-0.454,0-0.681-0.116-0.681-0.35c0-0.047,0.008-0.1,0.024-0.159
		l0.281-0.933h0.885L44.32,63.506z M45.75,63.506l0.753-2.083h-2.287c-0.572,0-1.051,0.146-1.438,0.44
		c-0.427,0.324-0.641,0.764-0.641,1.322c0,0.309,0.098,0.561,0.293,0.753c0.194,0.193,0.448,0.289,0.761,0.289
		c0.424,0,0.782-0.166,1.073-0.497c0,0.278,0.216,0.417,0.649,0.417h1.518c0.526,0,0.853-0.214,0.981-0.641H45.75z M40.575,63.506
		l0.393-1.082c0.042-0.12,0.064-0.226,0.064-0.316c0-0.287-0.186-0.429-0.557-0.429h-0.305l0.93-0.961h-0.922l-1.598,1.59
		l1.066-2.992h-1.442l-1.707,4.831h0.597c0.203,0,0.377-0.039,0.521-0.117c0.109-0.058,0.27-0.184,0.481-0.377
		c0.857-0.763,1.347-1.209,1.47-1.337l-0.413,1.118c-0.037,0.104-0.056,0.2-0.056,0.288c0,0.283,0.183,0.425,0.549,0.425h1.574
		c0.192,0,0.372-0.04,0.541-0.12c0.24-0.113,0.393-0.287,0.46-0.521H40.575z M35.136,63.506l0.516-1.442
		c0.043-0.123,0.064-0.234,0.064-0.333c0-0.267-0.13-0.406-0.392-0.416c-0.387-0.011-0.747,0.119-1.078,0.387l-1.221,1.003
		l0.452-1.282h-1.446l-0.957,2.724h0.737c0.208,0,0.474-0.113,0.797-0.337l1.378-1.165l-0.304,0.861
		c-0.038,0.106-0.056,0.2-0.056,0.279c0,0.242,0.182,0.362,0.548,0.362h1.598c0.193,0,0.373-0.04,0.541-0.12
		c0.238-0.113,0.391-0.287,0.461-0.521H35.136z M28.202,63.506c-0.454,0-0.681-0.116-0.681-0.35c0-0.047,0.008-0.1,0.024-0.159
		l0.281-0.933h0.885L28.202,63.506z M29.631,63.506l0.753-2.083h-2.287c-0.571,0-1.051,0.146-1.438,0.44
		c-0.427,0.324-0.641,0.764-0.641,1.322c0,0.309,0.098,0.561,0.293,0.753c0.195,0.193,0.448,0.289,0.761,0.289
		c0.424,0,0.782-0.166,1.073-0.497c0,0.278,0.216,0.417,0.649,0.417h1.518c0.526,0,0.853-0.214,0.981-0.641H29.631z M19.958,63.386
		c-0.376,0.539-0.757,0.808-1.141,0.808c-0.308,0-0.461-0.171-0.461-0.516c0-0.497,0.242-0.901,0.725-1.21
		c0.419-0.27,0.892-0.404,1.418-0.404h0.116C20.458,62.542,20.239,62.982,19.958,63.386 M25.078,61.423l1.033-2.912h-1.446
		l-1.025,2.912h-1.378l1.258-3.521h-1.438l-1.238,3.521h-0.585c-1.479,0-2.495,0.418-3.048,1.254
		c-0.219,0.331-0.328,0.659-0.328,0.984c0,0.418,0.171,0.73,0.513,0.938c0.283,0.174,0.644,0.261,1.085,0.261
		c1.632-0.003,2.827-0.935,3.585-2.796h1.354l-0.745,2.083h1.442l0.737-2.083h2.371c0.515,0,0.81-0.214,0.885-0.641H25.078z"/>
	<path clip-path="url(#SVGID_4_)" fill="#C25679" d="M57.272,55.417c-2.043-2.043-5.356-2.043-7.399,0s-2.043,5.356,0,7.399
		l7.399,7.4V55.417z"/>
	<path clip-path="url(#SVGID_4_)" fill="#725548" d="M58.049,55.417c2.043-2.043,5.356-2.043,7.399,0s2.043,5.356,0,7.399
		l-7.399,7.4V55.417z"/>
</g>
<line fill="none" stroke="#000000" x1="103.127" y1="50.94" x2="14.052" y2="50.94"/>
<g>
	<defs>
		<rect id="SVGID_5_" width="117.415" height="117.416"/>
	</defs>
	<clipPath id="SVGID_6_">
		<use xlink:href="#SVGID_5_"  overflow="visible"/>
	</clipPath>
	<path clip-path="url(#SVGID_6_)" d="M90.301,48.084l0.565-0.182l0.188,0.58l-0.564,0.183L90.301,48.084z M92.215,44.163
		l0.385,0.939c0.228,0.558,0.759,0.47,1.253,0.268c0.525-0.215,0.925-0.522,0.702-1.068l-0.385-0.94L92.215,44.163z M89.072,44.905
		l5.282-2.162l0.577,1.409c0.375,0.918-0.169,1.391-0.903,1.691c-0.54,0.222-1.132,0.281-1.581-0.213l-2.302,1.897l-0.204-0.498
		l2.263-1.826l-0.363-0.886l-2.578,1.054L89.072,44.905z M87.939,42.693l0.525-0.278l0.285,0.539l-0.525,0.279L87.939,42.693z
		 M89.548,39.625l0.5,0.806c0.303,0.491,0.755,0.459,1.456,0.021c0.672-0.42,0.828-0.827,0.549-1.274l-0.503-0.804L89.548,39.625z
		 M86.786,40.756l4.84-3.023l0.74,1.183c0.54,0.863,0.111,1.523-0.587,1.958c-0.689,0.431-1.527,0.642-2.103-0.281l-0.471-0.753
		l-2.152,1.344L86.786,40.756z M85.019,38.261l4.207-3.228l-0.676-0.881l0.321-0.247l1.665,2.171l-0.321,0.246l-0.682-0.889
		l-4.208,3.228L85.019,38.261z M84.371,34.684l0.792,0.893l2.117-2.68L84.371,34.684z M82.776,35.63l-0.337-0.379
		c2.334-1.358,2.681-1.586,5.017-2.946l0.436,0.491l-3.52,4.632l-0.339-0.382l0.922-1.199l-0.874-0.985L82.776,35.63z
		 M87.866,32.132l1.258-0.571l0.356,0.402l-1.491,0.309L87.866,32.132z M81.3,34.217l3.614-3.881l-0.813-0.757l0.276-0.296
		l2.002,1.866l-0.276,0.296l-0.82-0.765l-3.614,3.881L81.3,34.217z M79.037,30.53l0.427,0.178c-0.322,0.511-0.481,1.141,0.046,1.567
		c0.405,0.325,0.822,0.273,1.151-0.135c0.304-0.377,0.29-0.92,0.242-1.521l-0.106-1.291c-0.038-0.486-0.023-0.934,0.246-1.267
		c0.474-0.588,1.203-0.61,1.795-0.134c0.586,0.474,0.665,1.1,0.28,1.815l-0.026,0.047l-0.414-0.163l0.024-0.04
		c0.271-0.468,0.305-1.002-0.118-1.344c-0.377-0.302-0.797-0.327-1.12,0.075c-0.202,0.25-0.233,0.594-0.206,1.001l0.081,1.235
		c0.041,0.663,0.135,1.345-0.277,1.856c-0.528,0.656-1.253,0.625-1.85,0.144C78.561,32.029,78.637,31.217,79.037,30.53
		 M83.063,27.679l0.183-1.331l0.366,0.295l-0.248,0.81l0.739-0.414l0.367,0.295l-1.262,0.461L83.063,27.679z M75.369,29.823
		l3.024-4.839l0.33,0.205l-0.863,4.792l2.395-3.834l0.363,0.226l-3.024,4.84l-0.321-0.2l0.809-4.712l-2.345,3.752L75.369,29.823z
		 M73.031,28.609l2.543-5.11l1.781,0.886l-0.18,0.362l-1.33-0.662l-0.964,1.937l0.951,0.472l-0.17,0.342l-0.951-0.473l-1.049,2.108
		l1.331,0.662l-0.181,0.362L73.031,28.609z M71.473,24.472l0.94,0.385c0.558,0.228,0.867-0.212,1.069-0.705
		c0.215-0.526,0.277-1.027-0.269-1.25l-0.939-0.385L71.473,24.472z M69.798,27.235l2.162-5.284l1.409,0.578
		c0.918,0.375,0.874,1.095,0.574,1.829c-0.221,0.541-0.594,1.004-1.261,0.978l-0.263,2.971l-0.497-0.204l0.285-2.893l-0.887-0.364
		l-1.055,2.579L69.798,27.235z M67.574,26.572l1.631-5.47l1.907,0.568l-0.116,0.388l-1.423-0.424l-0.618,2.072l1.017,0.303
		l-0.109,0.366l-1.017-0.304l-0.789,2.645L67.574,26.572z M65.128,26.438l1.173-6.104l0.384,0.074l-1.172,6.103L65.128,26.438z
		 M61.626,23.686l1.189,0.106l-0.299-3.403L61.626,23.686z M61.114,25.469l-0.505-0.045c0.767-2.589,0.863-2.994,1.629-5.586
		l0.655,0.06l0.616,5.784l-0.508-0.045l-0.153-1.506l-1.311-0.116L61.114,25.469z M59.061,25.39l0.067-5.302l-1.111-0.014
		l0.005-0.405l2.736,0.035l-0.005,0.406l-1.121-0.016l-0.067,5.304L59.061,25.39z M54.855,25.566l-0.362-5.697l0.503-0.032
		l0.164,2.578l1.754-0.111l-0.164-2.579l0.503-0.031l0.362,5.695l-0.503,0.032l-0.176-2.767l-1.754,0.112l0.176,2.767L54.855,25.566
		z M51.001,24.568l-0.452-2.349c-0.182-0.947,0.007-1.774,1.095-1.982c1.01-0.195,1.462,0.508,1.645,1.457l0.043,0.227l-0.472,0.09
		l-0.065-0.338c-0.131-0.684-0.423-1.165-1.074-1.04c-0.73,0.141-0.829,0.696-0.698,1.38l0.494,2.57
		c0.131,0.684,0.43,1.167,1.16,1.027c0.651-0.125,0.743-0.684,0.612-1.368l-0.074-0.383l0.472-0.092l0.053,0.274
		c0.18,0.942,0.049,1.767-0.987,1.966C51.639,26.221,51.181,25.508,51.001,24.568 M49.35,26.718l-0.506-1.696l-2.32-3.416
		l0.537-0.161l1.874,3.012c-0.035-1.533-0.053-2.012-0.081-3.547l0.505-0.151l-0.032,4.118l0.506,1.697L49.35,26.718z
		 M44.661,24.977l0.949-0.361c0.564-0.214,0.489-0.747,0.299-1.246c-0.202-0.53-0.5-0.938-1.051-0.728l-0.949,0.361L44.661,24.977z
		 M45.326,28.138l-2.032-5.334l1.423-0.542c0.926-0.353,1.387,0.203,1.669,0.944c0.208,0.545,0.252,1.139-0.252,1.576l1.839,2.348
		l-0.502,0.191l-1.77-2.307l-0.896,0.342l0.992,2.603L45.326,28.138z M41.099,28.285l1.042-0.583l-2.166-2.642L41.099,28.285z
		 M41.682,30.045l-0.443,0.248c-0.827-2.57-0.975-2.958-1.804-5.531l0.573-0.32l3.772,4.429l-0.446,0.249l-0.974-1.157l-1.149,0.644
		L41.682,30.045z M39.354,24.325l-0.289-1.352l0.469-0.262l-0.018,1.524L39.354,24.325z M38.773,31.981L35.52,27.29l0.414-0.287
		l1.711,2.466l-0.46-3.334l0.428-0.297l0.372,2.608l3.102,1.929l-0.439,0.304l-2.721-1.78l0.113,1.139l1.148,1.655L38.773,31.981z
		 M35.226,33.125l0.256-0.386c0.441,0.414,1.03,0.689,1.546,0.252c0.398-0.337,0.426-0.755,0.087-1.156
		c-0.313-0.369-0.849-0.459-1.448-0.525l-1.287-0.141c-0.485-0.054-0.921-0.154-1.198-0.48c-0.488-0.577-0.372-1.298,0.208-1.788
		c0.575-0.487,1.205-0.446,1.835,0.068l0.042,0.034l-0.239,0.375l-0.035-0.031c-0.408-0.354-0.926-0.488-1.341-0.138
		c-0.37,0.314-0.472,0.721-0.14,1.114c0.207,0.246,0.541,0.341,0.944,0.391l1.229,0.155c0.659,0.085,1.345,0.122,1.77,0.623
		c0.544,0.643,0.376,1.349-0.209,1.844C36.608,33.876,35.825,33.649,35.226,33.125 M32.783,35.594l0.218-0.408
		c0.478,0.37,1.09,0.589,1.563,0.104c0.364-0.372,0.352-0.792-0.023-1.158c-0.347-0.338-0.889-0.376-1.492-0.385l-1.294-0.018
		c-0.488-0.008-0.932-0.066-1.238-0.365c-0.541-0.528-0.494-1.255,0.037-1.798c0.526-0.539,1.156-0.559,1.833-0.108l0.045,0.03
		l-0.202,0.397l-0.038-0.027c-0.44-0.315-0.969-0.4-1.349-0.011c-0.338,0.348-0.401,0.764-0.033,1.122
		c0.23,0.226,0.571,0.288,0.977,0.3l1.238,0.037c0.664,0.023,1.351-0.007,1.821,0.452c0.603,0.589,0.503,1.308-0.032,1.855
		C34.23,36.21,33.429,36.058,32.783,35.594 M30.328,31.316l-1.308-0.309l0.33-0.337l0.782,0.324L29.79,30.22l0.329-0.337l0.339,1.3
		L30.328,31.316z M30.814,37.317l0.749-0.931l-2.995-1.643L30.814,37.317z M32.011,38.733l-0.318,0.394
		c-1.726-2.076-2.009-2.381-3.737-4.459l0.412-0.512l5.152,2.705l-0.321,0.396l-1.336-0.71l-0.826,1.025L32.011,38.733z
		 M30.465,41.004l-4.767-3.14l0.278-0.42l4.428,2.917l0.878-1.332l0.338,0.222L30.465,41.004z M27.539,42.431l0.583-1.042
		l-3.228-1.119L27.539,42.431z M28.956,43.627l-0.248,0.443c-2.048-1.759-2.378-2.012-4.43-3.772l0.321-0.573l5.531,1.804
		l-0.249,0.446l-1.436-0.477l-0.643,1.15L28.956,43.627z M27.956,45.841l-5.72-1.167l0.218-0.498l5.087,1.125l-4.292-2.938
		l0.218-0.499l4.754,3.373L27.956,45.841z"/>
	<path clip-path="url(#SVGID_6_)" d="M77.805,90.591l-0.975,0.562l-0.713-3.493L77.805,90.591z M78.335,91.512l1.009,1.752
		l0.975-0.561L79.31,90.95l0.754-0.433l-0.53-0.923l-0.754,0.435l-2.392-4.155l-1.219,0.701l0.592,4.975l0.624,1.085L78.335,91.512z
		 M70.786,89.699l0.348,0.769l0.769-0.348l2.552,5.636l1.025-0.464l-3.248-7.174l-0.769,0.348
		C71.439,88.945,71.142,89.355,70.786,89.699 M68.002,95.571l-0.924-3.246c-0.196-0.689-0.267-1.386,0.426-1.582
		c0.693-0.199,1.001,0.431,1.197,1.12l0.924,3.246c0.186,0.654,0.237,1.395-0.427,1.584C68.543,96.879,68.188,96.227,68.002,95.571
		 M70.707,94.801l-0.924-3.246c-0.38-1.335-1.234-2.069-2.531-1.7c-1.306,0.372-1.638,1.438-1.256,2.778l0.924,3.246
		c0.37,1.302,1.263,2.063,2.531,1.701C70.727,97.217,71.08,96.112,70.707,94.801 M62.898,92.818c0.067,0.877-0.32,1.403-0.692,2.026
		L60.453,97.8l0.086,1.122l3.93-0.3L64.383,97.5l-2.804,0.214l1.771-2.674c0.386-0.651,0.747-1.291,0.67-2.307
		c-0.097-1.275-0.826-1.99-2.119-1.894c-1.407,0.108-1.893,1.066-1.786,2.474l0.021,0.279l1.122-0.086l-0.021-0.279
		c-0.052-0.685,0.064-1.415,0.734-1.467C62.55,91.717,62.854,92.24,62.898,92.818 M57.608,97.805l-0.028,1.124l1.124,0.029
		l0.029-1.125L57.608,97.805z M53.128,96.3l0.427-3.348c0.09-0.709,0.3-1.379,1.015-1.288c0.714,0.091,0.749,0.791,0.659,1.501
		l-0.427,3.348c-0.086,0.677-0.33,1.376-1.015,1.289C53.112,97.716,53.042,96.977,53.128,96.3 M55.918,96.656l0.427-3.348
		c0.175-1.379-0.32-2.39-1.659-2.561c-1.347-0.171-2.071,0.68-2.247,2.063l-0.427,3.349c-0.171,1.341,0.351,2.391,1.659,2.558
		C54.987,98.885,55.746,98.007,55.918,96.656 M48.997,90.479l-0.231,0.812l0.811,0.231l-1.693,5.95l1.082,0.309l2.155-7.574
		l-0.811-0.23C49.982,90.325,49.491,90.446,48.997,90.479 M45.254,95.458l-0.361,1.066l1.065,0.36l0.362-1.064L45.254,95.458z
		 M41.192,92.429c0.315-0.613,0.749-1.132,1.37-0.813c0.618,0.317,0.444,0.973,0.131,1.583c-0.338,0.661-0.714,1.21-1.386,0.864
		C40.63,93.717,40.849,93.098,41.192,92.429 M40.191,91.916c-0.654,1.274-0.584,2.313,0.695,2.969
		c1.274,0.653,2.155,0.103,2.808-1.172c0.45-0.876,0.46-1.483,0.118-2.088c0.612-0.105,1.062-0.463,1.451-1.222
		c0.576-1.122,0.411-2.091-0.711-2.666c-1.126-0.577-2.011-0.153-2.589,0.974c-0.389,0.758-0.413,1.334-0.141,1.894
		C41.122,90.669,40.642,91.036,40.191,91.916 M44.243,89.88c-0.281,0.547-0.642,1.059-1.189,0.779
		c-0.552-0.284-0.351-0.878-0.07-1.425c0.264-0.517,0.63-0.941,1.147-0.676C44.639,88.819,44.504,89.371,44.243,89.88
		 M39.569,85.889l-0.456,0.71l0.71,0.456l-3.341,5.207l0.947,0.608l4.253-6.627l-0.711-0.457C40.556,86.027,40.051,86,39.569,85.889
		"/>
</g>
<g>
	<defs>
		<rect id="SVGID_7_" x="207.488" y="-120.742" width="179.627" height="125.743"/>
	</defs>
	<clipPath id="SVGID_8_">
		<use xlink:href="#SVGID_7_"  overflow="visible"/>
	</clipPath>
	<path clip-path="url(#SVGID_8_)" fill="#725548" d="M320.992-6.66h1.81v9.668h-1.81V-6.66z M318.528,1.424l-0.006-1.725
		c-0.467,0.376-0.886,0.881-0.886,1.58c0,0.237,0.075,0.521,0.365,0.521C318.244,1.8,318.404,1.579,318.528,1.424 M318.894,3.008
		l-0.177-0.725c-0.226,0.699-0.752,0.881-1.391,0.881c-1.075,0-1.451-0.902-1.451-1.718c0-1.73,1.198-2.316,2.648-2.912v-0.59
		c0-0.467-0.096-0.737-0.403-0.737c-0.418,0-0.435,0.393-0.435,0.737v0.397h-1.756c0-1.601,0.816-2.503,2.369-2.503
		c1.063,0,2.019,0.892,2.019,1.977v3.33c0,0.644,0.086,1.235,0.231,1.863H318.894z M311.124,5.001v-9.002h1.81v0.473
		c0.274-0.355,0.693-0.634,1.166-0.634c0.843,0,1.455,0.827,1.455,1.687v4.14c0,0.78-0.59,1.499-1.401,1.499
		c-0.489,0-0.935-0.262-1.22-0.681v2.518H311.124z M313.745,1.295v-3.626c0-0.209-0.026-0.462-0.3-0.462
		c-0.21,0-0.409,0.27-0.511,0.404v3.802c0.097,0.134,0.296,0.387,0.511,0.387C313.724,1.8,313.745,1.521,313.745,1.295
		 M308.667,1.424l-0.006-1.725c-0.467,0.376-0.886,0.881-0.886,1.58c0,0.237,0.075,0.521,0.365,0.521
		C308.381,1.8,308.542,1.579,308.667,1.424 M309.032,3.008l-0.177-0.725c-0.226,0.699-0.752,0.881-1.391,0.881
		c-1.075,0-1.451-0.902-1.451-1.718c0-1.73,1.198-2.316,2.648-2.912v-0.59c0-0.467-0.096-0.737-0.402-0.737
		c-0.419,0-0.436,0.393-0.436,0.737v0.397h-1.756c0-1.601,0.817-2.503,2.369-2.503c1.063,0,2.019,0.892,2.019,1.977v3.33
		c0,0.644,0.086,1.235,0.231,1.863H309.032z M303.706-6.66h1.81v9.668h-1.81V-6.66z M297.719,3.008V-6.66h1.955v3.668l1.515-3.668
		h2.186l-1.972,3.959l2.117,5.709h-2.031l-1.461-4.42l-0.354,0.913v3.507H297.719z M293.985-6.66h1.81v9.668h-1.81V-6.66z
		 M291.522,1.424l-0.005-1.725c-0.467,0.376-0.886,0.881-0.886,1.58c0,0.237,0.075,0.521,0.365,0.521
		C291.238,1.8,291.399,1.579,291.522,1.424 M291.889,3.008l-0.178-0.725c-0.225,0.699-0.752,0.881-1.391,0.881
		c-1.074,0-1.45-0.902-1.45-1.718c0-1.73,1.198-2.316,2.648-2.912v-0.59c0-0.467-0.097-0.737-0.403-0.737
		c-0.419,0-0.435,0.393-0.435,0.737v0.397h-1.756c0-1.601,0.816-2.503,2.368-2.503c1.064,0,2.02,0.892,2.02,1.977v3.33
		c0,0.644,0.086,1.235,0.231,1.863H291.889z M283.995,3.008V-6.66h1.81v3.158c0.333-0.376,0.838-0.66,1.375-0.66
		c0.779,0,1.241,0.821,1.241,1.525v5.645h-1.81v-5.172c0-0.198,0.054-0.629-0.247-0.629c-0.231,0-0.446,0.27-0.559,0.404v5.397
		H283.995z M279.254,1.214v-3.008c0-1.433,0.65-2.368,2.154-2.368c1.509,0,2.154,0.93,2.154,2.368v0.614h-1.778v-0.801
		c0-0.484-0.038-0.812-0.376-0.812c-0.285,0-0.344,0.307-0.344,0.532v3.47c0,0.237,0.032,0.591,0.344,0.591
		c0.354,0,0.376-0.316,0.376-0.887V0.167h1.778v1.047c0,1.203-1.01,1.95-2.154,1.95C280.27,3.164,279.254,2.412,279.254,1.214
		 M276.839-6.305h1.81v1.692h-1.81V-6.305z M276.839-4.001h1.81v7.009h-1.81V-4.001z M269.333,3.008V-6.66h2.342l1.031,6.445
		l1.112-6.445h2.261v9.668h-1.439l-0.043-6.8c-0.317,2.09-0.811,4.711-1.128,6.8h-1.461l-1.187-6.843l-0.043,6.843H269.333z"/>
	<path clip-path="url(#SVGID_8_)" fill="#C25679" d="M334.778-12.576l-0.005-1.725c-0.468,0.376-0.887,0.881-0.887,1.58
		c0,0.237,0.076,0.521,0.366,0.521C334.493-12.2,334.655-12.421,334.778-12.576 M335.143-10.992l-0.177-0.725
		c-0.226,0.699-0.752,0.881-1.391,0.881c-1.074,0-1.45-0.902-1.45-1.718c0-1.73,1.198-2.316,2.648-2.912v-0.59
		c0-0.467-0.097-0.737-0.403-0.737c-0.419,0-0.435,0.393-0.435,0.737v0.397h-1.757c0-1.601,0.817-2.503,2.369-2.503
		c1.064,0,2.02,0.892,2.02,1.977v3.33c0,0.644,0.086,1.235,0.231,1.863H335.143z M333.919-18.478l0.729-2.374h1.854l-1.488,2.374
		H333.919z M328.639-10.992l-1.456-7.009h1.698l0.692,4.733l0.586-4.733h1.697l-1.386,7.009H328.639z M325.008-12.791v-3.47
		c0-0.242-0.075-0.532-0.414-0.532c-0.327,0-0.37,0.307-0.37,0.532v3.47c0,0.237,0.011,0.591,0.37,0.591
		C324.965-12.2,325.008-12.544,325.008-12.791 M322.414-12.812v-2.982c0-1.433,0.634-2.362,2.18-2.362
		c1.547,0,2.208,0.924,2.208,2.362v2.982c0,1.203-1.037,1.976-2.208,1.976C323.429-10.836,322.414-11.614,322.414-12.812
		 M317.102-10.992v-7.009h1.81v0.494c0.333-0.376,0.838-0.649,1.375-0.649c0.779,0,1.241,0.81,1.241,1.515v5.649h-1.81v-5.333
		c0-0.15,0-0.468-0.301-0.468c-0.21,0-0.403,0.247-0.505,0.365v5.436H317.102z M314.384-12.791v-3.47
		c0-0.242-0.075-0.532-0.414-0.532c-0.327,0-0.37,0.307-0.37,0.532v3.47c0,0.237,0.011,0.591,0.37,0.591
		C314.341-12.2,314.384-12.544,314.384-12.791 M311.79-12.812v-2.982c0-1.433,0.634-2.362,2.18-2.362
		c1.547,0,2.208,0.924,2.208,2.362v2.982c0,1.203-1.037,1.976-2.208,1.976C312.805-10.836,311.79-11.614,311.79-12.812
		 M308.304-10.992v-7.009h1.799v0.57c0.231-0.376,0.554-0.671,0.967-0.671c0.167,0,0.322,0.026,0.489,0.052l-0.108,1.527
		c-0.198-0.023-0.386-0.055-0.596-0.055c-0.494,0-0.752,0.317-0.752,0.882v4.704H308.304z M305.522-12.576l-0.006-1.725
		c-0.467,0.376-0.886,0.881-0.886,1.58c0,0.237,0.075,0.521,0.365,0.521C305.237-12.2,305.398-12.421,305.522-12.576
		 M305.887-10.992l-0.177-0.725c-0.226,0.699-0.752,0.881-1.391,0.881c-1.075,0-1.451-0.902-1.451-1.718
		c0-1.73,1.198-2.316,2.648-2.912v-0.59c0-0.467-0.096-0.737-0.402-0.737c-0.419,0-0.436,0.393-0.436,0.737v0.397h-1.756
		c0-1.601,0.817-2.503,2.369-2.503c1.063,0,2.019,0.892,2.019,1.977v3.33c0,0.644,0.086,1.235,0.231,1.863H305.887z M299.635-13.397
		v-3.396h-0.516v-1.208h0.516v-2.304h1.81v2.304h0.87v1.208h-0.87v3.83c0,0.366,0.107,0.575,0.489,0.575
		c0.177,0,0.349-0.005,0.526-0.033l-0.107,1.403c-0.355,0.107-0.682,0.107-1.037,0.107
		C299.791-10.911,299.635-12.174,299.635-13.397 M293.55-13.758l1.981-0.38c0,0.847,0.07,1.846,0.747,1.846
		c0.462,0,0.58-0.333,0.58-0.741c0-0.806-0.58-1.524-1.144-2.02l-0.607-0.514c-0.763-0.646-1.552-1.355-1.552-2.745
		c0-1.584,1.101-2.546,2.728-2.546c1.375,0,2.466,1.123,2.466,2.491c0,0.033-0.006,0.076-0.006,0.231l-2.019,0.281
		c0-0.124,0.016-0.242,0.016-0.393c0-0.457-0.102-1.111-0.618-1.111c-0.462,0-0.644,0.439-0.644,0.847
		c0,0.694,0.365,1.124,0.827,1.51c0.247,0.209,0.489,0.408,0.714,0.613c0.994,0.885,1.741,1.793,1.741,3.287
		c0,1.385-1.139,2.309-2.487,2.309C294.42-10.793,293.625-12.243,293.55-13.758 M289.473-12.576l-0.005-1.725
		c-0.468,0.376-0.887,0.881-0.887,1.58c0,0.237,0.075,0.521,0.366,0.521C289.188-12.2,289.349-12.421,289.473-12.576
		 M289.838-10.992l-0.177-0.725c-0.226,0.699-0.752,0.881-1.391,0.881c-1.074,0-1.45-0.902-1.45-1.718
		c0-1.73,1.197-2.316,2.648-2.912v-0.59c0-0.467-0.097-0.737-0.403-0.737c-0.419,0-0.435,0.393-0.435,0.737v0.397h-1.757
		c0-1.601,0.817-2.503,2.369-2.503c1.063,0,2.019,0.892,2.019,1.977v3.33c0,0.644,0.086,1.235,0.231,1.863H289.838z M281.663-10.992
		v-9.668h1.81v5.093l1.107-2.434h1.939l-1.724,2.959l1.718,4.05h-1.874l-0.924-3.126l-0.242,0.408v2.718H281.663z M276.239-10.992
		v-7.009h1.81v0.494c0.333-0.376,0.837-0.649,1.375-0.649c0.778,0,1.24,0.81,1.24,1.515v5.649h-1.81v-5.333
		c0-0.15,0-0.468-0.301-0.468c-0.209,0-0.402,0.247-0.504,0.365v5.436H276.239z M273.456-12.576l-0.005-1.725
		c-0.467,0.376-0.886,0.881-0.886,1.58c0,0.237,0.075,0.521,0.365,0.521C273.172-12.2,273.333-12.421,273.456-12.576
		 M273.822-10.992l-0.178-0.725c-0.225,0.699-0.752,0.881-1.391,0.881c-1.074,0-1.45-0.902-1.45-1.718
		c0-1.73,1.198-2.316,2.648-2.912v-0.59c0-0.467-0.097-0.737-0.403-0.737c-0.419,0-0.435,0.393-0.435,0.737v0.397h-1.756
		c0-1.601,0.816-2.503,2.368-2.503c1.064,0,2.02,0.892,2.02,1.977v3.33c0,0.644,0.086,1.235,0.231,1.863H273.822z M264.594-10.992
		v-9.668h1.955v3.965h1.402v-3.965h1.966v9.668h-1.966v-4.312h-1.402v4.312H264.594z"/>
	<path clip-path="url(#SVGID_8_)" d="M350.197-24.991h2.625v-2.625h-2.625V-24.991z M346.752-37.461v5.906
		c0,2.708,0.154,4.594-2.625,4.594h-1.446v-14.436h1.395C346.68-41.397,346.752-39.972,346.752-37.461 M349.377-30.897v-7.219
		c0-3.856-1.405-5.25-5.25-5.25h-4.071v18.375h4.051C348.024-24.991,349.377-26.991,349.377-30.897 M328.808-36.701v-1.415h-2.625
		v13.125h2.625v-10.388c0.43-0.358,0.902-0.768,1.64-0.768c0.851,0,0.985,0.481,0.985,1.311v9.845h2.625v-11.188
		c0-1.147-0.728-2.123-1.887-2.123C330.602-38.302,329.731-37.543,328.808-36.701 M321.856-32.866h-2.625
		c0-1.355-0.041-3.281,1.312-3.281C321.886-36.147,321.856-34.23,321.856-32.866 M319.231-30.897v-0.658h5.25v-0.306
		c0-3.559-0.513-6.441-3.938-6.441c-3.425,0-3.937,2.882-3.937,6.441c0,3.722,0.348,7.055,3.927,7.055
		c2.861,0,3.948-1.754,3.948-4.78h-2.615c0,1.323,0,2.625-1.323,2.625C319.067-26.961,319.231-29.381,319.231-30.897
		 M309.161-38.302c-3.281,0-3.24,3.958-3.24,7.394c0,2.655,0.646,6.102,3.281,6.102c1.19,0,2.02-0.749,2.625-1.374v1.189h2.625
		v-18.365h-2.625v6.542C311.14-37.543,310.402-38.302,309.161-38.302 M308.546-32.221c0-1.579-0.226-3.926,1.313-3.926
		c0.728,0,1.486,0.236,1.968,0.522v8.254c-0.584,0.236-1.292,0.41-1.968,0.41C308.269-26.961,308.546-30.427,308.546-32.221
		 M298.918-34.18l1.968-0.656c-0.441-1.865-1.589-3.466-3.937-3.466c-2.328,0-3.938,1.169-3.938,3.466
		c0,1.56,0.974,2.39,1.969,3.076l2.625,1.969c0.369,0.34,0.656,0.801,0.656,1.519c0,0.841-0.482,1.311-1.312,1.311
		c-1.108,0-1.672-1.137-1.969-1.969l-1.969,0.658c0.441,1.866,1.631,3.466,3.938,3.466c2.327,0,3.937-1.169,3.937-3.466
		c0-1.661-0.933-2.657-1.968-3.488l-2.625-1.967c-0.288-0.216-0.657-0.595-0.657-1.109c0-0.841,0.482-1.311,1.313-1.311
		C298.077-36.147,298.6-35.01,298.918-34.18 M298.261-43.284l-1.312,2.625l-1.313-2.625h-1.968l1.968,3.937h2.625l1.969-3.937
		H298.261z M288.797-31.555v3.63c-0.277,0.37-0.677,0.964-1.313,0.964c-0.943,0-1.312-0.645-1.312-1.63
		C286.172-30.18,287.761-30.856,288.797-31.555 M287.484-38.302c-2.491,0-3.906,1.642-3.937,4.122h2.625
		c0-1.147,0.236-2.09,1.312-2.09c1.098,0,1.313,0.932,1.313,2.09v0.945c-2.533,0.994-5.25,1.928-5.25,5.342
		c0,1.528,1.107,3.087,2.625,3.087s2.102-1.119,2.625-2.155l0.349,1.97h2.614c-0.256-0.934-0.338-1.939-0.338-3.281v-5.908
		C291.422-36.619,289.976-38.302,287.484-38.302 M288.31-39.347l2.625-3.937h-2.625l-1.313,3.937H288.31z M276.636-36.701v-1.415
		h-2.625v13.125h2.625v-10.388c0.431-0.358,0.902-0.768,1.64-0.768c0.852,0,0.985,0.481,0.985,1.311v9.845h2.625v-11.188
		c0-1.147-0.728-2.123-1.887-2.123C278.43-38.302,277.559-37.543,276.636-36.701 M265.582-31.555v3.63
		c-0.277,0.37-0.677,0.964-1.312,0.964c-0.944,0-1.313-0.645-1.313-1.63C262.957-30.18,264.546-30.856,265.582-31.555
		 M264.27-38.302c-2.492,0-3.907,1.642-3.938,4.122h2.625c0-1.147,0.236-2.09,1.313-2.09c1.097,0,1.312,0.932,1.312,2.09v0.945
		c-2.533,0.994-5.25,1.928-5.25,5.342c0,1.528,1.108,3.087,2.625,3.087c1.518,0,2.102-1.119,2.625-2.155l0.349,1.97h2.615
		c-0.257-0.934-0.339-1.939-0.339-3.281v-5.908C268.207-36.619,266.761-38.302,264.27-38.302 M253.421-36.701v-1.415h-2.625v13.125
		h2.625v-10.388c0.431-0.358,0.902-0.768,1.641-0.768c0.851,0,0.984,0.481,0.984,1.311v9.845h2.625v-11.188
		c0-1.147-0.728-2.123-1.887-2.123C255.215-38.302,254.344-37.543,253.421-36.701"/>
	<path clip-path="url(#SVGID_8_)" d="M363.021-54.033h1.151v-1.582c0-0.394-0.105-0.87-0.588-0.87c-0.466,0-0.563,0.501-0.563,0.87
		V-54.033z M360.06-49.971v-4.878c0-2.348,1.064-3.876,3.525-3.876c2.469,0,3.524,1.52,3.524,3.876v2.373h-4.087v2.54
		c0,0.378,0.044,0.967,0.563,0.967c0.527,0,0.615-0.545,0.615-1.037v-1.257h2.909v1.292c0,1.969-1.652,3.233-3.524,3.233
		C361.72-46.738,360.06-48.011,360.06-49.971 M347.253-46.993V-58.46h2.962v0.817c0.528-0.615,1.319-1.081,2.163-1.081
		c0.791,0,1.467,0.589,1.784,1.292c0.553-0.747,1.424-1.292,2.39-1.292c1.275,0,2.057,1.345,2.057,2.495v9.237h-2.962v-8.647
		c0-0.29,0-0.845-0.431-0.845c-0.298,0-0.668,0.467-0.808,0.652v8.84h-2.962v-8.666c0-0.281-0.009-0.826-0.404-0.826
		c-0.343,0-0.668,0.441-0.835,0.659l0.008,8.833H347.253z M341.813-54.033h1.151v-1.582c0-0.394-0.105-0.87-0.588-0.87
		c-0.466,0-0.563,0.501-0.563,0.87V-54.033z M338.852-49.971v-4.878c0-2.348,1.064-3.876,3.525-3.876
		c2.469,0,3.524,1.52,3.524,3.876v2.373h-4.087v2.54c0,0.378,0.044,0.967,0.563,0.967c0.527,0,0.615-0.545,0.615-1.037v-1.257h2.909
		v1.292c0,1.969-1.652,3.233-3.524,3.233C340.512-46.738,338.852-48.011,338.852-49.971 M332.971-46.993l-2.382-11.468h2.778
		l1.134,7.743l0.958-7.743h2.777l-2.268,11.468H332.971z M323.848-46.993v-2.004l3.155-7.33h-2.663v-2.134h5.722v1.96l-3.182,7.365
		h3.182v2.143H323.848z M313.67-49.76l2.268-0.81c0.193,0.589,0.536,1.661,1.274,1.661c0.44,0,0.554-0.281,0.554-0.649
		c0-0.81-0.835-1.503-1.758-2.294l-0.483-0.413c-1.028-0.898-2.013-1.942-2.013-3.366c0-2.067,1.828-3.085,3.709-3.085
		c1.767,0,3.085,1.582,3.533,3.208l-2.126,0.728c-0.247-0.633-0.695-1.749-1.495-1.749c-0.439,0-0.65,0.378-0.65,0.722
		c0,0.58,0.826,1.317,1.6,1.969l0.545,0.482c1.01,0.914,2.065,2.058,2.065,3.42c0,1.89-1.529,3.198-3.349,3.198
		C315.5-46.738,314.164-48.011,313.67-49.76 M309.497-49.583l-0.009-2.823c-0.765,0.617-1.45,1.443-1.45,2.584
		c0,0.388,0.123,0.854,0.597,0.854C309.03-48.969,309.294-49.33,309.497-49.583 M310.093-46.993l-0.29-1.185
		c-0.369,1.141-1.23,1.44-2.276,1.44c-1.758,0-2.373-1.475-2.373-2.811c0-2.83,1.96-3.788,4.333-4.765v-0.967
		c0-0.763-0.158-1.204-0.659-1.204c-0.686,0-0.712,0.643-0.712,1.204v0.652h-2.874c0-2.619,1.336-4.096,3.876-4.096
		c1.74,0,3.304,1.459,3.304,3.233v5.451c0,1.053,0.141,2.02,0.378,3.048H310.093z M308.089-59.245l1.196-3.883h3.032l-2.435,3.883
		H308.089z M298.729-46.993l-2.909-15.82h3.032l1.398,9.59l1.546-9.59h2.989l-3.129,15.82H298.729z M288.517-54.033h1.152v-1.582
		c0-0.394-0.106-0.87-0.589-0.87c-0.466,0-0.563,0.501-0.563,0.87V-54.033z M285.554-49.971v-4.878c0-2.348,1.064-3.876,3.525-3.876
		c2.469,0,3.524,1.52,3.524,3.876v2.373h-4.087v2.54c0,0.378,0.044,0.967,0.563,0.967c0.527,0,0.615-0.545,0.615-1.037v-1.257h2.909
		v1.292c0,1.969-1.652,3.233-3.524,3.233C287.215-46.738,285.554-48.011,285.554-49.971 M276.862-46.993V-58.46h2.962v0.807
		c0.545-0.614,1.371-1.062,2.25-1.062c1.274,0,2.03,1.327,2.03,2.477v9.246h-2.962v-8.726c0-0.246,0-0.766-0.492-0.766
		c-0.343,0-0.659,0.405-0.826,0.599v8.893H276.862z M268.565-49.927v-4.922c0-2.348,1.063-3.876,3.524-3.876
		c2.47,0,3.525,1.52,3.525,3.876v1.002h-2.909v-1.311c0-0.791-0.062-1.327-0.616-1.327c-0.465,0-0.562,0.501-0.562,0.87v5.679
		c0,0.387,0.053,0.967,0.562,0.967c0.58,0,0.616-0.52,0.616-1.45v-1.222h2.909v1.714c0,1.969-1.653,3.189-3.525,3.189
		C270.227-46.738,268.565-47.967,268.565-49.927 M270.753-59.05l-1.766-3.57h2.408l0.642,1.768l0.659-1.768h2.417l-1.811,3.57
		H270.753z M263.265-54.033h1.152v-1.582c0-0.394-0.106-0.87-0.589-0.87c-0.466,0-0.563,0.501-0.563,0.87V-54.033z M260.303-49.971
		v-4.878c0-2.348,1.064-3.876,3.525-3.876c2.469,0,3.524,1.52,3.524,3.876v2.373h-4.087v2.54c0,0.378,0.044,0.967,0.563,0.967
		c0.527,0,0.615-0.545,0.615-1.037v-1.257h2.909v1.292c0,1.969-1.652,3.233-3.524,3.233
		C261.964-46.738,260.303-48.011,260.303-49.971 M251.532-49.189v-6.775c0-1.407,1.002-2.76,2.382-2.76
		c0.773,0,1.459,0.457,1.907,1.036v-5.124h2.962v15.82h-2.962v-0.86c-0.466,0.686-1.195,1.115-1.995,1.115
		C252.5-46.738,251.532-47.914,251.532-49.189 M255.821-49.602v-6.224c-0.167-0.218-0.492-0.659-0.835-0.659
		c-0.448,0-0.492,0.413-0.492,0.757v5.933c0,0.369,0.035,0.826,0.492,0.826C255.337-48.969,255.664-49.382,255.821-49.602
		 M245.696-46.993V-58.46h2.944v0.93c0.378-0.615,0.905-1.097,1.582-1.097c0.273,0,0.528,0.044,0.8,0.088l-0.176,2.496
		c-0.325-0.036-0.633-0.088-0.975-0.088c-0.809,0-1.231,0.517-1.231,1.44v7.699H245.696z M235.94-51.518l3.243-0.624
		c0,1.389,0.114,3.022,1.222,3.022c0.756,0,0.949-0.544,0.949-1.211c0-1.32-0.949-2.498-1.872-3.305l-0.993-0.845
		c-1.248-1.055-2.54-2.215-2.54-4.49c0-2.594,1.802-4.166,4.465-4.166c2.25,0,4.034,1.837,4.034,4.078
		c0,0.053-0.009,0.123-0.009,0.378l-3.305,0.457c0-0.202,0.027-0.397,0.027-0.643c0-0.747-0.167-1.818-1.011-1.818
		c-0.756,0-1.055,0.721-1.055,1.389c0,1.132,0.598,1.837,1.354,2.468c0.404,0.343,0.8,0.668,1.169,1.002
		c1.626,1.452,2.847,2.937,2.847,5.379c0,2.269-1.863,3.781-4.069,3.781C237.364-46.666,236.063-49.039,235.94-51.518"/>
	<path clip-path="url(#SVGID_8_)" d="M375.828-68.694h1.746v1.703h-1.746V-68.694z M373.105-74h1.81v7.01h-1.81V-74z
		 M373.535-74.474l0.73-2.374h1.853l-1.487,2.374H373.535z M369.163-66.992L367.707-74h1.698l0.692,4.732L370.683-74h1.697
		l-1.386,7.009H369.163z M364.689-69.397v-3.395h-0.516V-74h0.516v-2.305h1.81V-74h0.87v1.208h-0.87v3.83
		c0,0.365,0.107,0.574,0.489,0.574c0.177,0,0.349-0.005,0.526-0.032l-0.107,1.402c-0.355,0.109-0.683,0.109-1.037,0.109
		C364.845-66.91,364.689-68.174,364.689-69.397 M359.64-68.684l1.386-0.494c0.118,0.36,0.327,1.015,0.778,1.015
		c0.269,0,0.339-0.172,0.339-0.397c0-0.495-0.51-0.919-1.074-1.402l-0.296-0.253c-0.628-0.548-1.23-1.187-1.23-2.057
		c0-1.262,1.117-1.885,2.267-1.885c1.079,0,1.885,0.967,2.159,1.96l-1.3,0.446c-0.15-0.387-0.424-1.069-0.913-1.069
		c-0.268,0-0.397,0.231-0.397,0.441c0,0.354,0.505,0.805,0.978,1.203l0.333,0.295c0.618,0.559,1.262,1.257,1.262,2.09
		c0,1.154-0.934,1.955-2.046,1.955C360.757-66.835,359.941-67.615,359.64-68.684 M357.04-76.66h1.81v9.668h-1.81V-76.66z
		 M353.705-71.293h0.703v-0.967c0-0.242-0.064-0.532-0.359-0.532c-0.285,0-0.344,0.306-0.344,0.532V-71.293z M351.895-68.813v-2.981
		c0-1.434,0.65-2.367,2.154-2.367c1.509,0,2.153,0.928,2.153,2.367v1.45h-2.497v1.553c0,0.231,0.027,0.59,0.344,0.59
		c0.322,0,0.376-0.333,0.376-0.633v-0.768h1.777v0.789c0,1.203-1.009,1.977-2.153,1.977
		C352.91-66.835,351.895-67.615,351.895-68.813 M347.415-66.992v-1.225l1.929-4.479h-1.628V-74h3.497v1.197l-1.945,4.501h1.945
		v1.311H347.415z M348.5-74.431l-1.079-2.181h1.471l0.392,1.08l0.403-1.08h1.477l-1.106,2.181H348.5z M342.216-66.992V-74h1.81
		v0.494c0.333-0.376,0.838-0.65,1.375-0.65c0.779,0,1.241,0.811,1.241,1.515v5.65h-1.81v-5.334c0-0.15,0-0.467-0.301-0.467
		c-0.209,0-0.403,0.247-0.505,0.365v5.436H342.216z M339.434-68.577l-0.005-1.724c-0.468,0.376-0.887,0.881-0.887,1.579
		c0,0.237,0.075,0.521,0.366,0.521C339.149-68.201,339.31-68.42,339.434-68.577 M339.799-66.992l-0.177-0.725
		c-0.226,0.698-0.752,0.881-1.391,0.881c-1.074,0-1.45-0.903-1.45-1.719c0-1.73,1.197-2.314,2.648-2.911v-0.591
		c0-0.467-0.097-0.736-0.403-0.736c-0.419,0-0.435,0.392-0.435,0.736v0.397h-1.757c0-1.6,0.817-2.501,2.369-2.501
		c1.063,0,2.019,0.89,2.019,1.975v3.33c0,0.645,0.086,1.237,0.231,1.864H339.799z M329.062-66.992V-74h1.81v0.499
		c0.323-0.376,0.806-0.659,1.322-0.659c0.483,0,0.897,0.358,1.09,0.788c0.338-0.456,0.87-0.788,1.461-0.788
		c0.779,0,1.257,0.82,1.257,1.524v5.645h-1.81v-5.285c0-0.177,0-0.516-0.263-0.516c-0.183,0-0.409,0.285-0.495,0.398v5.403h-1.81
		v-5.296c0-0.172-0.005-0.505-0.247-0.505c-0.209,0-0.408,0.269-0.51,0.403l0.005,5.398H329.062z M323.788-66.992L322.332-74h1.698
		l0.692,4.732L325.308-74h1.697l-1.386,7.009H323.788z M317.96-71.293h0.704v-0.967c0-0.242-0.065-0.532-0.36-0.532
		c-0.285,0-0.344,0.306-0.344,0.532V-71.293z M316.15-68.813v-2.981c0-1.434,0.65-2.367,2.154-2.367
		c1.509,0,2.154,0.928,2.154,2.367v1.45h-2.498v1.553c0,0.231,0.027,0.59,0.344,0.59c0.322,0,0.376-0.333,0.376-0.633v-0.768h1.778
		v0.789c0,1.203-1.01,1.977-2.154,1.977C317.165-66.835,316.15-67.615,316.15-68.813 M308.324-66.992V-74h1.811v0.499
		c0.322-0.376,0.805-0.659,1.321-0.659c0.483,0,0.897,0.358,1.09,0.788c0.339-0.456,0.87-0.788,1.461-0.788
		c0.779,0,1.257,0.82,1.257,1.524v5.645h-1.81v-5.285c0-0.177,0-0.516-0.263-0.516c-0.183,0-0.408,0.285-0.494,0.398v5.403h-1.81
		v-5.296c0-0.172-0.006-0.505-0.248-0.505c-0.209,0-0.408,0.269-0.51,0.403l0.006,5.398H308.324z M305.628-74h1.81v7.01h-1.81V-74z
		 M306.058-74.474l0.73-2.374h1.853l-1.487,2.374H306.058z M300.069-66.992V-74h1.81v0.494c0.333-0.376,0.838-0.65,1.375-0.65
		c0.779,0,1.241,0.811,1.241,1.515v5.65h-1.81v-5.334c0-0.15,0-0.467-0.301-0.467c-0.209,0-0.403,0.247-0.505,0.365v5.436H300.069z
		 M296.744-71.293h0.704v-0.967c0-0.242-0.064-0.532-0.36-0.532c-0.284,0-0.344,0.306-0.344,0.532V-71.293z M294.934-68.813v-2.981
		c0-1.434,0.65-2.367,2.154-2.367c1.509,0,2.154,0.928,2.154,2.367v1.45h-2.498v1.553c0,0.231,0.027,0.59,0.344,0.59
		c0.322,0,0.376-0.333,0.376-0.633v-0.768h1.778v0.789c0,1.203-1.01,1.977-2.154,1.977
		C295.949-66.835,294.934-67.615,294.934-68.813 M287.109-66.992V-74h1.81v0.499c0.322-0.376,0.805-0.659,1.321-0.659
		c0.483,0,0.897,0.358,1.09,0.788c0.339-0.456,0.87-0.788,1.461-0.788c0.779,0,1.257,0.82,1.257,1.524v5.645h-1.81v-5.285
		c0-0.177,0-0.516-0.263-0.516c-0.183,0-0.408,0.285-0.494,0.398v5.403h-1.81v-5.296c0-0.172-0.006-0.505-0.247-0.505
		c-0.21,0-0.409,0.269-0.511,0.403l0.006,5.398H287.109z M284.391-68.791v-3.47c0-0.242-0.075-0.532-0.414-0.532
		c-0.327,0-0.37,0.306-0.37,0.532v3.47c0,0.236,0.01,0.59,0.37,0.59C284.348-68.201,284.391-68.543,284.391-68.791 M281.797-68.813
		v-2.981c0-1.434,0.633-2.363,2.18-2.363s2.208,0.924,2.208,2.363v2.981c0,1.203-1.037,1.977-2.208,1.977
		C282.812-66.835,281.797-67.615,281.797-68.813 M278.311-66.992V-74h1.799v0.569c0.231-0.376,0.553-0.671,0.967-0.671
		c0.166,0,0.322,0.026,0.489,0.053l-0.108,1.526c-0.198-0.022-0.386-0.053-0.596-0.053c-0.494,0-0.752,0.316-0.752,0.88v4.705
		H278.311z M272.95-64.999V-74h1.811v0.472c0.273-0.354,0.692-0.632,1.165-0.632c0.843,0,1.456,0.826,1.456,1.685v4.141
		c0,0.779-0.591,1.499-1.402,1.499c-0.489,0-0.935-0.263-1.219-0.682v2.519H272.95z M275.572-68.705v-3.626
		c0-0.209-0.027-0.462-0.301-0.462c-0.21,0-0.408,0.269-0.51,0.403v3.803c0.096,0.135,0.295,0.386,0.51,0.386
		C275.55-68.201,275.572-68.479,275.572-68.705 M266.011-68.351V-74h1.81v5.21c0,0.198,0,0.59,0.247,0.59
		c0.236,0,0.451-0.257,0.564-0.397V-74h1.81v7.009h-1.81v-0.607c-0.338,0.414-0.849,0.763-1.38,0.763
		C266.468-66.835,266.011-67.646,266.011-68.351 M260.699-66.992v-9.668h1.81v5.092L263.616-74h1.938l-1.724,2.959l1.719,4.05
		h-1.874l-0.924-3.126l-0.242,0.408v2.718H260.699z M255.747-68.684l1.386-0.494c0.118,0.36,0.327,1.015,0.778,1.015
		c0.269,0,0.339-0.172,0.339-0.397c0-0.495-0.51-0.919-1.074-1.402l-0.296-0.253c-0.628-0.548-1.23-1.187-1.23-2.057
		c0-1.262,1.117-1.885,2.267-1.885c1.079,0,1.885,0.967,2.159,1.96l-1.3,0.446c-0.15-0.387-0.424-1.069-0.913-1.069
		c-0.268,0-0.397,0.231-0.397,0.441c0,0.354,0.504,0.805,0.977,1.203l0.333,0.295c0.618,0.559,1.262,1.257,1.262,2.09
		c0,1.154-0.934,1.955-2.046,1.955C256.864-66.835,256.048-67.615,255.747-68.684 M253.196-68.577l-0.006-1.724
		c-0.467,0.376-0.886,0.881-0.886,1.579c0,0.237,0.075,0.521,0.365,0.521C252.911-68.201,253.072-68.42,253.196-68.577
		 M253.561-66.992l-0.177-0.725c-0.226,0.698-0.752,0.881-1.392,0.881c-1.074,0-1.45-0.903-1.45-1.719
		c0-1.73,1.198-2.314,2.648-2.911v-0.591c0-0.467-0.096-0.736-0.403-0.736c-0.419,0-0.435,0.392-0.435,0.736v0.397h-1.756
		c0-1.6,0.816-2.501,2.369-2.501c1.063,0,2.019,0.89,2.019,1.975v3.33c0,0.645,0.086,1.237,0.231,1.864H253.561z M252.336-74.479
		l0.731-2.374h1.853l-1.488,2.374H252.336z M247.905-76.66h1.81v9.668h-1.81V-76.66z M240.96-68.351V-74h1.81v5.21
		c0,0.198,0,0.59,0.247,0.59c0.237,0,0.452-0.257,0.564-0.397V-74h1.81v7.009h-1.81v-0.607c-0.338,0.414-0.848,0.763-1.38,0.763
		C241.417-66.835,240.96-67.646,240.96-68.351 M238.28-68.791v-3.47c0-0.242-0.075-0.532-0.414-0.532
		c-0.327,0-0.37,0.306-0.37,0.532v3.47c0,0.236,0.011,0.59,0.37,0.59C238.237-68.201,238.28-68.543,238.28-68.791 M235.686-68.813
		v-2.981c0-1.434,0.634-2.363,2.18-2.363c1.547,0,2.208,0.924,2.208,2.363v2.981c0,1.203-1.037,1.977-2.208,1.977
		C236.701-66.835,235.686-67.615,235.686-68.813 M232.093-66.992L230.637-74h1.697l0.693,4.732L233.613-74h1.697l-1.386,7.009
		H232.093z M226.158-68.684l1.385-0.494c0.118,0.36,0.328,1.015,0.779,1.015c0.269,0,0.338-0.172,0.338-0.397
		c0-0.495-0.51-0.919-1.074-1.402l-0.295-0.253c-0.629-0.548-1.23-1.187-1.23-2.057c0-1.262,1.117-1.885,2.266-1.885
		c1.08,0,1.886,0.967,2.16,1.96l-1.3,0.446c-0.151-0.387-0.425-1.069-0.913-1.069c-0.269,0-0.398,0.231-0.398,0.441
		c0,0.354,0.505,0.805,0.978,1.203l0.333,0.295c0.617,0.559,1.262,1.257,1.262,2.09c0,1.154-0.935,1.955-2.046,1.955
		C227.275-66.835,226.458-67.615,226.158-68.684 M221.571-71.293h0.703v-0.967c0-0.242-0.064-0.532-0.36-0.532
		c-0.284,0-0.343,0.306-0.343,0.532V-71.293z M219.761-68.813v-2.981c0-1.434,0.649-2.367,2.153-2.367
		c1.51,0,2.154,0.928,2.154,2.367v1.45h-2.497v1.553c0,0.231,0.026,0.59,0.343,0.59c0.323,0,0.376-0.333,0.376-0.633v-0.768h1.778
		v0.789c0,1.203-1.01,1.977-2.154,1.977C220.776-66.835,219.761-67.615,219.761-68.813 M215.281-66.992v-1.225l1.928-4.479h-1.627
		V-74h3.496v1.197l-1.944,4.501h1.944v1.311H215.281z M216.366-74.431l-1.08-2.181h1.472l0.392,1.08l0.403-1.08h1.477l-1.106,2.181
		H216.366z"/>
	<path clip-path="url(#SVGID_8_)" d="M385.366-81.743v1.751h0.875c0,0.609-0.24,0.875-0.875,0.875l0.438,0.874
		c1.108,0,1.258-0.738,1.292-1.844c0.014-0.446,0.021-0.998,0.021-1.656H385.366z M382.761-85.243h-1.75
		c0-0.902-0.027-2.187,0.875-2.187C382.782-87.43,382.761-86.152,382.761-85.243 M381.011-83.93v-0.437h3.5v-0.206
		c0-2.372-0.342-4.293-2.625-4.293c-2.283,0-2.625,1.921-2.625,4.293c0,2.483,0.233,4.705,2.618,4.705
		c1.908,0,2.632-1.169,2.632-3.187h-1.743c0,0.883,0,1.75-0.882,1.75C380.902-81.305,381.011-82.917,381.011-83.93 M375.706-87.43
		c0.479,0,0.438,0.567,0.438,1.054v6.384h1.75v-6.365c0-1.345,0.034-2.509-1.313-2.509c-1.086,0-1.674,0.487-2.187,1.157
		c-0.13-0.767-0.451-1.157-1.319-1.157c-1.033,0-1.709,0.554-2.181,1.116v-0.992h-1.75v8.75h1.75v-6.883
		c0.314-0.26,0.752-0.555,1.312-0.555c0.486,0,0.438,0.589,0.438,1.088v6.35h1.75v-6.849
		C374.715-87.102,375.132-87.43,375.706-87.43 M366.259-85.243h-1.75c0-0.902-0.027-2.187,0.875-2.187
		C366.28-87.43,366.259-86.152,366.259-85.243 M364.509-83.93v-0.437h3.5v-0.206c0-2.372-0.342-4.293-2.625-4.293
		c-2.283,0-2.625,1.921-2.625,4.293c0,2.483,0.233,4.705,2.618,4.705c1.908,0,2.632-1.169,2.632-3.187h-1.743
		c0,0.883,0,1.75-0.882,1.75C364.4-81.305,364.509-82.917,364.509-83.93 M359.683-90.055h1.75v-1.75h-1.75V-90.055z M359.246-77.805
		c1.346,0,2.187-0.778,2.187-2.14v-8.797h-1.75v8.607c0,0.607-0.239,1.018-0.875,1.018c-0.123,0-0.335-0.028-0.437-0.047v1.244
		C358.603-77.831,358.945-77.805,359.246-77.805 M356.108-80.936v0.944h1.75v-8.75h-1.75v6.924
		c-0.294,0.241-0.636,0.617-1.149,0.617c-0.355,0-0.601-0.253-0.601-0.617v-6.924h-1.75v7.458c0,0.78,0.492,1.416,1.271,1.416
		C354.925-79.868,355.486-80.381,356.108-80.936 M348.957-87.43c0.479,0,0.438,0.567,0.438,1.054v6.384h1.75v-6.365
		c0-1.345,0.034-2.509-1.313-2.509c-1.086,0-1.674,0.487-2.187,1.157c-0.13-0.767-0.451-1.157-1.319-1.157
		c-1.033,0-1.709,0.554-2.181,1.116v-0.992h-1.75v8.75h1.75v-6.883c0.314-0.26,0.752-0.555,1.312-0.555
		c0.486,0,0.438,0.589,0.438,1.088v6.35h1.75v-6.849C347.966-87.102,348.383-87.43,348.957-87.43 M339.168-84.367v2.419
		c-0.184,0.247-0.451,0.643-0.875,0.643c-0.628,0-0.875-0.431-0.875-1.087C337.418-83.451,338.478-83.903,339.168-84.367
		 M338.293-88.866c-1.661,0-2.604,1.094-2.625,2.748h1.75c0-0.764,0.158-1.393,0.875-1.393c0.732,0,0.875,0.621,0.875,1.393v0.629
		c-1.688,0.663-3.5,1.287-3.5,3.563c0,1.017,0.739,2.058,1.75,2.058c1.012,0,1.402-0.747,1.75-1.437l0.233,1.313h1.743
		c-0.171-0.623-0.226-1.292-0.226-2.188v-3.938C340.918-87.743,339.955-88.866,338.293-88.866 M331.061-87.798v-0.944h-1.75v8.75
		h1.75v-6.924c0.287-0.241,0.602-0.514,1.094-0.514c0.567,0,0.656,0.321,0.656,0.875v6.563h1.75v-7.459
		c0-0.764-0.485-1.415-1.258-1.415C332.257-88.866,331.676-88.36,331.061-87.798 M326.508-87.43l-3.062,6.125v1.313h4.812v-1.313
		h-3.062l3.062-6.125v-1.312h-4.375v1.312H326.508z M319.905-87.43c0.875,0,0.875,0.875,0.875,1.75v2.625c0,0.875,0,1.75-0.875,1.75
		s-0.875-0.875-0.875-1.75v-2.625C319.03-86.555,319.03-87.43,319.905-87.43 M319.905-79.868c1.968,0,2.625-1.246,2.625-3.187
		v-2.625c0-1.94-0.657-3.186-2.625-3.186c-1.969,0-2.625,1.246-2.625,3.186v2.625C317.28-81.114,317.936-79.868,319.905-79.868
		 M311.626-79.992h1.75v-8.75h-1.75V-79.992z M312.939-89.563l1.75-2.625h-1.75l-0.875,2.625H312.939z M310.471-79.951v-1.421
		c-0.157,0.027-0.424,0.067-0.588,0.067c-0.629,0-0.724-0.396-0.724-1.019v-5.106h1.312v-1.312h-1.312v-3.063h-1.75v3.063h-0.875
		v1.312h0.875v5.441c0.013,1.381,0.574,2.121,1.982,2.121C309.815-79.868,310.034-79.896,310.471-79.951 M304.613-86.118
		l1.312-0.437c-0.294-1.243-1.059-2.311-2.625-2.311c-1.552,0-2.625,0.781-2.625,2.311c0,1.039,0.65,1.594,1.313,2.052l1.75,1.311
		c0.246,0.227,0.437,0.533,0.437,1.012c0,0.562-0.321,0.875-0.875,0.875c-0.738,0-1.114-0.759-1.312-1.313l-1.313,0.438
		c0.294,1.244,1.087,2.312,2.625,2.312c1.552,0,2.625-0.781,2.625-2.312c0-1.106-0.622-1.771-1.312-2.323l-1.75-1.314
		c-0.192-0.142-0.438-0.395-0.438-0.738c0-0.561,0.322-0.875,0.875-0.875C304.052-87.43,304.401-86.67,304.613-86.118
		 M297.032-87.43c0.875,0,0.875,0.875,0.875,1.75v2.625c0,0.875,0,1.75-0.875,1.75s-0.875-0.875-0.875-1.75v-2.625
		C296.157-86.555,296.157-87.43,297.032-87.43 M297.032-79.868c1.968,0,2.625-1.246,2.625-3.187v-2.625
		c0-1.94-0.657-3.186-2.625-3.186c-1.969,0-2.625,1.246-2.625,3.186v2.625C294.407-81.114,295.063-79.868,297.032-79.868
		 M289.444-88.866c-2.188,0-2.16,2.639-2.16,4.929c0,1.772,0.43,4.069,2.187,4.069c0.793,0,1.347-0.499,1.75-0.916v0.792h1.75
		v-12.244h-1.75v4.363C290.763-88.36,290.271-88.866,289.444-88.866 M289.034-84.812c0-1.053-0.151-2.618,0.875-2.618
		c0.485,0,0.991,0.157,1.312,0.35v5.503c-0.389,0.157-0.861,0.272-1.312,0.272C288.849-81.305,289.034-83.616,289.034-84.812
		 M284.221-84.367v2.419c-0.184,0.247-0.451,0.643-0.875,0.643c-0.629,0-0.875-0.431-0.875-1.087
		C282.471-83.451,283.531-83.903,284.221-84.367 M283.346-88.866c-1.661,0-2.604,1.094-2.625,2.748h1.75
		c0-0.764,0.157-1.393,0.875-1.393c0.732,0,0.875,0.621,0.875,1.393v0.629c-1.688,0.663-3.5,1.287-3.5,3.563
		c0,1.017,0.738,2.058,1.75,2.058c1.012,0,1.402-0.747,1.75-1.437l0.233,1.313h1.743c-0.171-0.623-0.226-1.292-0.226-2.188v-3.938
		C285.971-87.743,285.007-88.866,283.346-88.866 M278.308-87.574v-1.168h-1.75v8.75h1.75v-5.907c0-0.723,0.492-1.195,1.217-1.195
		c0.342,0,0.711,0.089,0.971,0.19v-1.933c-0.13-0.015-0.192-0.029-0.281-0.029C279.313-88.866,278.623-88.182,278.308-87.574
		 M271.725-86.118l1.313-0.437c-0.294-1.243-1.06-2.311-2.625-2.311c-1.552,0-2.625,0.781-2.625,2.311
		c0,1.039,0.649,1.594,1.312,2.052l1.75,1.311c0.246,0.227,0.438,0.533,0.438,1.012c0,0.562-0.322,0.875-0.875,0.875
		c-0.739,0-1.115-0.759-1.313-1.313l-1.312,0.438c0.294,1.244,1.086,2.312,2.625,2.312c1.551,0,2.625-0.781,2.625-2.312
		c0-1.106-0.623-1.771-1.313-2.323l-1.75-1.314c-0.191-0.142-0.437-0.395-0.437-0.738c0-0.561,0.321-0.875,0.875-0.875
		C271.165-87.43,271.513-86.67,271.725-86.118 M262.093-87.43c0.479,0,0.438,0.567,0.438,1.054v6.384h1.75v-6.365
		c0-1.345,0.034-2.509-1.313-2.509c-1.087,0-1.675,0.487-2.187,1.157c-0.13-0.767-0.451-1.157-1.32-1.157
		c-1.032,0-1.709,0.554-2.18,1.116v-0.992h-1.75v8.75h1.75v-6.883c0.314-0.26,0.752-0.555,1.312-0.555
		c0.486,0,0.438,0.589,0.438,1.088v6.35h1.75v-6.849C261.102-87.102,261.519-87.43,262.093-87.43 M252.304-84.367v2.419
		c-0.184,0.247-0.451,0.643-0.875,0.643c-0.629,0-0.875-0.431-0.875-1.087C250.554-83.451,251.614-83.903,252.304-84.367
		 M251.429-88.866c-1.661,0-2.604,1.094-2.625,2.748h1.75c0-0.764,0.157-1.393,0.875-1.393c0.732,0,0.875,0.621,0.875,1.393v0.629
		c-1.688,0.663-3.5,1.287-3.5,3.563c0,1.017,0.738,2.058,1.75,2.058c1.012,0,1.402-0.747,1.75-1.437l0.233,1.313h1.743
		c-0.171-0.623-0.226-1.292-0.226-2.188v-3.938C254.054-87.743,253.09-88.866,251.429-88.866 M251.979-89.563l1.75-2.625h-1.75
		l-0.875,2.625H251.979z M246.138-85.68l-0.465,3.062l-0.451-3.062l-1.292-6.563h-1.75l2.625,12.251h1.75l2.625-12.251h-1.75
		L246.138-85.68z M237.081-79.992h1.75v-8.75h-1.75V-79.992z M238.393-89.563l1.75-2.625h-1.75l-0.875,2.625H238.393z
		 M231.974-87.798v-0.944h-1.75v8.75h1.75v-6.924c0.287-0.241,0.602-0.514,1.094-0.514c0.567,0,0.656,0.321,0.656,0.875v6.563h1.75
		v-7.459c0-0.764-0.485-1.415-1.258-1.415C233.17-88.866,232.589-88.36,231.974-87.798 M224.174-79.117v1.312
		c1.682,0,2.748-0.39,3.063-1.75l2.187-9.187h-1.75c-0.362,2.043-0.759,4.046-1.087,6.124c-0.348-2.056-0.731-4.081-1.1-6.124h-1.75
		l1.982,8.353C225.719-79.499,225.077-79.117,224.174-79.117 M219.478-87.798v-0.944h-1.75v8.75h1.75v-6.924
		c0.287-0.241,0.602-0.514,1.094-0.514c0.567,0,0.656,0.321,0.656,0.875v6.563h1.75v-7.459c0-0.764-0.485-1.415-1.258-1.415
		C220.674-88.866,220.093-88.36,219.478-87.798 M211.863-84.367h-1.75l0.875-5.25L211.863-84.367z M209.894-83.055h2.188
		l0.656,3.063h1.75l-2.625-12.251h-1.75l-2.625,12.251h1.75L209.894-83.055z"/>
	<path clip-path="url(#SVGID_8_)" d="M367.646-98.16h2.222v2.167h-2.222V-98.16z M364.009-107.845h2.304v2.152h-2.304V-107.845z
		 M364.009-104.914h2.304v8.921h-2.304V-104.914z M360.393-108.295h2.304v12.305h-2.304V-108.295z M356.838-98.007l-0.007-2.196
		c-0.594,0.48-1.128,1.121-1.128,2.01c0,0.302,0.096,0.663,0.465,0.663C356.476-97.53,356.681-97.81,356.838-98.007 M357.303-95.993
		l-0.226-0.923c-0.287,0.889-0.957,1.123-1.77,1.123c-1.367,0-1.846-1.15-1.846-2.189c0-2.2,1.525-2.945,3.37-3.704v-0.753
		c0-0.595-0.123-0.936-0.512-0.936c-0.534,0-0.554,0.5-0.554,0.936v0.507h-2.235c0-2.037,1.039-3.187,3.014-3.187
		c1.354,0,2.571,1.135,2.571,2.517v4.237c0,0.822,0.109,1.573,0.293,2.372H357.303z M349.025-95.993l-1.853-8.921h2.16l0.882,6.024
		l0.745-6.024h2.16l-1.763,8.921H349.025z M344.404-98.282v-4.416c0-0.306-0.096-0.676-0.527-0.676
		c-0.417,0-0.471,0.389-0.471,0.676v4.416c0,0.301,0.013,0.752,0.471,0.752C344.349-97.53,344.404-97.966,344.404-98.282
		 M341.102-98.309v-3.794c0-1.825,0.806-3.009,2.775-3.009c1.969,0,2.81,1.177,2.81,3.009v3.794c0,1.53-1.32,2.516-2.81,2.516
		C342.394-95.792,341.102-96.786,341.102-98.309 M337.609-108.295h2.304v12.305h-2.304V-108.295z M333.992-107.845h2.304v2.152
		h-2.304V-107.845z M333.992-104.914h2.304v8.921h-2.304V-104.914z M323.909-95.993v-8.921h2.304v0.636
		c0.41-0.477,1.026-0.841,1.682-0.841c0.615,0,1.141,0.458,1.388,1.005c0.43-0.581,1.107-1.005,1.859-1.005
		c0.991,0,1.599,1.046,1.599,1.943v7.183h-2.303v-6.725c0-0.227,0-0.657-0.335-0.657c-0.233,0-0.52,0.363-0.629,0.505v6.877h-2.304
		v-6.74c0-0.219-0.007-0.642-0.314-0.642c-0.267,0-0.52,0.341-0.65,0.512l0.007,6.87H323.909z M320.368-98.007l-0.006-2.196
		c-0.595,0.48-1.128,1.121-1.128,2.01c0,0.302,0.095,0.663,0.465,0.663C320.006-97.53,320.211-97.81,320.368-98.007 M320.833-95.993
		l-0.225-0.923c-0.287,0.889-0.957,1.123-1.771,1.123c-1.367,0-1.846-1.15-1.846-2.189c0-2.2,1.525-2.945,3.371-3.704v-0.753
		c0-0.595-0.123-0.936-0.513-0.936c-0.533,0-0.554,0.5-0.554,0.936v0.507h-2.235c0-2.037,1.039-3.187,3.015-3.187
		c1.353,0,2.57,1.135,2.57,2.517v4.237c0,0.822,0.109,1.573,0.294,2.372H320.833z M311.427-95.993v-1.557l2.454-5.701h-2.071v-1.663
		h4.45v1.526l-2.475,5.727h2.475v1.668H311.427z M280.877-94.324l-0.273-1.133c0.492,0,0.547,0.046,0.554-0.528h-0.752v-2.174h2.208
		C282.614-95.821,282.812-94.038,280.877-94.324 M276.871-107.845h2.304v2.152h-2.304V-107.845z M276.871-104.914h2.304v8.921
		h-2.304V-104.914z M273.255-108.295h2.304v12.305h-2.304V-108.295z M269.639-107.845h2.304v2.152h-2.304V-107.845z
		 M269.639-104.914h2.304v8.921h-2.304V-104.914z M259.556-95.993v-8.921h2.304v0.636c0.41-0.477,1.025-0.841,1.681-0.841
		c0.616,0,1.142,0.458,1.388,1.005c0.431-0.581,1.107-1.005,1.859-1.005c0.992,0,1.6,1.046,1.6,1.943v7.183h-2.304v-6.725
		c0-0.227,0-0.657-0.335-0.657c-0.232,0-0.519,0.363-0.629,0.505v6.877h-2.303v-6.74c0-0.219-0.007-0.642-0.315-0.642
		c-0.266,0-0.519,0.341-0.649,0.512l0.007,6.87H259.556z M256.015-98.007l-0.007-2.196c-0.595,0.48-1.128,1.121-1.128,2.01
		c0,0.302,0.096,0.663,0.465,0.663C255.653-97.53,255.858-97.81,256.015-98.007 M256.48-95.993l-0.226-0.923
		c-0.287,0.889-0.957,1.123-1.77,1.123c-1.368,0-1.846-1.15-1.846-2.189c0-2.2,1.524-2.945,3.37-3.704v-0.753
		c0-0.595-0.123-0.936-0.513-0.936c-0.533,0-0.553,0.5-0.553,0.936v0.507h-2.236c0-2.037,1.039-3.187,3.015-3.187
		c1.353,0,2.57,1.135,2.57,2.517v4.237c0,0.822,0.11,1.573,0.294,2.372H256.48z M254.921-105.521l0.93-3.02h2.358l-1.893,3.02
		H254.921z M246.014-95.993v-8.921h2.304v0.629c0.423-0.477,1.066-0.827,1.75-0.827c0.991,0,1.579,1.032,1.579,1.929v7.19h-2.304
		v-6.788c0-0.19,0-0.594-0.383-0.594c-0.266,0-0.512,0.315-0.642,0.464v6.918H246.014z M240.203-95.993v-1.557l2.455-5.701h-2.072
		v-1.663h4.45v1.526l-2.474,5.727h2.474v1.668H240.203z M236.225-101.466h0.895v-1.232c0-0.306-0.082-0.676-0.458-0.676
		c-0.362,0-0.437,0.389-0.437,0.676V-101.466z M233.921-98.309v-3.794c0-1.825,0.827-3.016,2.741-3.016
		c1.921,0,2.742,1.184,2.742,3.016v1.846h-3.179v1.974c0,0.294,0.034,0.752,0.437,0.752c0.411,0,0.479-0.424,0.479-0.805v-0.979
		h2.263v1.006c0,1.53-1.286,2.516-2.742,2.516C235.213-95.792,233.921-96.786,233.921-98.309 M227.762-98.146l1.764-0.629
		c0.15,0.458,0.417,1.292,0.991,1.292c0.342,0,0.431-0.219,0.431-0.506c0-0.629-0.65-1.169-1.368-1.784l-0.376-0.32
		c-0.799-0.699-1.565-1.512-1.565-2.618c0-1.608,1.422-2.401,2.885-2.401c1.374,0,2.399,1.232,2.748,2.495l-1.655,0.569
		c-0.191-0.494-0.54-1.362-1.162-1.362c-0.341,0-0.505,0.294-0.505,0.562c0,0.45,0.642,1.024,1.244,1.53l0.423,0.376
		c0.787,0.711,1.607,1.601,1.607,2.659c0,1.47-1.19,2.49-2.605,2.49C229.184-95.792,228.145-96.786,227.762-98.146"/>
	<path clip-path="url(#SVGID_8_)" d="M350.339-113.242v1.25h0.625c0,0.436-0.171,0.625-0.625,0.625l0.312,0.625
		c0.791,0,0.899-0.526,0.923-1.317c0.01-0.319,0.015-0.713,0.015-1.183H350.339z M348.479-115.742h-1.25
		c0-0.645-0.02-1.562,0.625-1.562C348.493-117.304,348.479-116.39,348.479-115.742 M347.229-114.805v-0.312h2.5v-0.146
		c0-1.695-0.245-3.067-1.875-3.067c-1.631,0-1.875,1.372-1.875,3.067c0,1.773,0.166,3.36,1.87,3.36c1.362,0,1.88-0.835,1.88-2.277
		h-1.246c0,0.63,0,1.251-0.629,1.251C347.15-112.929,347.229-114.082,347.229-114.805 M344.353-116.367l0.937-0.312
		c-0.21-0.888-0.757-1.651-1.875-1.651c-1.108,0-1.875,0.558-1.875,1.651c0,0.743,0.464,1.137,0.938,1.464l1.25,0.939
		c0.175,0.161,0.312,0.381,0.312,0.722c0,0.401-0.229,0.625-0.625,0.625c-0.527,0-0.796-0.542-0.937-0.938l-0.938,0.313
		c0.21,0.888,0.776,1.651,1.875,1.651c1.109,0,1.875-0.558,1.875-1.651c0-0.792-0.444-1.264-0.937-1.661l-1.25-0.936
		c-0.137-0.104-0.313-0.283-0.313-0.528c0-0.401,0.23-0.625,0.625-0.625C343.952-117.304,344.201-116.763,344.353-116.367
		 M338.068-115.742h-1.25c0-0.645-0.019-1.562,0.625-1.562C338.083-117.304,338.068-116.39,338.068-115.742 M336.818-114.805v-0.312
		h2.5v-0.146c0-1.695-0.244-3.067-1.875-3.067c-1.63,0-1.875,1.372-1.875,3.067c0,1.773,0.166,3.36,1.871,3.36
		c1.362,0,1.879-0.835,1.879-2.277h-1.245c0,0.63,0,1.251-0.63,1.251C336.74-112.929,336.818-114.082,336.818-114.805
		 M333.029-117.304c0.342,0,0.313,0.406,0.313,0.751v4.561h1.25v-4.546c0-0.962,0.024-1.792-0.938-1.792
		c-0.776,0-1.196,0.348-1.562,0.825c-0.093-0.547-0.322-0.825-0.943-0.825c-0.737,0-1.22,0.397-1.557,0.796v-0.708h-1.25v6.25h1.25
		v-4.917c0.224-0.186,0.537-0.395,0.937-0.395c0.347,0,0.313,0.419,0.313,0.777v4.535h1.25v-4.893
		C332.321-117.069,332.619-117.304,333.029-117.304 M326.599-116.367l0.937-0.312c-0.21-0.888-0.757-1.651-1.875-1.651
		c-1.108,0-1.875,0.558-1.875,1.651c0,0.743,0.464,1.137,0.938,1.464l1.25,0.939c0.175,0.161,0.312,0.381,0.312,0.722
		c0,0.401-0.229,0.625-0.625,0.625c-0.527,0-0.796-0.542-0.937-0.938l-0.938,0.313c0.21,0.888,0.777,1.651,1.875,1.651
		c1.109,0,1.875-0.558,1.875-1.651c0-0.792-0.444-1.264-0.937-1.661l-1.25-0.936c-0.137-0.104-0.313-0.283-0.313-0.528
		c0-0.401,0.23-0.625,0.625-0.625C326.198-117.304,326.447-116.763,326.599-116.367 M321.77-119.179h1.25v-1.25h-1.25V-119.179z
		 M321.457-110.43c0.962,0,1.563-0.555,1.563-1.528v-6.284h-1.25v6.147c0,0.435-0.171,0.728-0.625,0.728
		c-0.088,0-0.24-0.02-0.313-0.033v0.887C320.998-110.448,321.242-110.43,321.457-110.43 M268.162-119.179h1.25v-1.25h-1.25V-119.179
		z M268.162-111.992h1.25v-6.25h-1.25V-111.992z M265.156-120.742h-1.25v8.75h1.25V-120.742z M260.339-116.367l0.937-0.312
		c-0.21-0.888-0.757-1.651-1.875-1.651c-1.108,0-1.875,0.558-1.875,1.651c0,0.743,0.464,1.137,0.938,1.464l1.25,0.939
		c0.175,0.161,0.312,0.381,0.312,0.722c0,0.401-0.229,0.625-0.625,0.625c-0.527,0-0.796-0.542-0.937-0.938l-0.938,0.313
		c0.21,0.888,0.776,1.651,1.875,1.651c1.108,0,1.875-0.558,1.875-1.651c0-0.792-0.444-1.264-0.937-1.661l-1.25-0.936
		c-0.137-0.104-0.313-0.283-0.313-0.528c0-0.401,0.23-0.625,0.625-0.625C259.938-117.304,260.187-116.763,260.339-116.367
		 M260.026-120.703l-0.625,1.25l-0.625-1.25h-0.937l0.937,1.875h1.25l0.938-1.875H260.026z M253.719-115.117v1.729
		c-0.132,0.175-0.322,0.459-0.625,0.459c-0.449,0-0.625-0.307-0.625-0.777C252.469-114.463,253.226-114.785,253.719-115.117
		 M253.094-118.33c-1.186,0-1.86,0.781-1.875,1.963h1.25c0-0.547,0.113-0.995,0.625-0.995c0.523,0,0.625,0.443,0.625,0.995v0.449
		c-1.206,0.475-2.5,0.918-2.5,2.544c0,0.729,0.528,1.471,1.25,1.471c0.723,0,1.001-0.532,1.25-1.026l0.166,0.937h1.245
		c-0.122-0.443-0.161-0.923-0.161-1.562v-2.813C254.969-117.528,254.281-118.33,253.094-118.33 M247.637-111.992h0.889v-8.75h-1.25
		v5.41l-2.188-5.41h-0.937v8.75h1.25v-5.819L247.637-111.992z"/>
</g>
<polygon points="297.81,-76.852 297.039,-75.31 296.268,-76.852 295.111,-76.852 296.268,-74.539 297.81,-74.539 298.967,-76.852 
	"/>
<polygon fill="#C25679" points="319.977,-20.816 319.206,-19.274 318.435,-20.816 317.278,-20.816 318.435,-18.503 319.977,-18.503 
	321.134,-20.816 "/>
<g>
	<defs>
		<rect id="SVGID_9_" x="-22.001" y="-242.83" width="203.485" height="39.815"/>
	</defs>
	<clipPath id="SVGID_10_">
		<use xlink:href="#SVGID_9_"  overflow="visible"/>
	</clipPath>
	<path clip-path="url(#SVGID_10_)" fill="#725548" d="M177.384-219.375l3.642-10.215h-3.457l-3.623,10.215
		c-0.072,0.215-0.107,0.407-0.107,0.576c0,0.657,0.481,0.986,1.445,0.986h3.76c0.468,0,0.908-0.097,1.318-0.292
		c0.586-0.274,0.96-0.697,1.123-1.27H177.384z M166.407-219.375c-1.107,0-1.66-0.283-1.66-0.851c0-0.116,0.019-0.246,0.058-0.389
		l0.684-2.277h2.158L166.407-219.375z M169.893-219.375l1.836-5.078h-5.576c-1.393,0-2.562,0.358-3.506,1.074
		c-1.041,0.788-1.562,1.861-1.562,3.223c0,0.755,0.237,1.367,0.713,1.836c0.475,0.467,1.093,0.703,1.855,0.703
		c1.035,0,1.908-0.404,2.617-1.211c0,0.677,0.528,1.015,1.582,1.015h3.701c1.283,0,2.081-0.52,2.393-1.562H169.893z
		 M157.305-219.375l1.241-3.496c0.117-0.314,0.175-0.589,0.175-0.83c0-0.664-0.325-0.996-0.976-0.996
		c-0.977,0-1.849,0.316-2.617,0.947l-2.979,2.44l2.94-8.299h-3.516l-4.18,11.796h2.012c0.508,0,0.99-0.198,1.445-0.595l3.702-3.047
		l-0.704,2.08c-0.097,0.3-0.146,0.553-0.146,0.762c0,0.534,0.368,0.8,1.103,0.8h4.161c0.455,0,0.882-0.097,1.279-0.292
		c0.553-0.274,0.914-0.697,1.084-1.27H157.305z M140.606-219.375c-0.905,0-1.357-0.286-1.357-0.859c0-0.15,0.032-0.316,0.097-0.498
		l0.762-2.16h1.182v0.236c-0.007,0.521,0.184,0.962,0.571,1.323c0.387,0.361,0.858,0.542,1.411,0.542
		c0.547,0,1.017-0.179,1.411-0.537c0.394-0.359,0.591-0.794,0.591-1.309c0-0.509-0.195-0.937-0.586-1.289
		c-0.39-0.351-0.862-0.527-1.416-0.527h-2.461c-1.295,0-2.418,0.29-3.369,0.869c-1.081,0.658-1.686,1.569-1.816,2.733
		c-0.013,0.112-0.02,0.22-0.02,0.324c0,0.957,0.482,1.673,1.446,2.148c0.761,0.378,1.702,0.566,2.822,0.566h5.879
		c0.553,0,1.038-0.126,1.455-0.38c0.455-0.28,0.755-0.674,0.898-1.182H140.606z M131.905-219.375l1.807-5.078h-3.545l-1.699,4.756
		c-0.092,0.254-0.137,0.491-0.137,0.713c0,0.781,0.465,1.171,1.396,1.171h3.858c0.449,0,0.866-0.097,1.25-0.292
		c0.533-0.274,0.885-0.697,1.054-1.27H131.905z M134.429-230.106c-0.504-0.456-1.111-0.684-1.821-0.684
		c-0.723,0-1.336,0.228-1.841,0.684c-0.504,0.455-0.757,1.004-0.757,1.65c0,0.651,0.253,1.204,0.757,1.66
		c0.505,0.456,1.118,0.684,1.841,0.684c0.71,0,1.317-0.228,1.821-0.684c0.505-0.456,0.757-1.009,0.757-1.66
		C135.186-229.103,134.934-229.651,134.429-230.106 M124.073-219.375l2.334-6.162c0.13-0.339,0.195-0.649,0.195-0.928
		c0-0.488-0.195-0.859-0.586-1.113c-0.254-0.169-0.494-0.254-0.722-0.254c-0.573-0.006-1.013,0.078-1.319,0.254
		c-0.175,0.111-0.53,0.432-1.064,0.967l-3.76,3.779l1.895-4.922c0.143-0.358,0.214-0.681,0.214-0.967
		c0-0.463-0.179-0.81-0.537-1.046c-0.234-0.148-0.459-0.223-0.673-0.223c-0.756,0-1.371,0.15-1.846,0.449
		c-0.287,0.182-0.697,0.58-1.231,1.19l-4.199,4.757l2.1-6.054c0.123-0.358,0.185-0.665,0.185-0.918c0-0.659-0.449-0.987-1.347-0.987
		h-6.524l-1.474,2.461h5.42l-3.946,11.279h1.983c0.781,0,1.373-0.248,1.777-0.742l6.025-7.275l-2.402,6.201
		c-0.117,0.293-0.176,0.566-0.176,0.819c0,0.659,0.371,1.03,1.114,1.115c0.13,0.019,0.253,0.029,0.371,0.029
		c0.618,0,1.188-0.29,1.709-0.869l4.843-5.313l-1.621,4.219c-0.136,0.358-0.205,0.648-0.205,0.869c0,0.632,0.547,0.947,1.641,0.947
		h3.506c1.536,0,2.441-0.52,2.715-1.562H124.073z"/>
	<path clip-path="url(#SVGID_10_)" fill="#C25679" d="M44.893-219.375c-1.107,0-1.66-0.283-1.66-0.849
		c0-0.118,0.019-0.249,0.059-0.391l0.683-2.276h2.158L44.893-219.375z M48.379-219.375l1.836-5.078h-5.576
		c-1.393,0-2.562,0.357-3.506,1.074c-1.041,0.788-1.562,1.862-1.562,3.223c0,0.755,0.238,1.367,0.713,1.836
		c0.475,0.469,1.093,0.703,1.855,0.703c1.035,0,1.908-0.404,2.617-1.211c0,0.677,0.528,1.016,1.582,1.016h3.702
		c1.282,0,2.08-0.521,2.392-1.563H48.379z M35.762-219.375l0.957-2.638c0.104-0.293,0.156-0.549,0.156-0.77
		c0-0.697-0.452-1.045-1.357-1.045h-0.742l2.266-2.344h-2.247l-3.896,3.877l2.598-7.295h-3.516l-4.16,11.778h1.455
		c0.495,0,0.918-0.095,1.269-0.285c0.267-0.142,0.658-0.448,1.172-0.918c2.09-1.86,3.285-2.948,3.584-3.26l-1.006,2.724
		c-0.091,0.254-0.136,0.489-0.136,0.702c0,0.692,0.446,1.037,1.338,1.037h3.837c0.469,0,0.909-0.098,1.319-0.293
		c0.586-0.274,0.96-0.697,1.123-1.27H35.762z M22.5-219.375l1.26-3.516c0.104-0.299,0.156-0.569,0.156-0.81
		c0-0.651-0.319-0.99-0.957-1.016c-0.944-0.026-1.819,0.29-2.626,0.948l-2.979,2.441l1.104-3.125h-3.526l-2.334,6.641h1.797
		c0.508,0,1.156-0.274,1.943-0.821l3.36-2.841l-0.742,2.099c-0.092,0.261-0.137,0.487-0.137,0.684c0,0.586,0.446,0.879,1.338,0.879
		h3.896c0.469,0,0.908-0.098,1.319-0.293c0.579-0.274,0.953-0.697,1.123-1.27H22.5z M5.596-219.375c-1.107,0-1.66-0.283-1.66-0.849
		c0-0.118,0.02-0.249,0.059-0.391l0.683-2.276h2.158L5.596-219.375z M9.083-219.375l1.835-5.078H5.342
		c-1.393,0-2.562,0.357-3.506,1.074c-1.041,0.788-1.562,1.862-1.562,3.223c0,0.755,0.238,1.367,0.713,1.836
		c0.475,0.469,1.094,0.703,1.855,0.703c1.035,0,1.908-0.404,2.617-1.211c0,0.677,0.528,1.016,1.583,1.016h3.701
		c1.282,0,2.08-0.521,2.392-1.563H9.083z M-14.501-219.667c-0.918,1.315-1.846,1.973-2.784,1.973c-0.748,0-1.123-0.42-1.123-1.26
		c0-1.211,0.589-2.194,1.768-2.949c1.022-0.658,2.174-0.987,3.457-0.987h0.283C-13.284-221.725-13.818-220.65-14.501-219.667
		 M-2.021-224.453l2.52-7.1h-3.526l-2.5,7.1h-3.359l3.066-8.584h-3.506l-3.017,8.584h-1.426c-3.607,0-6.084,1.019-7.432,3.057
		c-0.533,0.807-0.8,1.608-0.8,2.402c0,1.016,0.416,1.777,1.25,2.285c0.69,0.423,1.572,0.635,2.646,0.635
		c3.978-0.007,6.891-2.279,8.74-6.817h3.301l-1.816,5.079h3.515l1.797-5.079h5.781c1.257,0,1.976-0.52,2.159-1.562H-2.021z"/>
	<path clip-path="url(#SVGID_10_)" fill="#C25679" d="M76.473-239.094c-4.982-4.981-13.058-4.981-18.04,0
		c-4.981,4.981-4.981,13.058,0,18.039l18.04,18.04V-239.094z"/>
	<path clip-path="url(#SVGID_10_)" fill="#725548" d="M78.367-239.094c4.981-4.981,13.058-4.981,18.039,0
		c4.982,4.981,4.982,13.058,0,18.039l-18.039,18.04V-239.094z"/>
</g>
</svg>
