<?xml version="1.0" encoding="utf-8"?>
<!-- Generator: Adobe Illustrator 15.1.0, SVG Export Plug-In . SVG Version: 6.00 Build 0)  -->
<!DOCTYPE svg PUBLIC "-//W3C//DTD SVG 1.1//EN" "http://www.w3.org/Graphics/SVG/1.1/DTD/svg11.dtd">
<svg version="1.1" id="Layer_1" xmlns="http://www.w3.org/2000/svg" xmlns:xlink="http://www.w3.org/1999/xlink" x="0px" y="0px"
	  viewBox="0 0 257.953 39.815" enable-background="new 0 0 257.953 39.815"
	 xml:space="preserve">
<g>
	<path fill="#C25679" d="M54.377,18.378c-0.182,1.042-0.902,1.563-2.158,1.563h-5.781l-1.797,5.078h-3.516l1.816-5.078h-3.301
		c-1.849,4.538-4.762,6.81-8.74,6.816c-1.074,0-1.957-0.211-2.646-0.635c-0.833-0.508-1.25-1.27-1.25-2.285
		c0-0.794,0.267-1.595,0.801-2.402c1.348-2.038,3.825-3.057,7.432-3.057h1.426l3.018-8.584h3.506l-3.066,8.584h3.359l2.5-7.1h3.525
		l-2.52,7.1H54.377z M36.105,19.94h-0.283c-1.283,0-2.435,0.329-3.457,0.986c-1.178,0.755-1.768,1.738-1.768,2.949
		c0,0.84,0.375,1.26,1.123,1.26c0.938,0,1.865-0.658,2.783-1.973C35.188,22.18,35.721,21.106,36.105,19.94z"/>
	<path fill="#C25679" d="M62.141,23.456c-0.313,1.042-1.11,1.563-2.393,1.563h-3.701c-1.055,0-1.582-0.338-1.582-1.016
		c-0.709,0.807-1.582,1.211-2.617,1.211c-0.762,0-1.38-0.234-1.855-0.703s-0.713-1.081-0.713-1.836c0-1.361,0.521-2.435,1.563-3.223
		c0.944-0.716,2.113-1.074,3.506-1.074h5.576l-1.836,5.078H62.141z M55.842,19.94h-2.158L53,22.216
		c-0.039,0.143-0.059,0.273-0.059,0.391c0,0.566,0.553,0.85,1.66,0.85L55.842,19.94z"/>
	<path fill="#C25679" d="M75.5,23.456c-0.169,0.573-0.543,0.996-1.123,1.27c-0.41,0.195-0.85,0.293-1.318,0.293h-3.896
		c-0.892,0-1.338-0.293-1.338-0.879c0-0.195,0.045-0.423,0.137-0.684l0.742-2.1l-3.359,2.842c-0.788,0.547-1.436,0.82-1.943,0.82
		h-1.797l2.334-6.641h3.525l-1.104,3.125l2.979-2.441c0.807-0.658,1.683-0.973,2.627-0.947c0.638,0.026,0.957,0.365,0.957,1.016
		c0,0.241-0.052,0.511-0.156,0.811l-1.26,3.516H75.5z"/>
	<path fill="#C25679" d="M88.781,23.456c-0.163,0.573-0.537,0.996-1.123,1.27c-0.41,0.195-0.85,0.293-1.318,0.293h-3.838
		c-0.892,0-1.338-0.345-1.338-1.035c0-0.215,0.045-0.449,0.137-0.703l1.006-2.725c-0.299,0.313-1.494,1.4-3.584,3.262
		c-0.514,0.469-0.905,0.775-1.172,0.918c-0.352,0.189-0.775,0.283-1.27,0.283h-1.455l4.16-11.777h3.516l-2.598,7.295l3.896-3.877
		h2.246l-2.266,2.344h0.742c0.905,0,1.357,0.348,1.357,1.045c0,0.221-0.052,0.479-0.156,0.771l-0.957,2.637H88.781z"/>
	<path fill="#C25679" d="M101.438,23.456c-0.313,1.042-1.11,1.563-2.393,1.563h-3.701c-1.055,0-1.582-0.338-1.582-1.016
		c-0.709,0.807-1.582,1.211-2.617,1.211c-0.762,0-1.38-0.234-1.855-0.703s-0.713-1.081-0.713-1.836c0-1.361,0.521-2.435,1.563-3.223
		c0.944-0.716,2.113-1.074,3.506-1.074h5.576l-1.836,5.078H101.438z M95.139,19.94H92.98l-0.684,2.275
		c-0.039,0.143-0.059,0.273-0.059,0.391c0,0.566,0.553,0.85,1.66,0.85L95.139,19.94z"/>
</g>
<g>
	<path fill="#725548" d="M177.476,23.456c-0.273,1.042-1.178,1.563-2.715,1.563h-3.506c-1.094,0-1.641-0.316-1.641-0.947
		c0-0.221,0.068-0.511,0.205-0.869l1.621-4.219l-4.844,5.313c-0.521,0.58-1.09,0.869-1.709,0.869c-0.117,0-0.241-0.01-0.371-0.029
		c-0.742-0.084-1.113-0.456-1.113-1.113c0-0.254,0.059-0.527,0.176-0.82l2.402-6.201l-6.025,7.275
		c-0.404,0.495-0.996,0.742-1.777,0.742h-1.982l3.945-11.279h-5.42l1.475-2.461h6.523c0.898,0,1.348,0.329,1.348,0.986
		c0,0.254-0.062,0.56-0.186,0.918l-2.1,6.055l4.199-4.756c0.534-0.612,0.944-1.009,1.23-1.191c0.475-0.299,1.09-0.449,1.846-0.449
		c0.215,0,0.439,0.075,0.674,0.225c0.358,0.234,0.537,0.583,0.537,1.045c0,0.287-0.072,0.609-0.215,0.967l-1.895,4.922l3.76-3.779
		c0.534-0.534,0.889-0.856,1.064-0.967c0.306-0.176,0.746-0.26,1.318-0.254c0.228,0,0.469,0.084,0.723,0.254
		c0.391,0.254,0.586,0.625,0.586,1.113c0,0.28-0.065,0.589-0.195,0.928l-2.334,6.162H177.476z"/>
	<path fill="#725548" d="M184.897,23.456c-0.169,0.573-0.521,0.996-1.055,1.27c-0.384,0.195-0.801,0.293-1.25,0.293h-3.857
		c-0.931,0-1.396-0.391-1.396-1.172c0-0.221,0.045-0.459,0.137-0.713l1.699-4.756h3.545l-1.807,5.078H184.897z M184.194,14.374
		c0,0.651-0.252,1.205-0.757,1.66s-1.112,0.684-1.821,0.684c-0.723,0-1.336-0.228-1.841-0.684s-0.757-1.009-0.757-1.66
		c0-0.645,0.252-1.195,0.757-1.65s1.118-0.684,1.841-0.684c0.709,0,1.317,0.228,1.821,0.684S184.194,13.729,184.194,14.374z"/>
	<path fill="#725548" d="M197.114,23.456c-0.143,0.508-0.443,0.902-0.898,1.182c-0.417,0.254-0.902,0.381-1.455,0.381h-5.879
		c-1.12,0-2.061-0.189-2.822-0.566c-0.963-0.475-1.445-1.191-1.445-2.148c0-0.104,0.006-0.211,0.02-0.322
		c0.13-1.166,0.736-2.077,1.816-2.734c0.951-0.58,2.074-0.869,3.369-0.869h2.461c0.553,0,1.025,0.176,1.416,0.527
		s0.586,0.781,0.586,1.289c0,0.514-0.197,0.951-0.591,1.309s-0.864,0.537-1.411,0.537c-0.553,0-1.024-0.181-1.411-0.542
		s-0.578-0.802-0.571-1.323V19.94h-1.182l-0.762,2.158c-0.065,0.182-0.098,0.348-0.098,0.498c0,0.573,0.453,0.859,1.357,0.859
		H197.114z"/>
	<path fill="#725548" d="M210.337,23.456c-0.169,0.573-0.531,0.996-1.084,1.27c-0.397,0.195-0.824,0.293-1.279,0.293h-4.16
		c-0.736,0-1.104-0.267-1.104-0.801c0-0.208,0.049-0.462,0.146-0.762l0.703-2.08l-3.701,3.047c-0.456,0.397-0.938,0.596-1.445,0.596
		h-2.012l4.18-11.797h3.516l-2.939,8.301l2.979-2.441c0.768-0.631,1.641-0.947,2.617-0.947c0.651,0,0.977,0.332,0.977,0.996
		c0,0.241-0.059,0.518-0.176,0.83l-1.24,3.496H210.337z"/>
	<path fill="#725548" d="M222.954,23.456c-0.313,1.042-1.11,1.563-2.393,1.563h-3.701c-1.055,0-1.582-0.338-1.582-1.016
		c-0.709,0.807-1.582,1.211-2.617,1.211c-0.762,0-1.38-0.234-1.855-0.703s-0.713-1.081-0.713-1.836c0-1.361,0.521-2.435,1.563-3.223
		c0.944-0.716,2.113-1.074,3.506-1.074h5.576l-1.836,5.078H222.954z M216.655,19.94h-2.158l-0.684,2.275
		c-0.039,0.143-0.059,0.273-0.059,0.391c0,0.566,0.553,0.85,1.66,0.85L216.655,19.94z"/>
	<path fill="#725548" d="M230.493,23.456c-0.163,0.573-0.537,0.996-1.123,1.27c-0.41,0.195-0.85,0.293-1.318,0.293h-3.76
		c-0.963,0-1.445-0.329-1.445-0.986c0-0.169,0.036-0.361,0.107-0.576l3.623-10.215h3.457l-3.643,10.215H230.493z"/>
</g>
<g>
	<defs>
		<rect id="SVGID_1_" width="257.953" height="39.815"/>
	</defs>
	<clipPath id="SVGID_2_">
		<use xlink:href="#SVGID_1_"  overflow="visible"/>
	</clipPath>
	<path clip-path="url(#SVGID_2_)" fill="#C25679" d="M125.479,3.736c-4.982-4.981-13.058-4.981-18.04,0
		c-4.981,4.981-4.981,13.058,0,18.039l18.04,18.04V3.736z"/>
	<path clip-path="url(#SVGID_2_)" fill="#725548" d="M127.372,3.736c4.982-4.981,13.058-4.981,18.039,0
		c4.982,4.981,4.982,13.058,0,18.039l-18.039,18.04V3.736z"/>
</g>
<g>
	<path d="M307.833,94.558v-6.736h0.959l2.148,3.408c0.49,0.79,0.89,1.499,1.2,2.189l0.03-0.01c-0.08-0.899-0.1-1.719-0.1-2.769
		v-2.818h0.82v6.736h-0.879l-2.139-3.418c-0.47-0.75-0.919-1.52-1.249-2.249l-0.03,0.01c0.05,0.85,0.06,1.659,0.06,2.778v2.878
		H307.833z"/>
</g>
<g>
	<path d="M318.621,93.398c0,0.419,0.02,0.83,0.07,1.159h-0.79l-0.07-0.61h-0.03c-0.27,0.38-0.79,0.72-1.479,0.72
		c-0.979,0-1.479-0.689-1.479-1.389c0-1.169,1.04-1.809,2.909-1.799v-0.1c0-0.39-0.11-1.12-1.1-1.109
		c-0.459,0-0.929,0.13-1.269,0.36l-0.2-0.59c0.4-0.25,0.99-0.42,1.599-0.42c1.479,0,1.839,1.01,1.839,1.969V93.398z M317.771,92.089
		c-0.959-0.02-2.049,0.15-2.049,1.089c0,0.58,0.379,0.84,0.819,0.84c0.64,0,1.049-0.4,1.189-0.81c0.03-0.1,0.04-0.2,0.04-0.28
		V92.089z"/>
</g>
<g>
	<path d="M321.393,93.668c0.27,0.16,0.729,0.34,1.169,0.34c0.63,0,0.93-0.31,0.93-0.72c0-0.419-0.25-0.64-0.89-0.879
		c-0.879-0.32-1.289-0.79-1.289-1.369c0-0.78,0.64-1.419,1.669-1.419c0.49,0,0.919,0.13,1.179,0.3l-0.209,0.64
		c-0.19-0.12-0.54-0.29-0.99-0.29c-0.52,0-0.799,0.3-0.799,0.66c0,0.4,0.28,0.58,0.909,0.83c0.83,0.31,1.27,0.729,1.27,1.449
		c0,0.859-0.67,1.459-1.799,1.459c-0.53,0-1.02-0.14-1.359-0.34L321.393,93.668z M322.502,89.061l-0.959-1.429h0.669l0.59,0.95h0.02
		l0.589-0.95h0.66l-0.939,1.429H322.502z"/>
	<path d="M327.272,87.461h0.879v7.096h-0.879V87.461z"/>
</g>
<g>
	<path d="M332.782,88.361c0,0.3-0.21,0.54-0.56,0.54c-0.32,0-0.53-0.24-0.53-0.54s0.22-0.549,0.55-0.549
		C332.562,87.812,332.782,88.051,332.782,88.361z M331.802,94.558V89.72h0.879v4.837H331.802z"/>
</g>
<g>
	<path d="M384.113,95.977c0.41-0.03,0.75-0.14,0.959-0.38c0.24-0.27,0.34-0.65,0.34-1.809V89.72h0.88v4.408
		c0,0.939-0.15,1.549-0.58,1.989c-0.39,0.39-1.029,0.55-1.499,0.55L384.113,95.977z M386.392,88.361c0,0.29-0.2,0.54-0.56,0.54
		c-0.32,0-0.53-0.25-0.53-0.54c0-0.3,0.22-0.549,0.55-0.549S386.392,88.061,386.392,88.361z"/>
	<path d="M387.613,93.668c0.27,0.16,0.729,0.34,1.169,0.34c0.63,0,0.93-0.31,0.93-0.72c0-0.419-0.25-0.64-0.89-0.879
		c-0.879-0.32-1.289-0.79-1.289-1.369c0-0.78,0.64-1.419,1.669-1.419c0.49,0,0.919,0.13,1.179,0.3l-0.209,0.64
		c-0.19-0.12-0.54-0.29-0.99-0.29c-0.52,0-0.799,0.3-0.799,0.66c0,0.4,0.28,0.58,0.909,0.83c0.83,0.31,1.27,0.729,1.27,1.449
		c0,0.859-0.67,1.459-1.799,1.459c-0.529,0-1.019-0.14-1.359-0.34L387.613,93.668z"/>
	<path d="M391.692,91.03c0-0.51-0.02-0.91-0.04-1.31h0.77l0.04,0.79h0.03c0.27-0.459,0.719-0.89,1.529-0.89
		c0.65,0,1.149,0.4,1.359,0.97h0.02c0.15-0.28,0.35-0.48,0.55-0.63c0.29-0.22,0.6-0.34,1.06-0.34c0.649,0,1.599,0.42,1.599,2.099
		v2.838h-0.86v-2.729c0-0.939-0.35-1.489-1.049-1.489c-0.51,0-0.89,0.37-1.049,0.79c-0.04,0.13-0.07,0.28-0.07,0.44v2.988h-0.86
		v-2.898c0-0.77-0.34-1.319-1.009-1.319c-0.54,0-0.95,0.44-1.089,0.879c-0.05,0.12-0.07,0.28-0.07,0.43v2.908h-0.86V91.03z"/>
	<path d="M400.522,92.299c0.02,1.189,0.77,1.679,1.659,1.679c0.63,0,1.02-0.11,1.339-0.25l0.16,0.63
		c-0.31,0.14-0.85,0.31-1.619,0.31c-1.489,0-2.378-0.989-2.378-2.449c0-1.459,0.859-2.599,2.269-2.599
		c1.589,0,1.999,1.379,1.999,2.269c0,0.18-0.01,0.31-0.03,0.41H400.522z M403.101,91.669c0.01-0.55-0.23-1.419-1.219-1.419
		c-0.899,0-1.279,0.81-1.349,1.419H403.101z"/>
	<path d="M407.042,93.668c0.27,0.16,0.729,0.34,1.169,0.34c0.63,0,0.93-0.31,0.93-0.72c0-0.419-0.25-0.64-0.89-0.879
		c-0.879-0.32-1.289-0.79-1.289-1.369c0-0.78,0.64-1.419,1.669-1.419c0.49,0,0.919,0.13,1.179,0.3l-0.209,0.64
		c-0.19-0.12-0.54-0.29-0.99-0.29c-0.52,0-0.799,0.3-0.799,0.66c0,0.4,0.28,0.58,0.909,0.83c0.83,0.31,1.27,0.729,1.27,1.449
		c0,0.859-0.67,1.459-1.799,1.459c-0.529,0-1.019-0.14-1.359-0.34L407.042,93.668z"/>
	<path d="M411.612,92.299c0.02,1.189,0.77,1.679,1.659,1.679c0.63,0,1.02-0.11,1.339-0.25l0.16,0.63
		c-0.31,0.14-0.85,0.31-1.619,0.31c-1.489,0-2.378-0.989-2.378-2.449c0-1.459,0.859-2.599,2.269-2.599
		c1.589,0,1.999,1.379,1.999,2.269c0,0.18-0.01,0.31-0.03,0.41H411.612z M414.19,91.669c0.01-0.55-0.23-1.419-1.219-1.419
		c-0.899,0-1.279,0.81-1.349,1.419H414.19z"/>
	<path d="M415.563,95.797c0.22-0.6,0.489-1.669,0.6-2.398l0.979-0.1c-0.24,0.85-0.68,1.959-0.959,2.429L415.563,95.797z"/>
</g>
<g>
	<path d="M291.815,109.311c0.378,0.224,1.022,0.476,1.639,0.476c0.883,0,1.303-0.434,1.303-1.008c0-0.588-0.35-0.896-1.247-1.233
		c-1.232-0.448-1.807-1.106-1.807-1.919c0-1.093,0.896-1.989,2.339-1.989c0.687,0,1.289,0.182,1.653,0.42l-0.294,0.896
		c-0.266-0.168-0.756-0.406-1.387-0.406c-0.729,0-1.121,0.42-1.121,0.924c0,0.561,0.392,0.813,1.274,1.163
		c1.163,0.434,1.779,1.022,1.779,2.031c0,1.205-0.938,2.045-2.521,2.045c-0.742,0-1.429-0.196-1.905-0.477L291.815,109.311z"/>
	<path d="M298.213,107.392c0.028,1.667,1.079,2.353,2.325,2.353c0.882,0,1.429-0.154,1.877-0.35l0.224,0.882
		c-0.434,0.196-1.19,0.435-2.269,0.435c-2.087,0-3.334-1.387-3.334-3.432c0-2.045,1.205-3.642,3.18-3.642
		c2.227,0,2.802,1.933,2.802,3.18c0,0.252-0.014,0.435-0.042,0.575H298.213z M301.827,106.509c0.014-0.77-0.322-1.989-1.709-1.989
		c-1.261,0-1.793,1.134-1.891,1.989H301.827z"/>
	<path d="M303.77,109.843l3.054-3.992c0.308-0.378,0.588-0.7,0.896-1.064v-0.028h-3.67v-0.98h5.155v0.771l-3.025,3.936
		c-0.294,0.378-0.561,0.729-0.869,1.064v0.028h3.95v0.98h-5.491V109.843z"/>
	<path d="M310.533,105.613c0-0.714-0.014-1.274-0.056-1.835h1.093l0.07,1.121h0.028c0.336-0.63,1.121-1.261,2.241-1.261
		c0.938,0,2.395,0.561,2.395,2.886v4.034h-1.232v-3.908c0-1.092-0.406-2.003-1.569-2.003c-0.798,0-1.429,0.574-1.653,1.261
		c-0.056,0.154-0.084,0.364-0.084,0.574v4.076h-1.233V105.613z"/>
	<path d="M323.065,108.933c0,0.588,0.028,1.163,0.098,1.625h-1.107l-0.098-0.854h-0.042c-0.378,0.532-1.107,1.009-2.073,1.009
		c-1.373,0-2.073-0.967-2.073-1.947c0-1.639,1.457-2.535,4.076-2.521v-0.14c0-0.546-0.154-1.569-1.541-1.555
		c-0.644,0-1.302,0.182-1.779,0.504l-0.28-0.827c0.561-0.35,1.387-0.588,2.241-0.588c2.073,0,2.578,1.415,2.578,2.76V108.933z
		 M321.875,107.098c-1.345-0.028-2.872,0.21-2.872,1.527c0,0.813,0.532,1.177,1.148,1.177c0.896,0,1.471-0.561,1.667-1.135
		c0.042-0.14,0.056-0.28,0.056-0.392V107.098z M322.491,100.851l-1.709,2.003h-0.869l1.219-2.003H322.491z"/>
	<path d="M325.05,105.613c0-0.714-0.028-1.274-0.056-1.835h1.079l0.056,1.107h0.042c0.378-0.645,1.009-1.247,2.143-1.247
		c0.911,0,1.611,0.561,1.905,1.359h0.028c0.21-0.392,0.49-0.672,0.771-0.882c0.406-0.308,0.84-0.477,1.485-0.477
		c0.911,0,2.241,0.588,2.241,2.942v3.978h-1.205v-3.824c0-1.316-0.49-2.087-1.471-2.087c-0.714,0-1.247,0.518-1.471,1.106
		c-0.056,0.182-0.098,0.392-0.098,0.616v4.188h-1.205v-4.062c0-1.079-0.477-1.849-1.415-1.849c-0.756,0-1.331,0.616-1.527,1.232
		c-0.07,0.168-0.098,0.393-0.098,0.603v4.076h-1.205V105.613z"/>
	<path d="M338.1,101.873c0,0.42-0.294,0.756-0.785,0.756c-0.448,0-0.742-0.336-0.742-0.756c0-0.42,0.308-0.771,0.77-0.771
		C337.791,101.103,338.1,101.438,338.1,101.873z M336.727,110.558v-6.78h1.233v6.78H336.727z"/>
	<path d="M340.002,100.612h1.233v9.945h-1.233V100.612z"/>
	<path d="M344.679,101.873c0,0.42-0.294,0.756-0.785,0.756c-0.448,0-0.742-0.336-0.742-0.756c0-0.42,0.308-0.771,0.77-0.771
		C344.371,101.103,344.679,101.438,344.679,101.873z M343.306,110.558v-6.78h1.233v6.78H343.306z"/>
	<path d="M345.784,112.294c0.308-0.84,0.687-2.339,0.84-3.362l1.373-0.14c-0.336,1.191-0.953,2.746-1.345,3.404L345.784,112.294z"/>
</g>
<g>
	<path d="M374.834,109.843l3.054-3.992c0.308-0.378,0.588-0.7,0.896-1.064v-0.028h-3.67v-0.98h5.155v0.771l-3.025,3.936
		c-0.294,0.378-0.561,0.729-0.869,1.064v0.028h3.95v0.98h-5.491V109.843z"/>
	<path d="M386.359,108.933c0,0.588,0.028,1.163,0.098,1.625h-1.107l-0.098-0.854h-0.042c-0.378,0.532-1.107,1.009-2.073,1.009
		c-1.373,0-2.073-0.967-2.073-1.947c0-1.639,1.457-2.535,4.076-2.521v-0.14c0-0.546-0.154-1.569-1.541-1.555
		c-0.644,0-1.302,0.182-1.779,0.504l-0.28-0.827c0.561-0.35,1.387-0.588,2.241-0.588c2.073,0,2.578,1.415,2.578,2.76V108.933z
		 M385.169,107.098c-1.345-0.028-2.872,0.21-2.872,1.527c0,0.813,0.532,1.177,1.148,1.177c0.896,0,1.471-0.561,1.667-1.135
		c0.042-0.14,0.056-0.28,0.056-0.392V107.098z"/>
	<path d="M388.345,105.613c0-0.714-0.028-1.274-0.056-1.835h1.079l0.056,1.107h0.042c0.378-0.645,1.009-1.247,2.143-1.247
		c0.911,0,1.611,0.561,1.905,1.359h0.028c0.21-0.392,0.49-0.672,0.771-0.882c0.406-0.308,0.84-0.477,1.485-0.477
		c0.911,0,2.241,0.588,2.241,2.942v3.978h-1.205v-3.824c0-1.316-0.49-2.087-1.471-2.087c-0.714,0-1.247,0.518-1.471,1.106
		c-0.056,0.182-0.098,0.392-0.098,0.616v4.188h-1.205v-4.062c0-1.079-0.476-1.849-1.415-1.849c-0.756,0-1.331,0.616-1.527,1.232
		c-0.07,0.168-0.098,0.393-0.098,0.603v4.076h-1.205V105.613z"/>
	<path d="M401.394,101.873c0,0.42-0.294,0.756-0.785,0.756c-0.448,0-0.742-0.336-0.742-0.756c0-0.42,0.308-0.771,0.77-0.771
		C401.085,101.103,401.394,101.438,401.394,101.873z M400.021,110.558v-6.78h1.233v6.78H400.021z"/>
	<path d="M403.297,100.612h1.233v9.945h-1.233V100.612z"/>
</g>
<g>
	<path d="M411.266,107.112c0,2.507-1.751,3.6-3.375,3.6c-1.821,0-3.25-1.345-3.25-3.488c0-2.255,1.499-3.586,3.362-3.586
		C409.95,103.638,411.266,105.053,411.266,107.112z M405.901,107.182c0,1.485,0.84,2.605,2.045,2.605
		c1.177,0,2.059-1.106,2.059-2.633c0-1.148-0.574-2.591-2.031-2.591C406.532,104.563,405.901,105.907,405.901,107.182z"/>
</g>
<g>
	<path d="M412.146,103.778l1.331,3.796c0.224,0.63,0.406,1.19,0.546,1.751h0.042c0.154-0.561,0.35-1.121,0.574-1.751l1.317-3.796
		h1.289l-2.662,6.78h-1.177l-2.577-6.78H412.146z"/>
</g>
<g>
	<path d="M422.41,108.933c0,0.588,0.028,1.163,0.098,1.625h-1.107l-0.098-0.854h-0.042c-0.378,0.532-1.107,1.009-2.073,1.009
		c-1.373,0-2.073-0.967-2.073-1.947c0-1.639,1.457-2.535,4.076-2.521v-0.14c0-0.546-0.154-1.569-1.541-1.555
		c-0.645,0-1.303,0.182-1.779,0.504l-0.28-0.827c0.561-0.35,1.387-0.588,2.241-0.588c2.073,0,2.578,1.415,2.578,2.76V108.933z
		 M421.219,107.098c-1.345-0.028-2.871,0.21-2.871,1.527c0,0.813,0.532,1.177,1.148,1.177c0.896,0,1.471-0.561,1.667-1.135
		c0.042-0.14,0.056-0.28,0.056-0.392V107.098z"/>
	<path d="M424.395,100.612h1.233v9.945h-1.233V100.612z"/>
	<path d="M429.072,101.873c0,0.42-0.294,0.756-0.785,0.756c-0.448,0-0.742-0.336-0.742-0.756c0-0.42,0.308-0.771,0.77-0.771
		C428.763,101.103,429.072,101.438,429.072,101.873z M427.699,110.558v-6.78h1.233v6.78H427.699z"/>
	<path d="M430.681,109.829c0-0.504,0.35-0.882,0.84-0.882s0.827,0.364,0.827,0.882c0,0.504-0.336,0.883-0.854,0.883
		C431.017,110.712,430.681,110.333,430.681,109.829z"/>
</g>
<g>
	<path d="M273.574,123.59l-0.98,2.97h-1.261l3.222-9.441h1.457l3.222,9.441h-1.303l-1.008-2.97H273.574z M276.684,122.638
		l-0.938-2.718c-0.21-0.616-0.35-1.177-0.49-1.723h-0.028c-0.14,0.546-0.28,1.134-0.476,1.708l-0.924,2.732H276.684z"/>
</g>
<g>
	<path d="M281.497,121.615c0-0.714-0.014-1.274-0.056-1.835h1.093l0.07,1.121h0.028c0.336-0.63,1.121-1.261,2.241-1.261
		c0.938,0,2.395,0.561,2.395,2.886v4.034h-1.232v-3.908c0-1.092-0.406-2.003-1.569-2.003c-0.798,0-1.429,0.574-1.653,1.261
		c-0.056,0.154-0.084,0.364-0.084,0.574v4.076h-1.233V121.615z"/>
</g>
<g>
	<path d="M288.679,119.78l1.471,4.006c0.168,0.448,0.336,0.98,0.448,1.387h0.028c0.126-0.406,0.266-0.924,0.434-1.415l1.345-3.978
		h1.303l-1.849,4.833c-0.882,2.326-1.485,3.502-2.325,4.245c-0.616,0.518-1.205,0.728-1.513,0.784l-0.308-1.022
		c0.308-0.098,0.714-0.294,1.079-0.602c0.336-0.267,0.742-0.743,1.037-1.373c0.056-0.126,0.098-0.224,0.098-0.294
		c0-0.07-0.028-0.168-0.098-0.322l-2.494-6.248H288.679z"/>
	<path d="M294.825,121.615c0-0.714-0.014-1.274-0.056-1.835h1.093l0.07,1.121h0.028c0.336-0.63,1.121-1.261,2.241-1.261
		c0.938,0,2.395,0.561,2.395,2.886v4.034h-1.232v-3.908c0-1.092-0.406-2.003-1.569-2.003c-0.798,0-1.429,0.574-1.653,1.261
		c-0.056,0.154-0.084,0.364-0.084,0.574v4.076h-1.233V121.615z"/>
	<path d="M305.102,116.853l-1.709,2.003h-0.868l1.232-2.003H305.102z M302.595,126.56v-6.78h1.233v6.78H302.595z"/>
</g>
<g>
	<path d="M308.77,126.56l-3.096-9.441h1.331l1.471,4.65c0.392,1.274,0.742,2.423,1.008,3.53h0.028
		c0.266-1.093,0.645-2.283,1.079-3.516l1.597-4.665h1.303l-3.376,9.441H308.77z"/>
</g>
<g>
	<path d="M317.76,124.935c0,0.588,0.028,1.163,0.098,1.625h-1.107l-0.098-0.854h-0.042c-0.378,0.532-1.107,1.009-2.073,1.009
		c-1.373,0-2.073-0.967-2.073-1.947c0-1.639,1.457-2.535,4.076-2.521v-0.14c0-0.546-0.154-1.569-1.541-1.555
		c-0.644,0-1.302,0.182-1.779,0.504l-0.28-0.827c0.561-0.35,1.387-0.588,2.241-0.588c2.073,0,2.578,1.415,2.578,2.76V124.935z
		 M316.569,123.1c-1.345-0.028-2.872,0.21-2.872,1.527c0,0.813,0.532,1.177,1.148,1.177c0.896,0,1.471-0.561,1.667-1.135
		c0.042-0.14,0.056-0.28,0.056-0.392V123.1z M317.186,116.853l-1.709,2.003h-0.869l1.219-2.003H317.186z"/>
	<path d="M319.745,121.615c0-0.714-0.028-1.274-0.056-1.835h1.079l0.056,1.107h0.042c0.378-0.645,1.009-1.247,2.143-1.247
		c0.911,0,1.611,0.561,1.905,1.359h0.028c0.21-0.392,0.49-0.672,0.771-0.882c0.406-0.308,0.84-0.477,1.485-0.477
		c0.911,0,2.241,0.588,2.241,2.942v3.978h-1.205v-3.824c0-1.316-0.49-2.087-1.471-2.087c-0.714,0-1.247,0.518-1.471,1.106
		c-0.056,0.182-0.098,0.392-0.098,0.616v4.188h-1.205v-4.062c0-1.079-0.476-1.849-1.415-1.849c-0.756,0-1.331,0.616-1.527,1.232
		c-0.07,0.168-0.098,0.393-0.098,0.603v4.076h-1.205V121.615z"/>
	<path d="M334.221,125.313c0.378,0.224,1.022,0.476,1.639,0.476c0.883,0,1.303-0.434,1.303-1.008c0-0.588-0.35-0.896-1.247-1.233
		c-1.232-0.448-1.807-1.106-1.807-1.919c0-1.093,0.896-1.989,2.339-1.989c0.687,0,1.289,0.182,1.653,0.42l-0.294,0.896
		c-0.266-0.168-0.756-0.406-1.387-0.406c-0.729,0-1.121,0.42-1.121,0.924c0,0.561,0.392,0.813,1.274,1.163
		c1.163,0.434,1.779,1.022,1.779,2.031c0,1.205-0.938,2.045-2.521,2.045c-0.742,0-1.429-0.196-1.905-0.477L334.221,125.313z"/>
</g>
<g>
	<path d="M340.325,121.895c0-0.798-0.014-1.485-0.056-2.115h1.079l0.056,1.345h0.042c0.308-0.91,1.064-1.485,1.891-1.485
		c0.126,0,0.224,0.014,0.336,0.028v1.163c-0.126-0.028-0.252-0.028-0.42-0.028c-0.869,0-1.485,0.645-1.653,1.569
		c-0.028,0.168-0.042,0.378-0.042,0.575v3.614h-1.233V121.895z"/>
</g>
<g>
	<path d="M349.68,124.935c0,0.588,0.028,1.163,0.098,1.625h-1.107l-0.098-0.854h-0.042c-0.378,0.532-1.107,1.009-2.073,1.009
		c-1.373,0-2.073-0.967-2.073-1.947c0-1.639,1.457-2.535,4.076-2.521v-0.14c0-0.546-0.154-1.569-1.541-1.555
		c-0.644,0-1.302,0.182-1.779,0.504l-0.28-0.827c0.561-0.35,1.387-0.588,2.241-0.588c2.073,0,2.578,1.415,2.578,2.76V124.935z
		 M348.489,123.1c-1.345-0.028-2.872,0.21-2.872,1.527c0,0.813,0.532,1.177,1.148,1.177c0.896,0,1.471-0.561,1.667-1.135
		c0.042-0.14,0.056-0.28,0.056-0.392V123.1z"/>
	<path d="M357.506,116.614v8.194c0,0.603,0.028,1.289,0.056,1.751h-1.093l-0.056-1.177h-0.042c-0.364,0.756-1.177,1.331-2.283,1.331
		c-1.639,0-2.914-1.387-2.914-3.446c-0.014-2.255,1.401-3.628,3.04-3.628c1.051,0,1.737,0.49,2.045,1.023h0.028v-4.048H357.506z
		 M356.288,122.54c0-0.154-0.014-0.364-0.056-0.519c-0.182-0.771-0.854-1.415-1.779-1.415c-1.275,0-2.031,1.121-2.031,2.605
		c0,1.373,0.687,2.507,2.003,2.507c0.826,0,1.583-0.561,1.807-1.471c0.042-0.168,0.056-0.336,0.056-0.533V122.54z"/>
	<path d="M365.696,123.114c0,2.507-1.751,3.6-3.375,3.6c-1.821,0-3.25-1.345-3.25-3.488c0-2.255,1.499-3.586,3.362-3.586
		C364.38,119.64,365.696,121.055,365.696,123.114z M360.332,123.184c0,1.485,0.84,2.605,2.045,2.605
		c1.177,0,2.059-1.106,2.059-2.633c0-1.148-0.574-2.591-2.031-2.591C360.962,120.564,360.332,121.909,360.332,123.184z"/>
	<path d="M367.079,125.313c0.378,0.224,1.022,0.476,1.639,0.476c0.883,0,1.303-0.434,1.303-1.008c0-0.588-0.35-0.896-1.247-1.233
		c-1.232-0.448-1.807-1.106-1.807-1.919c0-1.093,0.896-1.989,2.339-1.989c0.687,0,1.289,0.182,1.653,0.42l-0.294,0.896
		c-0.266-0.168-0.756-0.406-1.387-0.406c-0.729,0-1.121,0.42-1.121,0.924c0,0.561,0.392,0.813,1.274,1.163
		c1.163,0.434,1.779,1.022,1.779,2.031c0,1.205-0.938,2.045-2.521,2.045c-0.742,0-1.429-0.196-1.905-0.477L367.079,125.313z"/>
	<path d="M374.275,118.155v1.625h1.765v0.938h-1.765v3.656c0,0.84,0.238,1.316,0.924,1.316c0.336,0,0.533-0.028,0.714-0.084
		l0.056,0.938c-0.238,0.084-0.616,0.168-1.092,0.168c-0.575,0-1.037-0.196-1.331-0.519c-0.336-0.378-0.476-0.98-0.476-1.779v-3.698
		h-1.051v-0.938h1.051v-1.261L374.275,118.155z"/>
	<path d="M379.932,116.853l-1.709,2.003h-0.868l1.232-2.003H379.932z M377.425,126.56v-6.78h1.233v6.78H377.425z"/>
	<path d="M389.804,123.114c0,2.507-1.751,3.6-3.375,3.6c-1.821,0-3.25-1.345-3.25-3.488c0-2.255,1.499-3.586,3.362-3.586
		C388.487,119.64,389.804,121.055,389.804,123.114z M384.439,123.184c0,1.485,0.84,2.605,2.045,2.605
		c1.177,0,2.059-1.106,2.059-2.633c0-1.148-0.574-2.591-2.031-2.591C385.069,120.564,384.439,121.909,384.439,123.184z"/>
	<path d="M390.584,125.845l3.054-3.992c0.308-0.378,0.588-0.7,0.896-1.064v-0.028h-3.67v-0.98h5.155v0.771l-3.025,3.936
		c-0.294,0.378-0.561,0.729-0.869,1.064v0.028h3.95v0.98h-5.491V125.845z"/>
	<path d="M397.346,121.615c0-0.714-0.014-1.274-0.056-1.835h1.093l0.07,1.121h0.028c0.336-0.63,1.121-1.261,2.241-1.261
		c0.938,0,2.395,0.561,2.395,2.886v4.034h-1.232v-3.908c0-1.092-0.406-2.003-1.569-2.003c-0.798,0-1.429,0.574-1.653,1.261
		c-0.056,0.154-0.084,0.364-0.084,0.574v4.076h-1.233V121.615z"/>
	<path d="M409.879,124.935c0,0.588,0.028,1.163,0.098,1.625h-1.107l-0.098-0.854h-0.042c-0.378,0.532-1.107,1.009-2.073,1.009
		c-1.373,0-2.073-0.967-2.073-1.947c0-1.639,1.457-2.535,4.076-2.521v-0.14c0-0.546-0.154-1.569-1.541-1.555
		c-0.644,0-1.302,0.182-1.779,0.504l-0.28-0.827c0.561-0.35,1.387-0.588,2.241-0.588c2.073,0,2.578,1.415,2.578,2.76V124.935z
		 M408.688,123.1c-1.345-0.028-2.872,0.21-2.872,1.527c0,0.813,0.532,1.177,1.148,1.177c0.896,0,1.471-0.561,1.667-1.135
		c0.042-0.14,0.056-0.28,0.056-0.392V123.1z"/>
	<path d="M411.864,121.615c0-0.714-0.028-1.274-0.056-1.835h1.079l0.056,1.107h0.042c0.378-0.645,1.009-1.247,2.143-1.247
		c0.911,0,1.611,0.561,1.905,1.359h0.028c0.21-0.392,0.49-0.672,0.771-0.882c0.406-0.308,0.84-0.477,1.485-0.477
		c0.911,0,2.241,0.588,2.241,2.942v3.978h-1.205v-3.824c0-1.316-0.49-2.087-1.471-2.087c-0.714,0-1.247,0.518-1.471,1.106
		c-0.056,0.182-0.098,0.392-0.098,0.616v4.188h-1.205v-4.062c0-1.079-0.476-1.849-1.415-1.849c-0.756,0-1.331,0.616-1.527,1.232
		c-0.07,0.168-0.098,0.393-0.098,0.603v4.076h-1.205V121.615z"/>
	<path d="M429.213,124.697c0,0.714,0.014,1.331,0.056,1.863h-1.092l-0.07-1.106h-0.028c-0.308,0.546-1.037,1.261-2.241,1.261
		c-1.064,0-2.339-0.603-2.339-2.97v-3.964h1.233v3.74c0,1.289,0.406,2.171,1.513,2.171c0.826,0,1.401-0.574,1.625-1.134
		c0.07-0.168,0.112-0.393,0.112-0.63v-4.146h1.233V124.697z"/>
	<path d="M429.587,128.549c0.575-0.042,1.051-0.196,1.345-0.532c0.336-0.378,0.477-0.911,0.477-2.536v-5.701h1.232v6.177
		c0,1.317-0.21,2.171-0.813,2.788c-0.546,0.546-1.442,0.771-2.101,0.771L429.587,128.549z M432.781,117.875
		c0,0.406-0.28,0.756-0.784,0.756c-0.448,0-0.743-0.35-0.743-0.756c0-0.42,0.308-0.771,0.771-0.771S432.781,117.455,432.781,117.875
		z"/>
	<path d="M435.342,123.394c0.028,1.667,1.079,2.353,2.325,2.353c0.882,0,1.429-0.154,1.877-0.35l0.224,0.882
		c-0.434,0.196-1.19,0.435-2.269,0.435c-2.087,0-3.334-1.387-3.334-3.432c0-2.045,1.205-3.642,3.18-3.642
		c2.227,0,2.802,1.933,2.802,3.18c0,0.252-0.014,0.435-0.042,0.575H435.342z M438.956,122.511c0.014-0.77-0.322-1.989-1.709-1.989
		c-1.261,0-1.793,1.134-1.891,1.989H438.956z"/>
	<path d="M441.67,121.615c0-0.714-0.028-1.274-0.056-1.835h1.079l0.056,1.107h0.042c0.378-0.645,1.009-1.247,2.143-1.247
		c0.911,0,1.611,0.561,1.905,1.359h0.028c0.21-0.392,0.49-0.672,0.771-0.882c0.406-0.308,0.84-0.477,1.485-0.477
		c0.911,0,2.241,0.588,2.241,2.942v3.978h-1.205v-3.824c0-1.316-0.49-2.087-1.471-2.087c-0.714,0-1.247,0.518-1.471,1.106
		c-0.056,0.182-0.098,0.392-0.098,0.616v4.188h-1.205v-4.062c0-1.079-0.476-1.849-1.415-1.849c-0.756,0-1.331,0.616-1.527,1.232
		c-0.07,0.168-0.098,0.393-0.098,0.603v4.076h-1.205V121.615z"/>
	<path d="M454.032,123.394c0.028,1.667,1.079,2.353,2.325,2.353c0.882,0,1.429-0.154,1.877-0.35l0.224,0.882
		c-0.434,0.196-1.19,0.435-2.269,0.435c-2.087,0-3.334-1.387-3.334-3.432c0-2.045,1.205-3.642,3.18-3.642
		c2.228,0,2.802,1.933,2.802,3.18c0,0.252-0.014,0.435-0.042,0.575H454.032z M457.646,122.511c0.014-0.77-0.322-1.989-1.709-1.989
		c-1.26,0-1.793,1.134-1.891,1.989H457.646z"/>
	<path d="M459.562,128.296c0.308-0.84,0.687-2.339,0.84-3.362l1.373-0.14c-0.336,1.191-0.953,2.746-1.345,3.404L459.562,128.296z"/>
</g>
<g>
	<path d="M278.72,138.997l2.398-3.135c0.242-0.297,0.462-0.55,0.704-0.836v-0.022h-2.882v-0.77h4.049v0.605l-2.376,3.091
		c-0.231,0.297-0.44,0.572-0.682,0.836v0.022h3.103v0.77h-4.313V138.997z M280.678,133.507l-1.056-1.573h0.737l0.649,1.045h0.022
		l0.649-1.045h0.727l-1.034,1.573H280.678z"/>
	<path d="M284.572,137.071c0.022,1.309,0.847,1.848,1.826,1.848c0.693,0,1.122-0.121,1.474-0.275l0.176,0.693
		c-0.341,0.154-0.935,0.341-1.782,0.341c-1.64,0-2.619-1.089-2.619-2.695c0-1.606,0.946-2.86,2.498-2.86
		c1.749,0,2.2,1.518,2.2,2.497c0,0.198-0.011,0.341-0.033,0.451H284.572z M287.411,136.378c0.011-0.605-0.253-1.562-1.342-1.562
		c-0.99,0-1.408,0.891-1.485,1.562H287.411z"/>
</g>
<g>
	<path d="M290.105,138.579c0.297,0.176,0.803,0.374,1.288,0.374c0.693,0,1.023-0.341,1.023-0.792c0-0.462-0.275-0.704-0.979-0.968
		c-0.968-0.352-1.419-0.869-1.419-1.507c0-0.858,0.704-1.562,1.837-1.562c0.539,0,1.012,0.143,1.298,0.33l-0.231,0.704
		c-0.209-0.132-0.594-0.319-1.089-0.319c-0.572,0-0.88,0.33-0.88,0.726c0,0.44,0.308,0.638,1.001,0.913
		c0.913,0.341,1.397,0.803,1.397,1.595c0,0.946-0.737,1.606-1.98,1.606c-0.583,0-1.122-0.154-1.496-0.374L290.105,138.579z"/>
</g>
<g>
	<path d="M295.308,134.233l1.045,2.981c0.176,0.495,0.319,0.935,0.429,1.375h0.033c0.121-0.44,0.275-0.88,0.451-1.375l1.034-2.981
		h1.012l-2.09,5.325h-0.924l-2.024-5.325H295.308z"/>
</g>
<g>
	<path d="M304.438,136.851c0,1.969-1.375,2.828-2.651,2.828c-1.43,0-2.552-1.056-2.552-2.739c0-1.771,1.177-2.816,2.641-2.816
		C303.405,134.123,304.438,135.234,304.438,136.851z M300.225,136.906c0,1.166,0.66,2.046,1.606,2.046
		c0.924,0,1.617-0.869,1.617-2.068c0-0.902-0.451-2.035-1.595-2.035C300.72,134.849,300.225,135.905,300.225,136.906z"/>
	<path d="M310.115,138.094c0,0.561,0.011,1.045,0.044,1.463h-0.858l-0.055-0.869h-0.022c-0.242,0.429-0.814,0.99-1.76,0.99
		c-0.836,0-1.837-0.473-1.837-2.333v-3.113h0.968v2.938c0,1.012,0.319,1.705,1.188,1.705c0.649,0,1.1-0.451,1.276-0.891
		c0.055-0.132,0.088-0.308,0.088-0.495v-3.256h0.968V138.094z"/>
	<path d="M314.052,131.747h0.968v7.811h-0.968V131.747z"/>
	<path d="M320.388,138.281c0,0.462,0.022,0.913,0.077,1.276h-0.869l-0.077-0.671h-0.033c-0.297,0.418-0.869,0.792-1.628,0.792
		c-1.078,0-1.628-0.759-1.628-1.529c0-1.287,1.144-1.991,3.201-1.98v-0.11c0-0.429-0.121-1.232-1.21-1.221
		c-0.506,0-1.023,0.143-1.397,0.396l-0.22-0.649c0.44-0.275,1.089-0.462,1.76-0.462c1.628,0,2.024,1.111,2.024,2.167V138.281z
		 M319.453,136.84c-1.056-0.022-2.255,0.165-2.255,1.199c0,0.638,0.418,0.924,0.902,0.924c0.704,0,1.155-0.44,1.309-0.891
		c0.033-0.11,0.044-0.22,0.044-0.308V136.84z M319.938,131.934l-1.342,1.573h-0.682l0.957-1.573H319.938z"/>
	<path d="M321.817,138.579c0.297,0.176,0.803,0.374,1.288,0.374c0.693,0,1.023-0.341,1.023-0.792c0-0.462-0.275-0.704-0.979-0.968
		c-0.968-0.352-1.419-0.869-1.419-1.507c0-0.858,0.704-1.562,1.837-1.562c0.539,0,1.012,0.143,1.298,0.33l-0.231,0.704
		c-0.209-0.132-0.594-0.319-1.089-0.319c-0.572,0-0.88,0.33-0.88,0.726c0,0.44,0.308,0.638,1.001,0.913
		c0.913,0.341,1.397,0.803,1.397,1.595c0,0.946-0.737,1.606-1.98,1.606c-0.583,0-1.123-0.154-1.497-0.374L321.817,138.579z"/>
	<path d="M327.263,136.675h0.022c0.132-0.187,0.308-0.418,0.462-0.605l1.573-1.837h1.155l-2.046,2.189l2.343,3.135h-1.188
		l-1.826-2.552l-0.495,0.55v2.002h-0.957v-7.811h0.957V136.675z"/>
	<path d="M335.92,138.094c0,0.561,0.011,1.045,0.044,1.463h-0.858l-0.055-0.869h-0.022c-0.242,0.429-0.814,0.99-1.76,0.99
		c-0.836,0-1.837-0.473-1.837-2.333v-3.113h0.968v2.938c0,1.012,0.319,1.705,1.188,1.705c0.649,0,1.1-0.451,1.276-0.891
		c0.055-0.132,0.088-0.308,0.088-0.495v-3.256h0.968V138.094z"/>
	<path d="M339.857,135.971c0-0.682-0.022-1.232-0.044-1.738h0.858l0.055,0.913h0.022c0.385-0.649,1.023-1.023,1.892-1.023
		c1.298,0,2.267,1.089,2.267,2.695c0,1.914-1.177,2.86-2.432,2.86c-0.704,0-1.32-0.308-1.639-0.836h-0.022v2.894h-0.957V135.971z
		 M340.814,137.39c0,0.143,0.011,0.275,0.044,0.396c0.176,0.671,0.759,1.133,1.452,1.133c1.023,0,1.617-0.836,1.617-2.057
		c0-1.056-0.561-1.969-1.584-1.969c-0.66,0-1.287,0.462-1.463,1.188c-0.033,0.121-0.066,0.264-0.066,0.385V137.39z"/>
</g>
<g>
	<path d="M342.157,135.894c0-0.627-0.011-1.166-0.044-1.661h0.847l0.044,1.056h0.033c0.242-0.715,0.836-1.166,1.485-1.166
		c0.099,0,0.176,0.011,0.264,0.022v0.913c-0.099-0.022-0.198-0.022-0.33-0.022c-0.682,0-1.167,0.506-1.298,1.232
		c-0.022,0.132-0.033,0.297-0.033,0.451v2.838h-0.968V135.894z"/>
</g>
<g>
	<path d="M350.551,136.851c0,1.969-1.375,2.828-2.651,2.828c-1.43,0-2.552-1.056-2.552-2.739c0-1.771,1.177-2.816,2.641-2.816
		C349.517,134.123,350.551,135.234,350.551,136.851z M346.337,136.906c0,1.166,0.66,2.046,1.606,2.046
		c0.924,0,1.617-0.869,1.617-2.068c0-0.902-0.451-2.035-1.595-2.035C346.833,134.849,346.337,135.905,346.337,136.906z"/>
	<path d="M351.771,135.674c0-0.561-0.022-1.001-0.044-1.441h0.847l0.044,0.869h0.033c0.297-0.506,0.792-0.979,1.684-0.979
		c0.715,0,1.265,0.44,1.496,1.067h0.022c0.165-0.308,0.385-0.528,0.605-0.693c0.319-0.242,0.66-0.374,1.166-0.374
		c0.715,0,1.76,0.462,1.76,2.31v3.125h-0.946v-3.003c0-1.034-0.385-1.639-1.155-1.639c-0.561,0-0.979,0.407-1.155,0.869
		c-0.044,0.143-0.077,0.308-0.077,0.484v3.29h-0.946v-3.19c0-0.847-0.374-1.452-1.111-1.452c-0.594,0-1.045,0.484-1.199,0.968
		c-0.055,0.132-0.077,0.308-0.077,0.473v3.202h-0.946V135.674z"/>
	<path d="M361.484,137.071c0.022,1.309,0.847,1.848,1.826,1.848c0.693,0,1.122-0.121,1.474-0.275l0.176,0.693
		c-0.341,0.154-0.935,0.341-1.782,0.341c-1.64,0-2.619-1.089-2.619-2.695c0-1.606,0.946-2.86,2.498-2.86
		c1.749,0,2.2,1.518,2.2,2.497c0,0.198-0.011,0.341-0.033,0.451H361.484z M364.323,136.378c0.011-0.605-0.253-1.562-1.342-1.562
		c-0.99,0-1.408,0.891-1.485,1.562H364.323z"/>
	<path d="M366.456,135.674c0-0.561-0.011-1.001-0.044-1.441h0.858l0.055,0.88h0.022c0.264-0.495,0.88-0.99,1.76-0.99
		c0.737,0,1.881,0.44,1.881,2.266v3.168h-0.968v-3.069c0-0.858-0.319-1.573-1.232-1.573c-0.627,0-1.122,0.451-1.298,0.99
		c-0.044,0.121-0.066,0.286-0.066,0.451v3.202h-0.968V135.674z"/>
	<path d="M374.53,131.934l-1.342,1.573h-0.682l0.968-1.573H374.53z M372.561,139.558v-5.325h0.968v5.325H372.561z"/>
	<path d="M375.135,135.674c0-0.561-0.022-1.001-0.044-1.441h0.847l0.044,0.869h0.033c0.297-0.506,0.792-0.979,1.684-0.979
		c0.715,0,1.265,0.44,1.496,1.067h0.022c0.165-0.308,0.385-0.528,0.605-0.693c0.319-0.242,0.66-0.374,1.166-0.374
		c0.715,0,1.76,0.462,1.76,2.31v3.125h-0.946v-3.003c0-1.034-0.385-1.639-1.155-1.639c-0.561,0-0.979,0.407-1.155,0.869
		c-0.044,0.143-0.077,0.308-0.077,0.484v3.29h-0.946v-3.19c0-0.847-0.374-1.452-1.111-1.452c-0.594,0-1.045,0.484-1.199,0.968
		c-0.055,0.132-0.077,0.308-0.077,0.473v3.202h-0.946V135.674z"/>
	<path d="M384.848,137.071c0.022,1.309,0.847,1.848,1.826,1.848c0.693,0,1.122-0.121,1.474-0.275l0.176,0.693
		c-0.341,0.154-0.935,0.341-1.782,0.341c-1.64,0-2.619-1.089-2.619-2.695c0-1.606,0.946-2.86,2.498-2.86
		c1.749,0,2.2,1.518,2.2,2.497c0,0.198-0.011,0.341-0.033,0.451H384.848z M387.687,136.378c0.011-0.605-0.253-1.562-1.342-1.562
		c-0.99,0-1.408,0.891-1.485,1.562H387.687z"/>
	<path d="M392.526,134.233l1.045,2.981c0.176,0.495,0.319,0.935,0.429,1.375h0.033c0.121-0.44,0.275-0.88,0.451-1.375l1.034-2.981
		h1.012l-2.09,5.325h-0.924l-2.024-5.325H392.526z"/>
	<path d="M399.775,135.674c0-0.561-0.022-1.001-0.044-1.441h0.847l0.044,0.869h0.033c0.297-0.506,0.792-0.979,1.684-0.979
		c0.715,0,1.265,0.44,1.496,1.067h0.022c0.165-0.308,0.385-0.528,0.605-0.693c0.319-0.242,0.66-0.374,1.166-0.374
		c0.715,0,1.76,0.462,1.76,2.31v3.125h-0.946v-3.003c0-1.034-0.385-1.639-1.155-1.639c-0.561,0-0.979,0.407-1.155,0.869
		c-0.044,0.143-0.077,0.308-0.077,0.484v3.29h-0.946v-3.19c0-0.847-0.374-1.452-1.111-1.452c-0.594,0-1.045,0.484-1.199,0.968
		c-0.055,0.132-0.077,0.308-0.077,0.473v3.202h-0.946V135.674z"/>
	<path d="M412.689,138.281c0,0.462,0.022,0.913,0.077,1.276h-0.869l-0.077-0.671h-0.033c-0.297,0.418-0.869,0.792-1.628,0.792
		c-1.078,0-1.628-0.759-1.628-1.529c0-1.287,1.144-1.991,3.201-1.98v-0.11c0-0.429-0.121-1.232-1.21-1.221
		c-0.506,0-1.023,0.143-1.397,0.396l-0.22-0.649c0.44-0.275,1.089-0.462,1.76-0.462c1.628,0,2.024,1.111,2.024,2.167V138.281z
		 M411.754,136.84c-1.056-0.022-2.255,0.165-2.255,1.199c0,0.638,0.418,0.924,0.902,0.924c0.704,0,1.155-0.44,1.309-0.891
		c0.033-0.11,0.044-0.22,0.044-0.308V136.84z"/>
	<path d="M414.25,135.674c0-0.561-0.011-1.001-0.044-1.441h0.858l0.055,0.88h0.022c0.264-0.495,0.88-0.99,1.76-0.99
		c0.737,0,1.881,0.44,1.881,2.266v3.168h-0.968v-3.069c0-0.858-0.319-1.573-1.232-1.573c-0.627,0-1.122,0.451-1.298,0.99
		c-0.044,0.121-0.066,0.286-0.066,0.451v3.202h-0.968V135.674z"/>
	<path d="M419.75,138.997l2.398-3.135c0.242-0.297,0.462-0.55,0.704-0.836v-0.022h-2.882v-0.77h4.049v0.605l-2.376,3.091
		c-0.231,0.297-0.44,0.572-0.682,0.836v0.022h3.103v0.77h-4.313V138.997z M421.708,133.507l-1.056-1.573h0.737l0.649,1.045h0.022
		l0.649-1.045h0.727l-1.034,1.573H421.708z"/>
	<path d="M425.603,137.071c0.022,1.309,0.847,1.848,1.826,1.848c0.693,0,1.122-0.121,1.474-0.275l0.176,0.693
		c-0.341,0.154-0.935,0.341-1.782,0.341c-1.64,0-2.619-1.089-2.619-2.695c0-1.606,0.946-2.86,2.498-2.86
		c1.749,0,2.2,1.518,2.2,2.497c0,0.198-0.011,0.341-0.033,0.451H425.603z M428.441,136.378c0.011-0.605-0.253-1.562-1.342-1.562
		c-0.99,0-1.408,0.891-1.485,1.562H428.441z"/>
	<path d="M430.574,131.747h0.968v7.811h-0.968V131.747z"/>
	<path d="M433.038,138.579c0.297,0.176,0.803,0.374,1.288,0.374c0.693,0,1.023-0.341,1.023-0.792c0-0.462-0.275-0.704-0.979-0.968
		c-0.968-0.352-1.419-0.869-1.419-1.507c0-0.858,0.704-1.562,1.837-1.562c0.539,0,1.012,0.143,1.298,0.33l-0.231,0.704
		c-0.209-0.132-0.594-0.319-1.089-0.319c-0.572,0-0.88,0.33-0.88,0.726c0,0.44,0.308,0.638,1.001,0.913
		c0.913,0.341,1.397,0.803,1.397,1.595c0,0.946-0.737,1.606-1.98,1.606c-0.583,0-1.123-0.154-1.497-0.374L433.038,138.579z"/>
	<path d="M438.692,132.957v1.276h1.386v0.737h-1.386v2.872c0,0.66,0.187,1.034,0.726,1.034c0.264,0,0.418-0.022,0.561-0.066
		l0.044,0.737c-0.187,0.066-0.484,0.132-0.858,0.132c-0.451,0-0.814-0.154-1.045-0.407c-0.264-0.297-0.374-0.77-0.374-1.397v-2.905
		h-0.825v-0.737h0.825v-0.99L438.692,132.957z"/>
	<path d="M441.541,134.233l1.045,2.981c0.176,0.495,0.319,0.935,0.429,1.375h0.033c0.121-0.44,0.275-0.88,0.451-1.375l1.034-2.981
		h1.012l-2.09,5.325h-0.924l-2.024-5.325H441.541z"/>
	<path d="M448.427,131.934l-1.342,1.573h-0.682l0.968-1.573H448.427z M446.458,139.558v-5.325h0.968v5.325H446.458z"/>
	<path d="M448.801,138.985c0-0.396,0.275-0.693,0.66-0.693c0.385,0,0.649,0.286,0.649,0.693c0,0.396-0.264,0.693-0.671,0.693
		C449.064,139.679,448.801,139.382,448.801,138.985z"/>
</g>
<g>
	<path d="M300.157,157.649c0.702,0.45,1.71,0.792,2.791,0.792c1.603,0,2.539-0.846,2.539-2.071c0-1.116-0.648-1.783-2.287-2.395
		c-1.981-0.72-3.205-1.765-3.205-3.457c0-1.891,1.566-3.295,3.925-3.295c1.224,0,2.143,0.288,2.665,0.594l-0.432,1.278
		c-0.378-0.234-1.188-0.576-2.287-0.576c-1.656,0-2.287,0.99-2.287,1.818c0,1.134,0.738,1.692,2.413,2.341
		c2.053,0.792,3.079,1.782,3.079,3.565c0,1.873-1.369,3.511-4.231,3.511c-1.17,0-2.449-0.36-3.097-0.792L300.157,157.649z"/>
</g>
<g>
	<path d="M309.733,153.562c0-1.026-0.018-1.909-0.072-2.719h1.387l0.072,1.729h0.054c0.396-1.17,1.368-1.908,2.431-1.908
		c0.162,0,0.288,0.018,0.432,0.036v1.494c-0.162-0.036-0.324-0.036-0.54-0.036c-1.116,0-1.909,0.829-2.125,2.017
		c-0.036,0.216-0.054,0.486-0.054,0.738v4.646h-1.584V153.562z"/>
</g>
<g>
	<path d="M323.217,146.774v10.533c0,0.774,0.036,1.656,0.072,2.25h-1.404l-0.072-1.513h-0.054c-0.468,0.973-1.513,1.711-2.935,1.711
		c-2.106,0-3.745-1.783-3.745-4.43c-0.018-2.898,1.801-4.663,3.907-4.663c1.351,0,2.233,0.63,2.629,1.314h0.036v-5.204H323.217z
		 M321.651,154.39c0-0.198-0.018-0.468-0.072-0.667c-0.234-0.99-1.098-1.818-2.287-1.818c-1.639,0-2.611,1.44-2.611,3.349
		c0,1.765,0.882,3.223,2.575,3.223c1.063,0,2.035-0.721,2.323-1.891c0.054-0.216,0.072-0.432,0.072-0.685V154.39z"/>
	<path d="M326.743,155.488c0.036,2.143,1.386,3.025,2.989,3.025c1.134,0,1.836-0.198,2.413-0.45l0.288,1.134
		c-0.558,0.252-1.53,0.559-2.917,0.559c-2.683,0-4.285-1.783-4.285-4.412c0-2.628,1.549-4.681,4.087-4.681
		c2.863,0,3.601,2.484,3.601,4.087c0,0.324-0.018,0.559-0.054,0.738H326.743z M331.389,154.354c0.018-0.99-0.415-2.557-2.197-2.557
		c-1.621,0-2.305,1.458-2.431,2.557H331.389z"/>
	<path d="M341.091,159.251c-0.414,0.198-1.333,0.504-2.503,0.504c-2.629,0-4.339-1.783-4.339-4.447c0-2.683,1.836-4.646,4.682-4.646
		c0.936,0,1.764,0.234,2.197,0.468l-0.36,1.207c-0.378-0.198-0.972-0.414-1.836-0.414c-1.999,0-3.079,1.495-3.079,3.295
		c0,2.017,1.296,3.259,3.025,3.259c0.9,0,1.495-0.216,1.945-0.415L341.091,159.251z M337.724,149.655l-1.729-2.575h1.207l1.062,1.71
		h0.036l1.063-1.71h1.188l-1.693,2.575H337.724z"/>
	<path d="M342.943,153.202c0-0.918-0.018-1.638-0.072-2.359h1.405l0.09,1.44h0.036c0.432-0.81,1.44-1.62,2.881-1.62
		c1.206,0,3.079,0.72,3.079,3.709v5.186h-1.584v-5.023c0-1.404-0.522-2.575-2.017-2.575c-1.026,0-1.836,0.738-2.125,1.621
		c-0.072,0.198-0.108,0.468-0.108,0.738v5.24h-1.584V153.202z"/>
	<path d="M353.815,155.488c0.036,2.143,1.386,3.025,2.989,3.025c1.134,0,1.836-0.198,2.413-0.45l0.288,1.134
		c-0.558,0.252-1.53,0.559-2.917,0.559c-2.683,0-4.286-1.783-4.286-4.412c0-2.628,1.548-4.681,4.087-4.681
		c2.863,0,3.601,2.484,3.601,4.087c0,0.324-0.018,0.559-0.054,0.738H353.815z M358.46,154.354c0.018-0.99-0.414-2.557-2.196-2.557
		c-1.621,0-2.305,1.458-2.431,2.557H358.46z"/>
</g>
<g>
	<path d="M363.158,159.558l-3.979-12.136h1.71l1.891,5.978c0.504,1.638,0.954,3.115,1.296,4.537h0.036
		c0.342-1.404,0.829-2.935,1.387-4.519l2.052-5.996h1.675l-4.339,12.136H363.158z"/>
</g>
<g>
	<path d="M375.614,157.469c0,0.756,0.036,1.495,0.126,2.089h-1.422l-0.126-1.098h-0.054c-0.486,0.684-1.422,1.296-2.665,1.296
		c-1.765,0-2.665-1.243-2.665-2.503c0-2.106,1.873-3.259,5.239-3.241v-0.18c0-0.702-0.198-2.017-1.98-1.999
		c-0.828,0-1.674,0.234-2.287,0.648l-0.36-1.063c0.72-0.45,1.783-0.756,2.881-0.756c2.665,0,3.313,1.818,3.313,3.547V157.469z
		 M374.084,155.11c-1.729-0.036-3.691,0.27-3.691,1.962c0,1.044,0.684,1.513,1.476,1.513c1.152,0,1.891-0.72,2.143-1.458
		c0.054-0.18,0.072-0.36,0.072-0.504V155.11z M374.876,147.08l-2.196,2.575h-1.116l1.566-2.575H374.876z"/>
	<path d="M377.952,157.955c0.486,0.288,1.314,0.612,2.107,0.612c1.134,0,1.674-0.558,1.674-1.296c0-0.756-0.45-1.152-1.603-1.584
		c-1.584-0.576-2.323-1.422-2.323-2.467c0-1.404,1.152-2.557,3.007-2.557c0.882,0,1.656,0.234,2.125,0.54l-0.378,1.152
		c-0.342-0.216-0.972-0.522-1.782-0.522c-0.937,0-1.44,0.54-1.44,1.188c0,0.72,0.504,1.044,1.638,1.495
		c1.495,0.558,2.287,1.314,2.287,2.611c0,1.548-1.206,2.629-3.241,2.629c-0.954,0-1.836-0.252-2.449-0.612L377.952,157.955z"/>
	<path d="M388.122,158.639l3.925-5.131c0.396-0.486,0.756-0.9,1.152-1.368v-0.036h-4.717v-1.261h6.626v0.991l-3.889,5.059
		c-0.378,0.486-0.72,0.937-1.116,1.369v0.036h5.078v1.26h-7.058V158.639z"/>
</g>
<g>
	<path d="M395.953,150.843l1.71,4.88c0.288,0.81,0.522,1.53,0.702,2.25h0.054c0.198-0.72,0.45-1.44,0.738-2.25l1.693-4.88h1.656
		l-3.421,8.715h-1.513l-3.313-8.715H395.953z"/>
</g>
<g>
	<path d="M403.891,155.488c0.036,2.143,1.386,3.025,2.989,3.025c1.134,0,1.836-0.198,2.413-0.45l0.288,1.134
		c-0.558,0.252-1.53,0.559-2.917,0.559c-2.683,0-4.286-1.783-4.286-4.412c0-2.628,1.548-4.681,4.087-4.681
		c2.863,0,3.601,2.484,3.601,4.087c0,0.324-0.018,0.559-0.054,0.738H403.891z M408.536,154.354c0.018-0.99-0.414-2.557-2.196-2.557
		c-1.621,0-2.305,1.458-2.431,2.557H408.536z"/>
	<path d="M412.027,153.202c0-0.918-0.036-1.638-0.072-2.359h1.387l0.072,1.423h0.054c0.486-0.829,1.296-1.603,2.755-1.603
		c1.17,0,2.07,0.72,2.449,1.747h0.036c0.27-0.504,0.63-0.864,0.99-1.134c0.522-0.396,1.08-0.612,1.908-0.612
		c1.17,0,2.881,0.756,2.881,3.781v5.113h-1.548v-4.916c0-1.692-0.63-2.683-1.891-2.683c-0.918,0-1.603,0.666-1.891,1.422
		c-0.072,0.234-0.126,0.504-0.126,0.792v5.384h-1.548v-5.222c0-1.386-0.612-2.376-1.818-2.376c-0.973,0-1.711,0.792-1.963,1.584
		c-0.09,0.216-0.126,0.504-0.126,0.774v5.24h-1.548V153.202z"/>
	<path d="M427.921,155.488c0.036,2.143,1.386,3.025,2.989,3.025c1.134,0,1.836-0.198,2.413-0.45l0.288,1.134
		c-0.558,0.252-1.53,0.559-2.917,0.559c-2.683,0-4.285-1.783-4.285-4.412c0-2.628,1.549-4.681,4.087-4.681
		c2.863,0,3.601,2.484,3.601,4.087c0,0.324-0.018,0.559-0.054,0.738H427.921z M432.566,154.354c0.018-0.99-0.415-2.557-2.197-2.557
		c-1.621,0-2.305,1.458-2.431,2.557H432.566z"/>
</g>
<g>
	<path d="M316.234,174.146c0-1.071-0.021-1.911-0.084-2.75h1.638l0.105,1.68h0.042c0.504-0.945,1.68-1.89,3.359-1.89
		c1.407,0,3.59,0.84,3.59,4.325v6.047h-1.848V175.7c0-1.638-0.609-3.002-2.352-3.002c-1.197,0-2.142,0.861-2.478,1.89
		c-0.084,0.231-0.126,0.546-0.126,0.861v6.11h-1.848V174.146z"/>
	<path d="M335.028,179.122c0,0.882,0.042,1.743,0.147,2.436h-1.659l-0.147-1.281h-0.063c-0.567,0.798-1.659,1.512-3.107,1.512
		c-2.058,0-3.107-1.449-3.107-2.918c0-2.457,2.184-3.8,6.11-3.779v-0.21c0-0.819-0.231-2.352-2.31-2.331
		c-0.966,0-1.953,0.273-2.667,0.756l-0.42-1.239c0.84-0.525,2.079-0.882,3.359-0.882c3.107,0,3.863,2.121,3.863,4.136V179.122z
		 M333.243,176.372c-2.016-0.042-4.304,0.315-4.304,2.289c0,1.218,0.798,1.764,1.722,1.764c1.344,0,2.205-0.84,2.499-1.701
		c0.063-0.21,0.084-0.42,0.084-0.588V176.372z"/>
	<path d="M342.463,174.146c0-1.071-0.021-1.911-0.084-2.75h1.638l0.105,1.68h0.042c0.504-0.945,1.68-1.89,3.359-1.89
		c1.407,0,3.59,0.84,3.59,4.325v6.047h-1.848V175.7c0-1.638-0.609-3.002-2.352-3.002c-1.197,0-2.142,0.861-2.478,1.89
		c-0.084,0.231-0.126,0.546-0.126,0.861v6.11h-1.848V174.146z"/>
	<path d="M361.256,179.122c0,0.882,0.042,1.743,0.147,2.436h-1.659l-0.147-1.281h-0.063c-0.567,0.798-1.659,1.512-3.107,1.512
		c-2.058,0-3.107-1.449-3.107-2.918c0-2.457,2.184-3.8,6.11-3.779v-0.21c0-0.819-0.231-2.352-2.31-2.331
		c-0.966,0-1.953,0.273-2.667,0.756l-0.42-1.239c0.84-0.525,2.079-0.882,3.359-0.882c3.107,0,3.863,2.121,3.863,4.136V179.122z
		 M359.472,176.372c-2.016-0.042-4.304,0.315-4.304,2.289c0,1.218,0.798,1.764,1.722,1.764c1.344,0,2.205-0.84,2.499-1.701
		c0.063-0.21,0.084-0.42,0.084-0.588V176.372z M360.396,167.007l-2.562,3.002h-1.302l1.827-3.002H360.396z"/>
	<path d="M363.988,179.689c0.567,0.336,1.533,0.714,2.457,0.714c1.323,0,1.953-0.651,1.953-1.512c0-0.882-0.525-1.344-1.869-1.848
		c-1.848-0.672-2.708-1.659-2.708-2.876c0-1.638,1.344-2.981,3.506-2.981c1.029,0,1.932,0.273,2.478,0.63l-0.441,1.344
		c-0.399-0.252-1.134-0.609-2.079-0.609c-1.092,0-1.68,0.63-1.68,1.386c0,0.84,0.588,1.218,1.911,1.743
		c1.743,0.651,2.667,1.533,2.667,3.044c0,1.806-1.407,3.065-3.779,3.065c-1.113,0-2.142-0.294-2.855-0.714L363.988,179.689z
		 M366.318,170.01l-2.016-3.002h1.407l1.239,1.995h0.042l1.239-1.995h1.386l-1.974,3.002H366.318z"/>
	<path d="M385.763,166.65v12.283c0,0.903,0.042,1.932,0.084,2.625h-1.638l-0.084-1.764h-0.063c-0.546,1.134-1.764,1.995-3.422,1.995
		c-2.457,0-4.367-2.079-4.367-5.165c-0.021-3.38,2.1-5.438,4.556-5.438c1.575,0,2.604,0.735,3.065,1.533h0.042v-6.068H385.763z
		 M383.936,175.532c0-0.231-0.021-0.546-0.084-0.777c-0.273-1.155-1.281-2.121-2.667-2.121c-1.911,0-3.044,1.68-3.044,3.905
		c0,2.058,1.029,3.758,3.002,3.758c1.239,0,2.373-0.84,2.708-2.205c0.063-0.252,0.084-0.504,0.084-0.798V175.532z"/>
	<path d="M389.88,176.813c0.042,2.499,1.617,3.527,3.485,3.527c1.323,0,2.142-0.231,2.813-0.525l0.336,1.323
		c-0.651,0.294-1.785,0.651-3.401,0.651c-3.128,0-4.997-2.079-4.997-5.144s1.806-5.459,4.766-5.459c3.338,0,4.199,2.897,4.199,4.766
		c0,0.378-0.021,0.651-0.063,0.861H389.88z M395.297,175.49c0.021-1.155-0.483-2.981-2.562-2.981c-1.89,0-2.688,1.701-2.834,2.981
		H395.297z"/>
	<path d="M399.372,174.146c0-1.071-0.021-1.911-0.084-2.75h1.638l0.105,1.68h0.042c0.504-0.945,1.68-1.89,3.359-1.89
		c1.407,0,3.59,0.84,3.59,4.325v6.047h-1.848V175.7c0-1.638-0.609-3.002-2.352-3.002c-1.197,0-2.142,0.861-2.478,1.89
		c-0.084,0.231-0.126,0.546-0.126,0.861v6.11h-1.848V174.146z"/>
	<path d="M415.542,167.616c1.113-0.189,2.436-0.315,3.884-0.315c2.625,0,4.493,0.63,5.732,1.764
		c1.281,1.155,2.016,2.792,2.016,5.081c0,2.31-0.735,4.199-2.037,5.501c-1.344,1.323-3.527,2.037-6.278,2.037
		c-1.323,0-2.394-0.063-3.317-0.168V167.616z M417.368,180.13c0.462,0.063,1.134,0.084,1.848,0.084c3.926,0,6.026-2.184,6.026-6.005
		c0.021-3.338-1.869-5.459-5.732-5.459c-0.945,0-1.659,0.084-2.142,0.189V180.13z"/>
</g>
<g>
	<path fill="#C25679" d="M329.36,188.143v3.103h3.586v-3.103h0.968v7.415h-0.968v-3.477h-3.586v3.477h-0.968v-7.415H329.36z"/>
	<path fill="#C25679" d="M339.282,194.281c0,0.462,0.022,0.913,0.077,1.276h-0.869l-0.077-0.671h-0.033
		c-0.297,0.418-0.869,0.792-1.628,0.792c-1.078,0-1.628-0.759-1.628-1.529c0-1.287,1.144-1.991,3.201-1.98v-0.11
		c0-0.429-0.121-1.232-1.21-1.221c-0.506,0-1.023,0.143-1.397,0.396l-0.22-0.649c0.44-0.275,1.089-0.462,1.76-0.462
		c1.628,0,2.024,1.111,2.024,2.167V194.281z M338.347,192.84c-1.056-0.022-2.255,0.165-2.255,1.199c0,0.638,0.418,0.924,0.902,0.924
		c0.704,0,1.155-0.44,1.309-0.891c0.033-0.11,0.044-0.22,0.044-0.308V192.84z"/>
	<path fill="#C25679" d="M340.843,191.674c0-0.561-0.011-1.001-0.044-1.441h0.858l0.055,0.88h0.022c0.264-0.495,0.88-0.99,1.76-0.99
		c0.737,0,1.881,0.44,1.881,2.266v3.168h-0.968v-3.069c0-0.858-0.319-1.573-1.232-1.573c-0.627,0-1.122,0.451-1.298,0.99
		c-0.044,0.121-0.066,0.286-0.066,0.451v3.202h-0.968V191.674z"/>
	<path fill="#C25679" d="M347.905,192.675h0.022c0.132-0.187,0.308-0.418,0.462-0.605l1.573-1.837h1.155l-2.046,2.189l2.343,3.135
		h-1.188l-1.826-2.552l-0.495,0.55v2.002h-0.957v-7.811h0.957V192.675z"/>
	<path fill="#C25679" d="M355.848,194.281c0,0.462,0.022,0.913,0.077,1.276h-0.869l-0.077-0.671h-0.033
		c-0.297,0.418-0.869,0.792-1.628,0.792c-1.078,0-1.628-0.759-1.628-1.529c0-1.287,1.144-1.991,3.201-1.98v-0.11
		c0-0.429-0.121-1.232-1.21-1.221c-0.506,0-1.023,0.143-1.397,0.396l-0.22-0.649c0.44-0.275,1.089-0.462,1.76-0.462
		c1.628,0,2.024,1.111,2.024,2.167V194.281z M354.913,192.84c-1.056-0.022-2.255,0.165-2.255,1.199c0,0.638,0.418,0.924,0.902,0.924
		c0.704,0,1.155-0.44,1.309-0.891c0.033-0.11,0.044-0.22,0.044-0.308V192.84z"/>
	<path fill="#C25679" d="M359.653,194.392c0.429,0.275,1.045,0.484,1.705,0.484c0.979,0,1.551-0.517,1.551-1.265
		c0-0.682-0.396-1.089-1.397-1.463c-1.21-0.44-1.958-1.078-1.958-2.112c0-1.155,0.957-2.013,2.398-2.013
		c0.748,0,1.309,0.176,1.628,0.363l-0.264,0.781c-0.231-0.143-0.726-0.352-1.397-0.352c-1.012,0-1.397,0.605-1.397,1.111
		c0,0.693,0.451,1.034,1.474,1.43c1.254,0.484,1.881,1.089,1.881,2.178c0,1.145-0.836,2.146-2.585,2.146
		c-0.715,0-1.497-0.22-1.893-0.484L359.653,194.392z"/>
</g>
<g>
	<path fill="#C25679" d="M364.527,188.957v1.276h1.386v0.737h-1.386v2.872c0,0.66,0.187,1.034,0.726,1.034
		c0.264,0,0.418-0.022,0.561-0.066l0.044,0.737c-0.187,0.066-0.484,0.132-0.858,0.132c-0.451,0-0.814-0.154-1.045-0.407
		c-0.264-0.297-0.374-0.77-0.374-1.397v-2.905h-0.825v-0.737h0.825v-0.99L364.527,188.957z"/>
</g>
<g>
	<path fill="#C25679" d="M370.643,194.281c0,0.462,0.022,0.913,0.077,1.276h-0.869l-0.077-0.671h-0.033
		c-0.297,0.418-0.869,0.792-1.628,0.792c-1.078,0-1.628-0.759-1.628-1.529c0-1.287,1.144-1.991,3.201-1.98v-0.11
		c0-0.429-0.121-1.232-1.21-1.221c-0.506,0-1.023,0.143-1.397,0.396l-0.22-0.649c0.44-0.275,1.089-0.462,1.76-0.462
		c1.628,0,2.024,1.111,2.024,2.167V194.281z M369.708,192.84c-1.056-0.022-2.255,0.165-2.255,1.199c0,0.638,0.418,0.924,0.902,0.924
		c0.704,0,1.155-0.44,1.309-0.891c0.033-0.11,0.044-0.22,0.044-0.308V192.84z"/>
</g>
<g>
	<path fill="#C25679" d="M372.15,191.894c0-0.627-0.011-1.166-0.044-1.661h0.847l0.044,1.056h0.033
		c0.242-0.715,0.836-1.166,1.485-1.166c0.099,0,0.176,0.011,0.264,0.022v0.913c-0.099-0.022-0.198-0.022-0.33-0.022
		c-0.682,0-1.166,0.506-1.298,1.232c-0.022,0.132-0.033,0.297-0.033,0.451v2.838h-0.968V191.894z"/>
</g>
<g>
	<path fill="#C25679" d="M380.532,192.851c0,1.969-1.375,2.828-2.651,2.828c-1.43,0-2.552-1.056-2.552-2.739
		c0-1.771,1.177-2.816,2.641-2.816C379.498,190.123,380.532,191.234,380.532,192.851z M376.318,192.906
		c0,1.166,0.66,2.046,1.606,2.046c0.924,0,1.617-0.869,1.617-2.068c0-0.902-0.451-2.035-1.595-2.035
		C376.813,190.849,376.318,191.905,376.318,192.906z"/>
	<path fill="#C25679" d="M381.752,191.674c0-0.561-0.011-1.001-0.044-1.441h0.858l0.055,0.88h0.022c0.264-0.495,0.88-0.99,1.76-0.99
		c0.737,0,1.881,0.44,1.881,2.266v3.168h-0.968v-3.069c0-0.858-0.319-1.573-1.232-1.573c-0.627,0-1.122,0.451-1.298,0.99
		c-0.044,0.121-0.066,0.286-0.066,0.451v3.202h-0.968V191.674z"/>
</g>
<g>
	<path fill="#C25679" d="M391.158,192.851c0,1.969-1.375,2.828-2.651,2.828c-1.43,0-2.552-1.056-2.552-2.739
		c0-1.771,1.177-2.816,2.641-2.816C390.125,190.123,391.158,191.234,391.158,192.851z M386.945,192.906
		c0,1.166,0.66,2.046,1.606,2.046c0.924,0,1.617-0.869,1.617-2.068c0-0.902-0.451-2.035-1.595-2.035
		C387.44,190.849,386.945,191.905,386.945,192.906z"/>
</g>
<g>
	<path fill="#C25679" d="M391.851,190.233l1.045,2.981c0.176,0.495,0.319,0.935,0.429,1.375h0.033
		c0.121-0.44,0.275-0.88,0.451-1.375l1.034-2.981h1.012l-2.09,5.325h-0.924l-2.024-5.325H391.851z"/>
</g>
<g>
	<path fill="#C25679" d="M399.914,194.281c0,0.462,0.022,0.913,0.077,1.276h-0.869l-0.077-0.671h-0.033
		c-0.297,0.418-0.869,0.792-1.628,0.792c-1.078,0-1.628-0.759-1.628-1.529c0-1.287,1.144-1.991,3.201-1.98v-0.11
		c0-0.429-0.121-1.232-1.21-1.221c-0.506,0-1.023,0.143-1.397,0.396l-0.22-0.649c0.44-0.275,1.089-0.462,1.76-0.462
		c1.628,0,2.024,1.111,2.024,2.167V194.281z M398.979,192.84c-1.056-0.022-2.255,0.165-2.255,1.199c0,0.638,0.418,0.924,0.902,0.924
		c0.704,0,1.155-0.44,1.309-0.891c0.033-0.11,0.044-0.22,0.044-0.308V192.84z M399.463,187.934l-1.342,1.573h-0.682l0.957-1.573
		H399.463z"/>
</g>
<g>
	<path fill="#725548" d="M339.393,206.304c-0.055-1.034-0.121-2.289-0.121-3.202h-0.022c-0.264,0.858-0.561,1.793-0.935,2.816
		l-1.309,3.598h-0.726l-1.21-3.532c-0.352-1.056-0.638-2.002-0.847-2.882H334.2c-0.022,0.924-0.077,2.156-0.143,3.278l-0.198,3.18
		h-0.913l0.517-7.415h1.221l1.265,3.586c0.308,0.913,0.55,1.728,0.748,2.498h0.022c0.198-0.748,0.462-1.563,0.792-2.498l1.32-3.586
		h1.221l0.462,7.415h-0.946L339.393,206.304z"/>
</g>
<g>
	<path fill="#725548" d="M341.768,202.74c0,0.33-0.231,0.594-0.616,0.594c-0.352,0-0.583-0.264-0.583-0.594s0.242-0.605,0.605-0.605
		C341.525,202.134,341.768,202.398,341.768,202.74z M340.689,209.561v-5.325h0.968v5.325H340.689z"/>
	<path fill="#725548" d="M346.729,209.374c-0.253,0.121-0.814,0.308-1.529,0.308c-1.606,0-2.651-1.089-2.651-2.717
		c0-1.64,1.122-2.838,2.86-2.838c0.572,0,1.078,0.143,1.342,0.286l-0.22,0.737c-0.231-0.121-0.594-0.253-1.123-0.253
		c-1.221,0-1.881,0.913-1.881,2.013c0,1.232,0.792,1.991,1.849,1.991c0.55,0,0.913-0.132,1.188-0.253L346.729,209.374z"/>
</g>
<g>
	<path fill="#725548" d="M347.851,201.75h0.968v3.333h0.022c0.154-0.275,0.396-0.528,0.693-0.693
		c0.286-0.165,0.627-0.264,0.99-0.264c0.715,0,1.859,0.44,1.859,2.266v3.168h-0.968v-3.059c0-0.858-0.319-1.573-1.232-1.573
		c-0.627,0-1.111,0.44-1.298,0.958c-0.055,0.143-0.066,0.286-0.066,0.462v3.212h-0.968V201.75z"/>
	<path fill="#725548" d="M357.388,208.284c0,0.462,0.022,0.913,0.077,1.276h-0.869l-0.077-0.671h-0.033
		c-0.297,0.418-0.869,0.792-1.628,0.792c-1.078,0-1.628-0.759-1.628-1.529c0-1.287,1.144-1.991,3.201-1.98v-0.11
		c0-0.429-0.121-1.232-1.21-1.221c-0.506,0-1.023,0.143-1.397,0.396l-0.22-0.649c0.44-0.275,1.089-0.462,1.76-0.462
		c1.628,0,2.024,1.111,2.024,2.167V208.284z M356.453,206.843c-1.056-0.022-2.255,0.165-2.255,1.199
		c0,0.638,0.418,0.924,0.902,0.924c0.704,0,1.155-0.44,1.309-0.891c0.033-0.11,0.044-0.22,0.044-0.308V206.843z"/>
</g>
<g>
	<path fill="#725548" d="M357.861,201.75h0.968v7.811h-0.968V201.75z"/>
</g>
<g>
	<path fill="#725548" d="M362.425,202.146h0.958v3.576h0.033c0.198-0.286,0.396-0.55,0.583-0.792l2.267-2.783h1.188l-2.684,3.146
		l2.893,4.269h-1.133l-2.432-3.642l-0.715,0.814v2.828h-0.958V202.146z"/>
</g>
<g>
	<path fill="#725548" d="M367.596,201.75h0.968v7.811h-0.968V201.75z"/>
</g>
<g>
	<path fill="#725548" d="M373.844,208.284c0,0.462,0.022,0.913,0.077,1.276h-0.869l-0.077-0.671h-0.033
		c-0.297,0.418-0.869,0.792-1.628,0.792c-1.078,0-1.628-0.759-1.628-1.529c0-1.287,1.144-1.991,3.201-1.98v-0.11
		c0-0.429-0.121-1.232-1.21-1.221c-0.506,0-1.023,0.143-1.397,0.396l-0.22-0.649c0.44-0.275,1.089-0.462,1.76-0.462
		c1.628,0,2.024,1.111,2.024,2.167V208.284z M372.909,206.843c-1.056-0.022-2.255,0.165-2.255,1.199
		c0,0.638,0.418,0.924,0.902,0.924c0.704,0,1.155-0.44,1.309-0.891c0.033-0.11,0.044-0.22,0.044-0.308V206.843z"/>
</g>
<g>
	<path fill="#725548" d="M375.032,205.974c0-0.682-0.022-1.232-0.044-1.738h0.858l0.055,0.913h0.022
		c0.385-0.649,1.023-1.023,1.892-1.023c1.298,0,2.267,1.089,2.267,2.695c0,1.914-1.177,2.86-2.432,2.86
		c-0.704,0-1.32-0.308-1.639-0.836h-0.022v2.894h-0.957V205.974z M375.989,207.393c0,0.143,0.011,0.275,0.044,0.396
		c0.176,0.671,0.759,1.133,1.452,1.133c1.023,0,1.617-0.836,1.617-2.057c0-1.056-0.561-1.969-1.584-1.969
		c-0.66,0-1.287,0.462-1.463,1.188c-0.033,0.121-0.066,0.264-0.066,0.385V207.393z"/>
</g>
<g>
	<path fill="#725548" d="M383.733,208.284c0,0.462,0.022,0.913,0.077,1.276h-0.869l-0.077-0.671h-0.033
		c-0.297,0.418-0.869,0.792-1.628,0.792c-1.078,0-1.628-0.759-1.628-1.529c0-1.287,1.144-1.991,3.201-1.98v-0.11
		c0-0.429-0.121-1.232-1.21-1.221c-0.506,0-1.023,0.143-1.397,0.396l-0.22-0.649c0.44-0.275,1.089-0.462,1.76-0.462
		c1.628,0,2.024,1.111,2.024,2.167V208.284z M382.798,206.843c-1.056-0.022-2.255,0.165-2.255,1.199
		c0,0.638,0.418,0.924,0.902,0.924c0.704,0,1.155-0.44,1.309-0.891c0.033-0.11,0.044-0.22,0.044-0.308V206.843z"/>
</g>
<g>
	<path fill="#725548" d="M384.92,201.75h0.968v7.811h-0.968V201.75z"/>
</g>
<g>
	<defs>
		<rect id="SVGID_3_" x="81.819" y="68.038" width="105.8" height="85.039"/>
	</defs>
	<clipPath id="SVGID_4_">
		<use xlink:href="#SVGID_3_"  overflow="visible"/>
	</clipPath>
	<circle clip-path="url(#SVGID_4_)" fill="none" stroke="#000000" cx="134.719" cy="110.557" r="30.098"/>
	<circle clip-path="url(#SVGID_4_)" fill="none" stroke="#000000" cx="134.719" cy="110.558" r="42.02"/>
</g>
<g>
	<path d="M116.097,140.348l-0.015-0.01l-1.153-0.088l0.197-0.59l1.446,0.115l0.568,0.364l-3.16,4.925l-0.644-0.414L116.097,140.348z
		"/>
</g>
<g>
	<path d="M117.654,143.573c-0.444-0.572-0.463-1.147-0.232-1.597c0.423-0.824,1.407-1.027,2.328-0.556
		c1.01,0.518,1.202,1.405,0.865,2.063c-0.226,0.44-0.697,0.806-1.489,0.773l-0.013,0.024c0.517,0.589,0.68,1.259,0.359,1.884
		c-0.469,0.913-1.554,1.115-2.547,0.606c-1.09-0.56-1.418-1.537-1.027-2.298c0.337-0.657,0.972-0.929,1.752-0.872L117.654,143.573z
		 M118.722,145.871c0.321-0.624,0.041-1.162-0.562-1.725c-0.7-0.136-1.237,0.104-1.491,0.601c-0.292,0.508-0.13,1.179,0.535,1.52
		C117.837,146.59,118.447,146.408,118.722,145.871z M118.119,142.273c-0.275,0.517-0.018,1.003,0.5,1.471
		c0.526,0.078,1.035-0.065,1.278-0.538c0.213-0.417,0.187-0.977-0.446-1.301C118.867,141.605,118.349,141.825,118.119,142.273z"/>
</g>
<g>
	<path d="M121.232,147.991c0.104-0.307,0.395-0.465,0.693-0.364c0.298,0.102,0.428,0.393,0.32,0.708
		c-0.104,0.307-0.387,0.468-0.702,0.36C121.254,148.597,121.128,148.297,121.232,147.991z"/>
</g>
<g>
	<path d="M126.257,144.677l-0.018-0.006l-1.128,0.25l0.018-0.622l1.417-0.309l0.648,0.185l-1.602,5.629l-0.736-0.209
		L126.257,144.677z"/>
</g>
<g>
	<defs>
		<rect id="SVGID_5_" x="81.819" y="68.038" width="105.8" height="85.039"/>
	</defs>
	<clipPath id="SVGID_6_">
		<use xlink:href="#SVGID_5_"  overflow="visible"/>
	</clipPath>
	<g clip-path="url(#SVGID_6_)">
		<path d="M131.967,147.766c-0.251,1.974-1.131,2.968-2.409,2.806c-1.134-0.145-1.775-1.307-1.549-3.229
			c0.25-1.956,1.233-2.91,2.412-2.761C131.636,144.738,132.203,145.917,131.967,147.766z M128.804,147.454
			c-0.192,1.509,0.162,2.426,0.876,2.517c0.795,0.102,1.299-0.788,1.488-2.27c0.182-1.43-0.055-2.412-0.877-2.517
			C129.612,145.097,129.005,145.873,128.804,147.454z"/>
	</g>
	<g clip-path="url(#SVGID_6_)">
		<path d="M133.79,150.314c0.008-0.324,0.24-0.561,0.555-0.553c0.314,0.008,0.525,0.247,0.516,0.58
			c-0.008,0.324-0.23,0.562-0.563,0.553C133.992,150.886,133.782,150.638,133.79,150.314z"/>
	</g>
	<g clip-path="url(#SVGID_6_)">
		<path d="M136.644,150.764l-0.037-0.485l0.573-0.648c1.382-1.532,2.007-2.338,1.939-3.218c-0.045-0.593-0.365-1.119-1.235-1.052
			c-0.53,0.041-0.95,0.343-1.202,0.588l-0.293-0.538c0.369-0.362,0.934-0.667,1.598-0.718c1.256-0.096,1.852,0.726,1.915,1.561
			c0.082,1.077-0.632,2.007-1.771,3.286l-0.425,0.466l0.002,0.018l2.611-0.199l0.05,0.655L136.644,150.764z"/>
	</g>
	<g clip-path="url(#SVGID_6_)">
		<path d="M146.461,145.956c0.545,1.913,0.127,3.174-1.111,3.526c-1.1,0.313-2.146-0.503-2.692-2.36
			c-0.54-1.896-0.011-3.161,1.132-3.486C144.967,143.301,145.952,144.163,146.461,145.956z M143.43,146.911
			c0.417,1.463,1.104,2.167,1.796,1.97c0.771-0.219,0.884-1.235,0.476-2.671c-0.395-1.386-1-2.196-1.797-1.97
			C143.248,144.427,142.995,145.379,143.43,146.911z"/>
	</g>
</g>
<g>
	<path d="M149.268,142.534l-0.016,0.008l-0.7,0.92l-0.389-0.486l0.883-1.151l0.614-0.278l2.414,5.331l-0.697,0.315L149.268,142.534z
		"/>
</g>
<g>
	<path d="M155.562,144.994l-0.799-1.389l-2.356,1.356l-0.256-0.445l0.398-4.539l0.741-0.427l1.814,3.151l0.71-0.409l0.306,0.531
		l-0.711,0.409l0.8,1.39L155.562,144.994z M154.458,143.074l-0.976-1.692c-0.152-0.266-0.297-0.535-0.434-0.809l-0.023,0.013
		c0.015,0.386,0.016,0.677,0.01,0.992l-0.248,2.438l0.009,0.016L154.458,143.074z"/>
</g>
<g>
	<path d="M104.054,97.49l-4.794-0.462l0.259-0.591l2.352,0.252c0.643,0.074,1.22,0.142,1.763,0.239l0.006-0.013
		c-0.433-0.33-0.888-0.73-1.351-1.163l-1.761-1.616l0.253-0.579l3.535,3.335L104.054,97.49z"/>
</g>
<g>
	<path d="M103.995,94.267l1.024,1.118l-0.299,0.533l-3.231-3.598l0.346-0.616l4.756,0.872l-0.308,0.551l-1.495-0.275L103.995,94.267
		z M104.328,92.727l-1.371-0.247c-0.31-0.057-0.581-0.13-0.845-0.2l-0.007,0.012c0.198,0.188,0.413,0.388,0.61,0.606l0.936,1.037
		L104.328,92.727z"/>
</g>
<g>
	<path d="M102.668,90.314l0.328-0.499l3.408,2.246l1.076-1.633l0.414,0.272l-1.405,2.132L102.668,90.314z"/>
</g>
<g>
	<path d="M107.266,89.227l0.822,1.273l-0.383,0.476l-2.584-4.088l0.443-0.55l4.543,1.655l-0.396,0.492l-1.428-0.522L107.266,89.227z
		 M107.852,87.764l-1.311-0.472c-0.297-0.108-0.551-0.226-0.8-0.339l-0.009,0.01c0.164,0.219,0.344,0.451,0.5,0.7l0.75,1.179
		L107.852,87.764z"/>
</g>
<g>
	<path d="M107.201,84.117l-1.052-0.03l0.352-0.359l0.638,0.016l0.01-0.01l-0.036-0.633l0.337-0.345l0.069,1.036L107.201,84.117z
		 M109.39,87.774c0.307-0.071,0.665-0.252,0.949-0.544c0.423-0.432,0.44-0.908,0.11-1.23c-0.302-0.294-0.651-0.295-1.249-0.014
		c-0.716,0.345-1.32,0.4-1.776-0.046c-0.511-0.498-0.477-1.291,0.145-1.927c0.322-0.331,0.643-0.502,0.861-0.562l0.232,0.453
		c-0.162,0.041-0.469,0.169-0.758,0.465c-0.438,0.447-0.336,0.878-0.112,1.097c0.306,0.299,0.651,0.247,1.268-0.034
		c0.755-0.345,1.292-0.361,1.772,0.108c0.506,0.494,0.588,1.294-0.167,2.067c-0.309,0.316-0.742,0.566-1.03,0.626L109.39,87.774z"/>
</g>
<g>
	<path d="M111.794,85.364c0.312-0.041,0.686-0.188,0.996-0.451c0.462-0.39,0.525-0.862,0.228-1.214
		c-0.272-0.322-0.621-0.356-1.242-0.133c-0.746,0.275-1.352,0.272-1.765-0.215c-0.46-0.544-0.352-1.33,0.327-1.904
		c0.354-0.298,0.688-0.439,0.912-0.478l0.188,0.473c-0.166,0.025-0.482,0.124-0.799,0.391c-0.478,0.403-0.418,0.842-0.216,1.081
		c0.276,0.326,0.625,0.307,1.265,0.086c0.785-0.272,1.321-0.237,1.755,0.276c0.456,0.54,0.462,1.344-0.362,2.042
		c-0.338,0.285-0.793,0.493-1.086,0.526L111.794,85.364z"/>
</g>
<g>
	<path d="M112.202,80.05l0.486-0.337l1.258,1.813l0.017-0.011c-0.001-0.215,0.007-0.418,0.017-0.607l0.17-2.208l0.603-0.418
		l-0.254,2.54l2.969,1.147l-0.574,0.398l-2.515-0.991l-0.076,0.664l0.995,1.434l-0.485,0.337L112.202,80.05z"/>
</g>
<g>
	<path d="M117.057,75.816l-0.37,1.118l-0.421,0.235l0.163-1.001L117.057,75.816z M117.503,80.352l0.288,1.488l-0.533,0.298
		l-0.873-4.756l0.616-0.345l3.599,3.231l-0.551,0.308l-1.131-1.017L117.503,80.352z M118.592,79.213l-1.04-0.928
		c-0.234-0.21-0.427-0.414-0.615-0.612l-0.011,0.007c0.069,0.264,0.148,0.546,0.202,0.835l0.256,1.375L118.592,79.213z"/>
</g>
<g>
</g>
<g>
	<path d="M119.761,75.756c0.26-0.157,0.651-0.35,1.025-0.492c0.59-0.225,1.021-0.259,1.37-0.122c0.282,0.11,0.521,0.354,0.648,0.689
		c0.213,0.559,0,1.068-0.387,1.39l0.007,0.019c0.367-0.01,0.681,0.221,0.951,0.626c0.367,0.543,0.625,0.917,0.777,1.048
		l-0.571,0.218c-0.118-0.1-0.351-0.426-0.669-0.915c-0.352-0.542-0.67-0.674-1.179-0.503l-0.521,0.198l0.705,1.853l-0.551,0.21
		L119.761,75.756z M121.054,77.494l0.564-0.215c0.592-0.225,0.842-0.691,0.656-1.179c-0.211-0.552-0.702-0.641-1.286-0.419
		c-0.267,0.102-0.443,0.191-0.528,0.252L121.054,77.494z"/>
</g>
<g>
	<path d="M125.643,78.483l-0.555-1.861l-2.145-2.109l0.65-0.194l0.979,1.026c0.262,0.284,0.478,0.51,0.705,0.775l0.014-0.004
		c0.031-0.322,0.103-0.654,0.173-1.037l0.271-1.398l0.637-0.19l-0.712,2.955l0.557,1.867L125.643,78.483z"/>
</g>
<g>
	<path d="M130.551,77.276c-0.187,0.146-0.6,0.336-1.146,0.441c-1.267,0.244-2.367-0.375-2.651-1.855
		c-0.271-1.413,0.5-2.543,1.894-2.811c0.554-0.106,0.937-0.055,1.105-0.005l-0.056,0.502c-0.234-0.066-0.563-0.086-0.937-0.014
		c-1.054,0.203-1.624,1.011-1.397,2.191c0.213,1.107,0.98,1.686,2.067,1.477c0.36-0.069,0.706-0.211,0.918-0.37L130.551,77.276z"/>
</g>
<g>
	<path d="M131.199,72.806l0.121,1.911l2.209-0.141l-0.121-1.911l0.596-0.038l0.291,4.567l-0.597,0.038l-0.136-2.141l-2.209,0.141
		l0.136,2.141l-0.597,0.038l-0.29-4.567L131.199,72.806z"/>
</g>
<g>
	<path d="M135.515,73.171l-1.392-0.018l0.006-0.502l3.388,0.043l-0.006,0.502l-1.398-0.018l-0.052,4.074l-0.598-0.007
		L135.515,73.171z"/>
</g>
<g>
	<path d="M137.832,75.935l-0.602,1.392l-0.608-0.054l1.961-4.42l0.703,0.063l1.15,4.697l-0.629-0.057l-0.359-1.478L137.832,75.935z
		 M139.375,75.609l-0.337-1.353c-0.074-0.307-0.118-0.583-0.163-0.854l-0.013-0.001c-0.091,0.258-0.185,0.536-0.303,0.806
		l-0.564,1.278L139.375,75.609z"/>
</g>
<g>
</g>
<g>
	<path d="M142.713,72.969l-1.281,6.669l-0.447-0.086l1.281-6.669L142.713,72.969z"/>
</g>
<g>
</g>
<g>
	<path d="M144.918,74.042l2.362,0.704l-0.142,0.475l-1.789-0.534l-0.435,1.458l1.652,0.493l-0.14,0.469l-1.652-0.492l-0.591,1.984
		l-0.573-0.172L144.918,74.042z"/>
</g>
<g>
	<path d="M147.551,74.916c0.297,0.063,0.714,0.19,1.085,0.342c0.585,0.239,0.922,0.509,1.084,0.847
		c0.13,0.274,0.138,0.614,0.001,0.947c-0.227,0.553-0.73,0.78-1.231,0.751l-0.008,0.019c0.274,0.244,0.346,0.626,0.267,1.106
		c-0.104,0.648-0.17,1.097-0.149,1.297l-0.565-0.232c-0.018-0.153,0.035-0.55,0.138-1.125c0.113-0.635-0.029-0.95-0.518-1.172
		l-0.516-0.211l-0.751,1.834l-0.547-0.224L147.551,74.916z M147.308,77.069l0.559,0.229c0.585,0.239,1.087,0.07,1.284-0.413
		c0.225-0.547-0.073-0.947-0.651-1.184c-0.264-0.108-0.454-0.164-0.559-0.178L147.308,77.069z"/>
</g>
<g>
	<path d="M152.143,79.605l-1.586-0.79l-0.735,1.478l1.774,0.883l-0.221,0.444l-2.31-1.15l2.039-4.097l2.219,1.104l-0.221,0.443
		l-1.684-0.838l-0.644,1.295l1.586,0.789L152.143,79.605z"/>
</g>
<g>
	<path d="M151.408,81.689l2.425-3.881l0.553,0.345l0.011,2.737c-0.002,0.631-0.027,1.184-0.097,1.693l0.021,0.004
		c0.277-0.547,0.561-1.025,0.939-1.631l1.015-1.623l0.472,0.295l-2.425,3.881l-0.506-0.316l-0.001-2.74
		c-0.001-0.601,0.017-1.206,0.089-1.745l-0.021-0.005c-0.277,0.508-0.563,0.978-0.966,1.623l-1.037,1.658L151.408,81.689z"/>
</g>
<g>
	<path d="M154.776,83c0.1,0.299,0.315,0.638,0.632,0.893c0.471,0.38,0.946,0.354,1.236-0.006c0.264-0.328,0.232-0.678-0.105-1.244
		c-0.411-0.681-0.523-1.277-0.123-1.773c0.447-0.556,1.239-0.598,1.932-0.039c0.36,0.289,0.562,0.592,0.642,0.805l-0.429,0.273
		c-0.056-0.158-0.212-0.451-0.535-0.711c-0.486-0.393-0.906-0.25-1.102-0.007c-0.269,0.333-0.184,0.672,0.154,1.259
		c0.415,0.718,0.482,1.252,0.061,1.775c-0.443,0.549-1.232,0.707-2.073,0.029c-0.344-0.277-0.634-0.686-0.722-0.965L154.776,83z
		 M158.209,80.473l-0.07-1.05l0.391,0.315l0.044,0.637l0.011,0.01l0.627-0.097l0.375,0.302l-1.024,0.168L158.209,80.473z"/>
</g>
<g>
	<path d="M160.374,83.351l-1.019-0.948l0.342-0.368l2.479,2.309l-0.342,0.368l-1.023-0.953l-2.776,2.982l-0.438-0.408
		L160.374,83.351z"/>
</g>
<g>
	<path d="M160.253,86.963l-1.392,0.6l-0.405-0.457l4.459-1.87l0.468,0.528l-2.386,4.206l-0.419-0.473l0.751-1.321L160.253,86.963z
		 M161.6,87.784l0.683-1.215c0.156-0.273,0.313-0.506,0.467-0.732l-0.009-0.01c-0.243,0.125-0.502,0.264-0.773,0.378l-1.287,0.543
		L161.6,87.784z M164.588,85.557l-1.171-0.123l-0.32-0.36l1.013-0.056L164.588,85.557z"/>
</g>
<g>
	<path d="M164.5,87.94l-0.848-1.104l0.399-0.306l2.063,2.688l-0.399,0.307l-0.851-1.109l-3.232,2.479l-0.364-0.474L164.5,87.94z"/>
</g>
<g>
</g>
<g>
	<path d="M166.65,90.237c0.191,0.216,0.423,0.512,0.675,0.914c0.31,0.495,0.421,0.93,0.358,1.289
		c-0.055,0.322-0.255,0.633-0.6,0.848c-0.352,0.22-0.692,0.289-1.017,0.219c-0.451-0.094-0.862-0.431-1.167-0.92
		c-0.093-0.149-0.174-0.291-0.216-0.424l-1.555,0.971l-0.313-0.5L166.65,90.237z M165.092,91.907
		c0.039,0.127,0.114,0.272,0.218,0.439c0.378,0.604,0.907,0.785,1.431,0.459c0.519-0.324,0.536-0.848,0.194-1.395
		c-0.137-0.219-0.258-0.375-0.335-0.447L165.092,91.907z"/>
</g>
<g>
	<path d="M164.25,94.35c0.216-0.114,0.458-0.05,0.569,0.16c0.111,0.211,0.031,0.438-0.191,0.555
		c-0.216,0.113-0.454,0.056-0.571-0.167C163.948,94.694,164.034,94.464,164.25,94.35z"/>
</g>
<g>
</g>
<g>
	<path d="M169.275,95.073c0.163,0.256,0.365,0.643,0.517,1.014c0.239,0.584,0.283,1.014,0.156,1.367
		c-0.103,0.284-0.34,0.528-0.673,0.664c-0.554,0.227-1.069,0.026-1.399-0.352l-0.019,0.008c0.018,0.366-0.204,0.685-0.603,0.966
		c-0.534,0.38-0.901,0.647-1.029,0.803l-0.232-0.566c0.098-0.12,0.417-0.361,0.899-0.69c0.533-0.365,0.658-0.688,0.473-1.191
		l-0.211-0.516l-1.835,0.752l-0.224-0.547L169.275,95.073z M167.569,96.41l0.229,0.559c0.239,0.585,0.712,0.824,1.195,0.626
		c0.547-0.224,0.624-0.718,0.388-1.296c-0.108-0.264-0.202-0.438-0.266-0.521L167.569,96.41z"/>
</g>
<g>
	<path d="M166.64,99.797c0.232-0.076,0.459,0.029,0.533,0.255c0.074,0.226-0.043,0.436-0.283,0.513
		c-0.232,0.076-0.457-0.022-0.535-0.262C166.284,100.084,166.408,99.873,166.64,99.797z"/>
</g>
<g>
</g>
<rect x="90.251" y="102.998" fill="#FFFFFF" width="88.937" height="20.835"/>
<line fill="none" stroke="#000000" x1="90.064" y1="124.184" x2="179.14" y2="124.184"/>
<g>
	<path fill="#C25679" d="M104.122,113.271c-0.075,0.427-0.37,0.641-0.885,0.641h-2.371l-0.737,2.083h-1.442l0.745-2.083h-1.354
		c-0.759,1.861-1.954,2.793-3.585,2.796c-0.44,0-0.803-0.087-1.085-0.26c-0.342-0.208-0.513-0.521-0.513-0.938
		c0-0.326,0.109-0.654,0.328-0.985c0.553-0.835,1.569-1.253,3.048-1.253h0.585l1.237-3.521h1.438l-1.257,3.521h1.377l1.025-2.912
		h1.446l-1.034,2.912H104.122z M96.627,113.912h-0.116c-0.526,0-0.999,0.135-1.418,0.405c-0.483,0.31-0.725,0.713-0.725,1.209
		c0,0.345,0.153,0.517,0.46,0.517c0.384,0,0.765-0.27,1.142-0.809C96.251,114.831,96.47,114.39,96.627,113.912z"/>
	<path fill="#C25679" d="M107.306,115.354c-0.128,0.427-0.455,0.641-0.981,0.641h-1.518c-0.433,0-0.649-0.139-0.649-0.417
		c-0.291,0.331-0.649,0.497-1.074,0.497c-0.313,0-0.566-0.096-0.761-0.289c-0.195-0.192-0.292-0.443-0.292-0.753
		c0-0.558,0.213-0.999,0.641-1.322c0.387-0.293,0.867-0.44,1.438-0.44h2.287l-0.753,2.083H107.306z M104.722,113.912h-0.885
		l-0.281,0.934c-0.016,0.059-0.024,0.112-0.024,0.16c0,0.232,0.227,0.349,0.681,0.349L104.722,113.912z"/>
	<path fill="#C25679" d="M112.785,115.354c-0.069,0.235-0.223,0.408-0.46,0.521c-0.168,0.08-0.349,0.12-0.541,0.12h-1.598
		c-0.366,0-0.548-0.12-0.548-0.36c0-0.08,0.019-0.174,0.056-0.28l0.305-0.861l-1.378,1.166c-0.323,0.224-0.589,0.336-0.797,0.336
		h-0.737l0.958-2.724h1.446l-0.453,1.282l1.222-1.001c0.331-0.27,0.69-0.399,1.078-0.389c0.262,0.011,0.393,0.15,0.393,0.417
		c0,0.099-0.021,0.209-0.064,0.332l-0.517,1.442H112.785z"/>
	<path fill="#C25679" d="M118.233,115.354c-0.067,0.235-0.221,0.408-0.461,0.521c-0.168,0.08-0.348,0.12-0.541,0.12h-1.574
		c-0.366,0-0.549-0.142-0.549-0.425c0-0.088,0.019-0.184,0.056-0.288l0.413-1.118c-0.123,0.128-0.613,0.574-1.47,1.338
		c-0.211,0.192-0.371,0.318-0.48,0.376c-0.144,0.078-0.318,0.116-0.521,0.116h-0.597l1.707-4.831h1.442l-1.065,2.992l1.598-1.59
		h0.921l-0.929,0.961h0.304c0.371,0,0.557,0.143,0.557,0.429c0,0.091-0.021,0.196-0.064,0.316l-0.393,1.082H118.233z"/>
	<path fill="#C25679" d="M123.423,115.354c-0.128,0.427-0.455,0.641-0.981,0.641h-1.518c-0.433,0-0.649-0.139-0.649-0.417
		c-0.291,0.331-0.649,0.497-1.074,0.497c-0.313,0-0.566-0.096-0.761-0.289c-0.195-0.192-0.292-0.443-0.292-0.753
		c0-0.558,0.213-0.999,0.641-1.322c0.387-0.293,0.867-0.44,1.438-0.44h2.287l-0.753,2.083H123.423z M120.84,113.912h-0.885
		l-0.281,0.934c-0.016,0.059-0.024,0.112-0.024,0.16c0,0.232,0.227,0.349,0.681,0.349L120.84,113.912z"/>
</g>
<g>
	<path fill="#725548" d="M154.611,115.354c-0.112,0.427-0.483,0.641-1.113,0.641h-1.438c-0.449,0-0.673-0.129-0.673-0.389
		c0-0.091,0.028-0.209,0.084-0.356l0.665-1.73l-1.986,2.179c-0.214,0.238-0.447,0.356-0.701,0.356c-0.048,0-0.099-0.004-0.152-0.012
		c-0.304-0.035-0.457-0.187-0.457-0.457c0-0.104,0.024-0.216,0.072-0.336l0.985-2.543l-2.471,2.984
		c-0.166,0.203-0.409,0.304-0.729,0.304h-0.813l1.618-4.626h-2.223l0.604-1.009h2.676c0.369,0,0.553,0.135,0.553,0.405
		c0,0.104-0.025,0.229-0.076,0.376l-0.861,2.483l1.722-1.951c0.219-0.251,0.387-0.414,0.505-0.489
		c0.195-0.123,0.447-0.184,0.757-0.184c0.088,0,0.18,0.031,0.276,0.092c0.147,0.096,0.22,0.239,0.22,0.429
		c0,0.118-0.029,0.25-0.088,0.396l-0.777,2.019l1.542-1.55c0.219-0.219,0.365-0.351,0.437-0.396
		c0.125-0.072,0.306-0.107,0.541-0.104c0.093,0,0.192,0.035,0.296,0.104c0.16,0.104,0.24,0.256,0.24,0.457
		c0,0.115-0.027,0.242-0.08,0.38l-0.957,2.528H154.611z"/>
	<path fill="#725548" d="M157.655,115.354c-0.07,0.235-0.214,0.408-0.433,0.521c-0.158,0.08-0.329,0.12-0.513,0.12h-1.582
		c-0.382,0-0.573-0.16-0.573-0.48c0-0.091,0.019-0.188,0.056-0.292l0.697-1.951h1.454l-0.741,2.083H157.655z M157.367,111.629
		c0,0.267-0.104,0.494-0.311,0.681c-0.207,0.187-0.456,0.28-0.747,0.28c-0.297,0-0.548-0.093-0.755-0.28s-0.311-0.414-0.311-0.681
		c0-0.265,0.104-0.49,0.311-0.677c0.207-0.187,0.458-0.28,0.755-0.28c0.291,0,0.54,0.094,0.747,0.28
		C157.263,111.139,157.367,111.364,157.367,111.629z"/>
</g>
<g>
	<path fill="#725548" d="M162.676,115.354c-0.059,0.208-0.182,0.37-0.369,0.484c-0.171,0.104-0.37,0.156-0.597,0.156h-2.411
		c-0.459,0-0.845-0.078-1.158-0.232c-0.395-0.195-0.593-0.489-0.593-0.881c0-0.043,0.003-0.087,0.008-0.132
		c0.053-0.478,0.301-0.852,0.745-1.122c0.39-0.238,0.851-0.356,1.382-0.356h1.01c0.227,0,0.42,0.072,0.581,0.216
		s0.24,0.32,0.24,0.529c0,0.211-0.081,0.39-0.242,0.537s-0.354,0.22-0.579,0.22c-0.227,0-0.42-0.074-0.579-0.222
		c-0.159-0.148-0.237-0.329-0.234-0.543v-0.096h-0.484l-0.313,0.885c-0.027,0.075-0.04,0.143-0.04,0.205
		c0,0.235,0.186,0.353,0.557,0.353H162.676z"/>
</g>
<g>
	<path fill="#725548" d="M168.083,115.354c-0.069,0.235-0.218,0.408-0.445,0.521c-0.163,0.08-0.338,0.12-0.524,0.12h-1.707
		c-0.302,0-0.453-0.109-0.453-0.329c0-0.085,0.02-0.189,0.06-0.312l0.289-0.854l-1.518,1.25c-0.187,0.163-0.385,0.244-0.593,0.244
		h-0.825l1.714-4.838h1.442l-1.206,3.404l1.222-1.001c0.315-0.259,0.673-0.389,1.073-0.389c0.267,0,0.401,0.136,0.401,0.409
		c0,0.099-0.024,0.212-0.072,0.34l-0.509,1.434H168.083z"/>
	<path fill="#725548" d="M173.257,115.354c-0.128,0.427-0.455,0.641-0.981,0.641h-1.518c-0.433,0-0.649-0.139-0.649-0.417
		c-0.291,0.331-0.649,0.497-1.074,0.497c-0.313,0-0.566-0.096-0.761-0.289c-0.195-0.192-0.292-0.443-0.292-0.753
		c0-0.558,0.213-0.999,0.641-1.322c0.387-0.293,0.867-0.44,1.438-0.44h2.287l-0.753,2.083H173.257z M170.674,113.912h-0.885
		l-0.281,0.934c-0.016,0.059-0.024,0.112-0.024,0.16c0,0.232,0.227,0.349,0.681,0.349L170.674,113.912z"/>
	<path fill="#725548" d="M176.35,115.354c-0.067,0.235-0.22,0.408-0.46,0.521c-0.168,0.08-0.349,0.12-0.541,0.12h-1.542
		c-0.395,0-0.593-0.135-0.593-0.405c0-0.069,0.015-0.148,0.044-0.236l1.486-4.19h1.418l-1.494,4.19H176.35z"/>
</g>
<g>
	<defs>
		<rect id="SVGID_7_" x="81.819" y="68.038" width="105.8" height="85.039"/>
	</defs>
	<clipPath id="SVGID_8_">
		<use xlink:href="#SVGID_7_"  overflow="visible"/>
	</clipPath>
	<path clip-path="url(#SVGID_8_)" fill="#C25679" d="M133.285,107.267c-2.043-2.043-5.356-2.043-7.399,0s-2.043,5.355,0,7.398
		l7.399,7.4V107.267z"/>
	<path clip-path="url(#SVGID_8_)" fill="#725548" d="M134.061,107.267c2.043-2.043,5.356-2.043,7.399,0s2.043,5.355,0,7.398
		l-7.399,7.4V107.267z"/>
</g>
<line fill="none" stroke="#000000" x1="179.139" y1="102.79" x2="90.064" y2="102.79"/>
</svg>
