<?xml version="1.0" encoding="utf-8"?>
<!-- Generator: Adobe Illustrator 15.1.0, SVG Export Plug-In . SVG Version: 6.00 Build 0)  -->
<!DOCTYPE svg PUBLIC "-//W3C//DTD SVG 1.1//EN" "http://www.w3.org/Graphics/SVG/1.1/DTD/svg11.dtd">
<svg version="1.1" id="Layer_1" xmlns="http://www.w3.org/2000/svg" xmlns:xlink="http://www.w3.org/1999/xlink" x="0px" y="0px"
	  viewBox="0 0 179.628 125.743" enable-background="new 0 0 179.628 125.743"
	 xml:space="preserve">
<g>
	<defs>
		<rect id="SVGID_1_" x="-207.488" y="120.742" width="117.415" height="117.416"/>
	</defs>
	<clipPath id="SVGID_2_">
		<use xlink:href="#SVGID_1_"  overflow="visible"/>
	</clipPath>
	<circle clip-path="url(#SVGID_2_)" fill="none" stroke="#000000" cx="-148.781" cy="179.45" r="30.097"/>
	<circle clip-path="url(#SVGID_2_)" fill="none" stroke="#000000" cx="-148.781" cy="179.451" r="42.019"/>
</g>
<rect x="-193.25" y="171.891" fill="#FFFFFF" width="88.937" height="20.835"/>
<line fill="none" stroke="#000000" x1="-193.436" y1="193.076" x2="-104.36" y2="193.076"/>
<g>
	<defs>
		<rect id="SVGID_3_" x="-207.488" y="120.742" width="117.415" height="117.416"/>
	</defs>
	<clipPath id="SVGID_4_">
		<use xlink:href="#SVGID_3_"  overflow="visible"/>
	</clipPath>
	<path clip-path="url(#SVGID_4_)" fill="#725548" d="M-108.826,184.248l1.494-4.19h-1.418l-1.486,4.19
		c-0.03,0.088-0.044,0.167-0.044,0.235c0,0.271,0.197,0.406,0.592,0.406h1.543c0.192,0,0.372-0.04,0.54-0.12
		c0.241-0.113,0.394-0.287,0.461-0.521H-108.826z M-113.328,184.248c-0.454,0-0.681-0.116-0.681-0.349
		c0-0.048,0.008-0.101,0.024-0.161l0.28-0.932h0.885L-113.328,184.248z M-111.899,184.248l0.754-2.083h-2.288
		c-0.571,0-1.05,0.146-1.438,0.44c-0.427,0.324-0.64,0.764-0.64,1.323c0,0.308,0.097,0.559,0.292,0.753
		c0.195,0.192,0.449,0.288,0.761,0.288c0.425,0,0.782-0.166,1.073-0.497c0,0.278,0.217,0.417,0.649,0.417h1.518
		c0.526,0,0.854-0.214,0.982-0.641H-111.899z M-117.062,184.248l0.509-1.435c0.048-0.127,0.072-0.242,0.072-0.339
		c0-0.274-0.133-0.41-0.4-0.41c-0.401,0-0.759,0.13-1.074,0.389l-1.221,1.002l1.205-3.405h-1.442l-1.714,4.839h0.825
		c0.208,0,0.406-0.082,0.593-0.245l1.518-1.25l-0.288,0.854c-0.04,0.123-0.061,0.227-0.061,0.312c0,0.218,0.151,0.329,0.453,0.329
		h1.706c0.187,0,0.362-0.04,0.525-0.12c0.227-0.113,0.375-0.287,0.445-0.521H-117.062z M-123.911,184.248
		c-0.371,0-0.557-0.117-0.557-0.353c0-0.061,0.014-0.129,0.04-0.205l0.313-0.884h0.485v0.095c-0.003,0.214,0.075,0.396,0.234,0.543
		c0.159,0.149,0.352,0.223,0.579,0.223c0.224,0,0.417-0.073,0.578-0.221c0.162-0.146,0.243-0.325,0.243-0.537
		c0-0.208-0.08-0.384-0.241-0.528c-0.16-0.145-0.353-0.216-0.58-0.216h-1.01c-0.531,0-0.992,0.118-1.382,0.356
		c-0.443,0.27-0.691,0.644-0.745,1.122c-0.005,0.045-0.008,0.089-0.008,0.131c0,0.394,0.198,0.688,0.593,0.882
		c0.313,0.154,0.698,0.233,1.158,0.233h2.411c0.227,0,0.426-0.052,0.597-0.157c0.187-0.115,0.31-0.276,0.368-0.484H-123.911z
		 M-127.48,184.248l0.741-2.083h-1.454l-0.697,1.95c-0.037,0.105-0.056,0.201-0.056,0.292c0,0.321,0.191,0.482,0.573,0.482h1.582
		c0.185,0,0.355-0.04,0.513-0.12c0.219-0.113,0.363-0.287,0.433-0.521H-127.48z M-126.444,179.846
		c-0.207-0.188-0.456-0.281-0.747-0.281c-0.297,0-0.548,0.093-0.755,0.281c-0.207,0.186-0.311,0.413-0.311,0.676
		c0,0.268,0.104,0.495,0.311,0.681c0.207,0.188,0.458,0.28,0.755,0.28c0.291,0,0.54-0.092,0.747-0.28
		c0.207-0.186,0.31-0.413,0.31-0.681C-126.134,180.259-126.237,180.032-126.444,179.846 M-130.692,184.248l0.957-2.527
		c0.054-0.139,0.08-0.266,0.08-0.381c0-0.2-0.08-0.353-0.24-0.457c-0.104-0.07-0.203-0.105-0.296-0.105
		c-0.235-0.002-0.416,0.032-0.541,0.105c-0.072,0.046-0.218,0.177-0.437,0.396l-1.542,1.551l0.777-2.02
		c0.059-0.145,0.088-0.279,0.088-0.395c0-0.19-0.073-0.333-0.22-0.43c-0.096-0.06-0.188-0.091-0.276-0.091
		c-0.31,0-0.562,0.062-0.757,0.183c-0.118,0.075-0.286,0.238-0.505,0.489l-1.722,1.952l0.861-2.485
		c0.051-0.146,0.076-0.271,0.076-0.376c0-0.269-0.184-0.404-0.553-0.404h-2.675l-0.605,1.01h2.223l-1.618,4.626h0.813
		c0.32,0,0.563-0.103,0.729-0.305l2.471-2.984l-0.985,2.544c-0.048,0.12-0.072,0.232-0.072,0.335c0,0.271,0.152,0.422,0.456,0.457
		c0.054,0.008,0.104,0.012,0.152,0.012c0.254,0,0.488-0.118,0.701-0.356l1.987-2.178l-0.665,1.73
		c-0.056,0.147-0.084,0.265-0.084,0.356c0,0.259,0.224,0.389,0.673,0.389h1.438c0.63,0,1.001-0.214,1.113-0.641H-130.692z"/>
	<path clip-path="url(#SVGID_4_)" fill="#C25679" d="M-163.168,184.248c-0.454,0-0.681-0.116-0.681-0.35
		c0-0.047,0.008-0.1,0.024-0.159l0.281-0.933h0.885L-163.168,184.248z M-161.738,184.248l0.753-2.083h-2.287
		c-0.572,0-1.051,0.146-1.438,0.44c-0.427,0.324-0.641,0.764-0.641,1.322c0,0.309,0.098,0.561,0.293,0.753
		c0.194,0.193,0.448,0.289,0.761,0.289c0.424,0,0.782-0.166,1.073-0.497c0,0.278,0.216,0.417,0.649,0.417h1.518
		c0.526,0,0.853-0.214,0.981-0.641H-161.738z M-166.913,184.248l0.393-1.082c0.042-0.12,0.064-0.226,0.064-0.316
		c0-0.287-0.186-0.429-0.557-0.429h-0.305l0.93-0.961h-0.922l-1.598,1.59l1.066-2.992h-1.442l-1.707,4.831h0.597
		c0.203,0,0.377-0.039,0.521-0.117c0.109-0.058,0.27-0.184,0.481-0.377c0.857-0.763,1.347-1.209,1.47-1.337l-0.413,1.118
		c-0.037,0.104-0.056,0.2-0.056,0.288c0,0.283,0.183,0.425,0.549,0.425h1.574c0.192,0,0.372-0.04,0.541-0.12
		c0.24-0.113,0.393-0.287,0.46-0.521H-166.913z M-172.352,184.248l0.516-1.442c0.043-0.123,0.064-0.234,0.064-0.333
		c0-0.267-0.13-0.406-0.392-0.416c-0.387-0.011-0.747,0.119-1.078,0.387l-1.221,1.003l0.452-1.282h-1.446l-0.957,2.724h0.737
		c0.208,0,0.474-0.113,0.797-0.337l1.378-1.165l-0.304,0.861c-0.038,0.106-0.056,0.2-0.056,0.279c0,0.242,0.182,0.362,0.548,0.362
		h1.598c0.193,0,0.373-0.04,0.541-0.12c0.238-0.113,0.391-0.287,0.461-0.521H-172.352z M-179.286,184.248
		c-0.454,0-0.681-0.116-0.681-0.35c0-0.047,0.008-0.1,0.024-0.159l0.281-0.933h0.885L-179.286,184.248z M-177.856,184.248
		l0.753-2.083h-2.287c-0.571,0-1.051,0.146-1.438,0.44c-0.427,0.324-0.641,0.764-0.641,1.322c0,0.309,0.098,0.561,0.293,0.753
		c0.195,0.193,0.448,0.289,0.761,0.289c0.424,0,0.782-0.166,1.073-0.497c0,0.278,0.216,0.417,0.649,0.417h1.518
		c0.526,0,0.853-0.214,0.981-0.641H-177.856z M-187.529,184.128c-0.376,0.539-0.757,0.808-1.141,0.808
		c-0.308,0-0.461-0.171-0.461-0.516c0-0.497,0.242-0.901,0.725-1.21c0.419-0.27,0.892-0.404,1.418-0.404h0.116
		C-187.03,183.284-187.249,183.724-187.529,184.128 M-182.41,182.165l1.033-2.912h-1.446l-1.025,2.912h-1.378l1.258-3.521h-1.438
		l-1.238,3.521h-0.585c-1.479,0-2.495,0.418-3.048,1.254c-0.219,0.331-0.328,0.659-0.328,0.984c0,0.418,0.171,0.73,0.513,0.938
		c0.283,0.174,0.644,0.261,1.085,0.261c1.632-0.003,2.827-0.935,3.585-2.796h1.354l-0.745,2.083h1.442l0.737-2.083h2.371
		c0.515,0,0.81-0.214,0.885-0.641H-182.41z"/>
	<path clip-path="url(#SVGID_4_)" fill="#C25679" d="M-150.215,176.159c-2.043-2.043-5.356-2.043-7.399,0s-2.043,5.356,0,7.399
		l7.399,7.4V176.159z"/>
	<path clip-path="url(#SVGID_4_)" fill="#725548" d="M-149.438,176.159c2.043-2.043,5.356-2.043,7.399,0s2.043,5.356,0,7.399
		l-7.399,7.4V176.159z"/>
</g>
<line fill="none" stroke="#000000" x1="-104.361" y1="171.683" x2="-193.436" y2="171.683"/>
<g>
	<defs>
		<rect id="SVGID_5_" x="-207.488" y="120.742" width="117.415" height="117.416"/>
	</defs>
	<clipPath id="SVGID_6_">
		<use xlink:href="#SVGID_5_"  overflow="visible"/>
	</clipPath>
	<path clip-path="url(#SVGID_6_)" d="M-117.187,168.826l0.565-0.182l0.188,0.58l-0.564,0.183L-117.187,168.826z M-115.272,164.905
		l0.385,0.939c0.228,0.558,0.759,0.47,1.253,0.268c0.525-0.215,0.925-0.522,0.702-1.068l-0.385-0.94L-115.272,164.905z
		 M-118.416,165.647l5.282-2.162l0.577,1.409c0.375,0.918-0.169,1.391-0.903,1.691c-0.54,0.222-1.132,0.281-1.581-0.213
		l-2.302,1.897l-0.204-0.498l2.263-1.826l-0.363-0.886l-2.578,1.054L-118.416,165.647z M-119.549,163.435l0.525-0.278l0.285,0.539
		l-0.525,0.279L-119.549,163.435z M-117.939,160.367l0.5,0.806c0.303,0.491,0.755,0.459,1.456,0.021
		c0.672-0.42,0.828-0.827,0.549-1.274l-0.503-0.804L-117.939,160.367z M-120.702,161.498l4.84-3.023l0.74,1.183
		c0.54,0.863,0.111,1.523-0.587,1.958c-0.689,0.431-1.527,0.642-2.103-0.281l-0.471-0.753l-2.152,1.344L-120.702,161.498z
		 M-122.469,159.003l4.207-3.228l-0.676-0.881l0.321-0.247l1.665,2.171l-0.321,0.246l-0.682-0.889l-4.208,3.228L-122.469,159.003z
		 M-123.117,155.426l0.792,0.893l2.117-2.68L-123.117,155.426z M-124.712,156.372l-0.337-0.379c2.334-1.358,2.681-1.586,5.017-2.946
		l0.436,0.491l-3.52,4.632l-0.339-0.382l0.922-1.199l-0.874-0.985L-124.712,156.372z M-119.622,152.874l1.258-0.571l0.356,0.402
		l-1.491,0.309L-119.622,152.874z M-126.188,154.959l3.614-3.881l-0.813-0.757l0.276-0.296l2.002,1.866l-0.276,0.296l-0.82-0.765
		l-3.614,3.881L-126.188,154.959z M-128.451,151.272l0.427,0.178c-0.322,0.511-0.481,1.141,0.046,1.567
		c0.405,0.325,0.822,0.273,1.151-0.135c0.304-0.377,0.29-0.92,0.242-1.521l-0.106-1.291c-0.038-0.486-0.023-0.934,0.246-1.267
		c0.474-0.588,1.203-0.61,1.795-0.134c0.586,0.474,0.665,1.1,0.28,1.815l-0.026,0.047l-0.414-0.163l0.024-0.04
		c0.271-0.468,0.305-1.002-0.118-1.344c-0.377-0.302-0.797-0.327-1.12,0.075c-0.202,0.25-0.233,0.594-0.206,1.001l0.081,1.235
		c0.041,0.663,0.135,1.345-0.277,1.856c-0.528,0.656-1.253,0.625-1.85,0.144C-128.927,152.771-128.851,151.959-128.451,151.272
		 M-124.425,148.421l0.183-1.331l0.366,0.295l-0.248,0.81l0.739-0.414l0.367,0.295l-1.262,0.461L-124.425,148.421z
		 M-132.119,150.565l3.024-4.839l0.33,0.205l-0.863,4.792l2.395-3.834l0.363,0.226l-3.024,4.84l-0.321-0.2l0.809-4.712l-2.345,3.752
		L-132.119,150.565z M-134.457,149.351l2.543-5.11l1.781,0.886l-0.18,0.362l-1.33-0.662l-0.964,1.937l0.951,0.472l-0.17,0.342
		l-0.951-0.473l-1.049,2.108l1.331,0.662l-0.181,0.362L-134.457,149.351z M-136.015,145.214l0.94,0.385
		c0.558,0.228,0.867-0.212,1.069-0.705c0.215-0.526,0.277-1.027-0.269-1.25l-0.939-0.385L-136.015,145.214z M-137.689,147.977
		l2.162-5.284l1.409,0.578c0.918,0.375,0.874,1.095,0.574,1.829c-0.221,0.541-0.594,1.004-1.261,0.978l-0.263,2.971l-0.497-0.204
		l0.285-2.893l-0.887-0.364l-1.055,2.579L-137.689,147.977z M-139.914,147.314l1.631-5.47l1.907,0.568l-0.116,0.388l-1.423-0.424
		l-0.618,2.072l1.017,0.303l-0.109,0.366l-1.017-0.304l-0.789,2.645L-139.914,147.314z M-142.36,147.18l1.173-6.104l0.384,0.074
		l-1.172,6.103L-142.36,147.18z M-145.862,144.428l1.189,0.106l-0.299-3.403L-145.862,144.428z M-146.374,146.211l-0.505-0.045
		c0.767-2.589,0.863-2.994,1.629-5.586l0.655,0.06l0.616,5.784l-0.508-0.045l-0.153-1.506l-1.311-0.116L-146.374,146.211z
		 M-148.427,146.132l0.067-5.302l-1.111-0.014l0.005-0.405l2.736,0.035l-0.005,0.406l-1.121-0.016l-0.067,5.304L-148.427,146.132z
		 M-152.633,146.308l-0.362-5.697l0.503-0.032l0.164,2.578l1.754-0.111l-0.164-2.579l0.503-0.031l0.362,5.695l-0.503,0.032
		l-0.176-2.767l-1.754,0.112l0.176,2.767L-152.633,146.308z M-156.487,145.31l-0.452-2.349c-0.182-0.947,0.007-1.774,1.095-1.982
		c1.01-0.195,1.462,0.508,1.645,1.457l0.043,0.227l-0.472,0.09l-0.065-0.338c-0.131-0.684-0.423-1.165-1.074-1.04
		c-0.73,0.141-0.829,0.696-0.698,1.38l0.494,2.57c0.131,0.684,0.43,1.167,1.16,1.027c0.651-0.125,0.743-0.684,0.612-1.368
		l-0.074-0.383l0.472-0.092l0.053,0.274c0.18,0.942,0.049,1.767-0.987,1.966C-155.849,146.963-156.307,146.25-156.487,145.31
		 M-158.138,147.46l-0.506-1.696l-2.32-3.416l0.537-0.161l1.874,3.012c-0.035-1.533-0.053-2.012-0.081-3.547l0.505-0.151
		l-0.032,4.118l0.506,1.697L-158.138,147.46z M-162.827,145.719l0.949-0.361c0.564-0.214,0.489-0.747,0.299-1.246
		c-0.202-0.53-0.5-0.938-1.051-0.728l-0.949,0.361L-162.827,145.719z M-162.162,148.88l-2.032-5.334l1.423-0.542
		c0.926-0.353,1.387,0.203,1.669,0.944c0.208,0.545,0.252,1.139-0.252,1.576l1.839,2.348l-0.502,0.191l-1.77-2.307l-0.896,0.342
		l0.992,2.603L-162.162,148.88z M-166.389,149.027l1.042-0.583l-2.166-2.642L-166.389,149.027z M-165.806,150.787l-0.443,0.248
		c-0.827-2.57-0.975-2.958-1.804-5.531l0.573-0.32l3.772,4.429l-0.446,0.249l-0.974-1.157l-1.149,0.644L-165.806,150.787z
		 M-168.134,145.067l-0.289-1.352l0.469-0.262l-0.018,1.524L-168.134,145.067z M-168.715,152.723l-3.253-4.691l0.414-0.287
		l1.711,2.466l-0.46-3.334l0.428-0.297l0.372,2.608l3.102,1.929l-0.439,0.304l-2.721-1.78l0.113,1.139l1.148,1.655L-168.715,152.723
		z M-172.262,153.867l0.256-0.386c0.441,0.414,1.03,0.689,1.546,0.252c0.398-0.337,0.426-0.755,0.087-1.156
		c-0.313-0.369-0.849-0.459-1.448-0.525l-1.287-0.141c-0.485-0.054-0.921-0.154-1.198-0.48c-0.488-0.577-0.372-1.298,0.208-1.788
		c0.575-0.487,1.205-0.446,1.835,0.068l0.042,0.034l-0.239,0.375l-0.035-0.031c-0.408-0.354-0.926-0.488-1.341-0.138
		c-0.37,0.314-0.472,0.721-0.14,1.114c0.207,0.246,0.541,0.341,0.944,0.391l1.229,0.155c0.659,0.085,1.345,0.122,1.77,0.623
		c0.544,0.643,0.376,1.349-0.209,1.844C-170.88,154.618-171.663,154.391-172.262,153.867 M-174.705,156.336l0.218-0.408
		c0.478,0.37,1.09,0.589,1.563,0.104c0.364-0.372,0.352-0.792-0.023-1.158c-0.347-0.338-0.889-0.376-1.492-0.385l-1.294-0.018
		c-0.488-0.008-0.932-0.066-1.238-0.365c-0.541-0.528-0.494-1.255,0.037-1.798c0.526-0.539,1.156-0.559,1.833-0.108l0.045,0.03
		l-0.202,0.397l-0.038-0.027c-0.44-0.315-0.969-0.4-1.349-0.011c-0.338,0.348-0.401,0.764-0.033,1.122
		c0.23,0.226,0.571,0.288,0.977,0.3l1.238,0.037c0.664,0.023,1.351-0.007,1.821,0.452c0.603,0.589,0.503,1.308-0.032,1.855
		C-173.258,156.952-174.059,156.8-174.705,156.336 M-177.16,152.058l-1.308-0.309l0.33-0.337l0.782,0.324l-0.342-0.774l0.329-0.337
		l0.339,1.3L-177.16,152.058z M-176.674,158.059l0.749-0.931l-2.995-1.643L-176.674,158.059z M-175.477,159.475l-0.318,0.394
		c-1.726-2.076-2.009-2.381-3.737-4.459l0.412-0.512l5.152,2.705l-0.321,0.396l-1.336-0.71l-0.826,1.025L-175.477,159.475z
		 M-177.022,161.746l-4.767-3.14l0.278-0.42l4.428,2.917l0.878-1.332l0.338,0.222L-177.022,161.746z M-179.949,163.173l0.583-1.042
		l-3.228-1.119L-179.949,163.173z M-178.532,164.369l-0.248,0.443c-2.048-1.759-2.378-2.012-4.43-3.772l0.321-0.573l5.531,1.804
		l-0.249,0.446l-1.436-0.477l-0.643,1.15L-178.532,164.369z M-179.532,166.583l-5.72-1.167l0.218-0.498l5.087,1.125l-4.292-2.938
		l0.218-0.499l4.754,3.373L-179.532,166.583z"/>
	<path clip-path="url(#SVGID_6_)" d="M-129.683,211.333l-0.975,0.562l-0.713-3.493L-129.683,211.333z M-129.153,212.254l1.009,1.752
		l0.975-0.561l-1.009-1.753l0.754-0.433l-0.53-0.923l-0.754,0.435l-2.392-4.155l-1.219,0.701l0.592,4.975l0.624,1.085
		L-129.153,212.254z M-136.702,210.441l0.348,0.769l0.769-0.348l2.552,5.636l1.025-0.464l-3.248-7.174l-0.769,0.348
		C-136.049,209.688-136.346,210.098-136.702,210.441 M-139.486,216.313l-0.924-3.246c-0.196-0.689-0.267-1.386,0.426-1.582
		c0.693-0.199,1.001,0.431,1.197,1.12l0.924,3.246c0.186,0.654,0.237,1.395-0.427,1.584
		C-138.945,217.621-139.3,216.969-139.486,216.313 M-136.781,215.543l-0.924-3.246c-0.38-1.335-1.234-2.069-2.531-1.7
		c-1.306,0.372-1.638,1.438-1.256,2.778l0.924,3.246c0.37,1.302,1.263,2.063,2.531,1.701
		C-136.761,217.959-136.408,216.854-136.781,215.543 M-144.59,213.561c0.067,0.877-0.32,1.403-0.692,2.026l-1.753,2.955l0.086,1.122
		l3.93-0.3l-0.086-1.122l-2.804,0.214l1.771-2.674c0.386-0.651,0.747-1.291,0.67-2.307c-0.097-1.275-0.826-1.99-2.119-1.894
		c-1.407,0.108-1.893,1.066-1.786,2.474l0.021,0.279l1.122-0.086l-0.021-0.279c-0.052-0.685,0.064-1.415,0.734-1.467
		C-144.938,212.459-144.634,212.982-144.59,213.561 M-149.88,218.547l-0.028,1.124l1.124,0.029l0.029-1.125L-149.88,218.547z
		 M-154.36,217.042l0.427-3.348c0.09-0.709,0.3-1.379,1.015-1.288c0.714,0.091,0.749,0.791,0.659,1.501l-0.427,3.348
		c-0.086,0.677-0.33,1.376-1.015,1.289C-154.376,218.458-154.446,217.719-154.36,217.042 M-151.57,217.398l0.427-3.348
		c0.175-1.379-0.32-2.39-1.659-2.561c-1.347-0.171-2.071,0.68-2.247,2.063l-0.427,3.349c-0.171,1.341,0.351,2.391,1.659,2.558
		C-152.501,219.627-151.742,218.749-151.57,217.398 M-158.491,211.222l-0.231,0.812l0.811,0.231l-1.693,5.95l1.082,0.309
		l2.155-7.574l-0.811-0.23C-157.506,211.067-157.997,211.188-158.491,211.222 M-162.234,216.2l-0.361,1.066l1.065,0.36l0.362-1.064
		L-162.234,216.2z M-166.296,213.171c0.315-0.613,0.749-1.132,1.37-0.813c0.618,0.317,0.444,0.973,0.131,1.583
		c-0.338,0.661-0.714,1.21-1.386,0.864C-166.858,214.459-166.639,213.84-166.296,213.171 M-167.297,212.658
		c-0.654,1.274-0.584,2.313,0.695,2.969c1.274,0.653,2.155,0.103,2.808-1.172c0.45-0.876,0.46-1.483,0.118-2.088
		c0.612-0.105,1.062-0.463,1.451-1.222c0.576-1.122,0.411-2.091-0.711-2.666c-1.126-0.577-2.011-0.153-2.589,0.974
		c-0.389,0.758-0.413,1.334-0.141,1.894C-166.366,211.411-166.846,211.778-167.297,212.658 M-163.245,210.622
		c-0.281,0.547-0.642,1.059-1.189,0.779c-0.552-0.284-0.351-0.878-0.07-1.425c0.264-0.517,0.63-0.941,1.147-0.676
		C-162.849,209.562-162.984,210.113-163.245,210.622 M-167.919,206.631l-0.456,0.71l0.71,0.456l-3.341,5.207l0.947,0.608
		l4.253-6.627l-0.711-0.457C-166.932,206.77-167.437,206.742-167.919,206.631"/>
</g>
<g>
	<defs>
		<rect id="SVGID_7_" width="179.627" height="125.743"/>
	</defs>
	<clipPath id="SVGID_8_">
		<use xlink:href="#SVGID_7_"  overflow="visible"/>
	</clipPath>
	<path clip-path="url(#SVGID_8_)" fill="#725548" d="M113.504,114.082h1.81v9.668h-1.81V114.082z M111.041,122.166l-0.006-1.725
		c-0.467,0.376-0.886,0.881-0.886,1.58c0,0.237,0.075,0.521,0.365,0.521C110.756,122.542,110.917,122.321,111.041,122.166
		 M111.406,123.75l-0.177-0.725c-0.226,0.699-0.752,0.881-1.391,0.881c-1.075,0-1.451-0.902-1.451-1.718
		c0-1.73,1.198-2.316,2.648-2.912v-0.59c0-0.467-0.096-0.737-0.403-0.737c-0.418,0-0.435,0.393-0.435,0.737v0.397h-1.756
		c0-1.601,0.816-2.503,2.369-2.503c1.063,0,2.019,0.892,2.019,1.977v3.33c0,0.644,0.086,1.235,0.231,1.863H111.406z
		 M103.636,125.743v-9.002h1.81v0.473c0.274-0.355,0.693-0.634,1.166-0.634c0.843,0,1.455,0.827,1.455,1.687v4.14
		c0,0.78-0.59,1.499-1.401,1.499c-0.489,0-0.935-0.262-1.22-0.681v2.518H103.636z M106.257,122.037v-3.626
		c0-0.209-0.026-0.462-0.3-0.462c-0.21,0-0.409,0.27-0.511,0.404v3.802c0.097,0.134,0.296,0.387,0.511,0.387
		C106.236,122.542,106.257,122.263,106.257,122.037 M101.179,122.166l-0.006-1.725c-0.467,0.376-0.886,0.881-0.886,1.58
		c0,0.237,0.075,0.521,0.365,0.521C100.894,122.542,101.055,122.321,101.179,122.166 M101.544,123.75l-0.177-0.725
		c-0.226,0.699-0.752,0.881-1.391,0.881c-1.075,0-1.451-0.902-1.451-1.718c0-1.73,1.198-2.316,2.648-2.912v-0.59
		c0-0.467-0.096-0.737-0.402-0.737c-0.419,0-0.436,0.393-0.436,0.737v0.397h-1.756c0-1.601,0.817-2.503,2.369-2.503
		c1.063,0,2.019,0.892,2.019,1.977v3.33c0,0.644,0.086,1.235,0.231,1.863H101.544z M96.218,114.082h1.81v9.668h-1.81V114.082z
		 M90.231,123.75v-9.668h1.955v3.668l1.515-3.668h2.186l-1.972,3.959l2.117,5.709h-2.031l-1.461-4.42l-0.354,0.913v3.507H90.231z
		 M86.498,114.082h1.81v9.668h-1.81V114.082z M84.035,122.166l-0.005-1.725c-0.467,0.376-0.886,0.881-0.886,1.58
		c0,0.237,0.075,0.521,0.365,0.521C83.75,122.542,83.912,122.321,84.035,122.166 M84.401,123.75l-0.178-0.725
		c-0.225,0.699-0.752,0.881-1.391,0.881c-1.074,0-1.45-0.902-1.45-1.718c0-1.73,1.198-2.316,2.648-2.912v-0.59
		c0-0.467-0.097-0.737-0.403-0.737c-0.419,0-0.435,0.393-0.435,0.737v0.397h-1.756c0-1.601,0.816-2.503,2.368-2.503
		c1.064,0,2.02,0.892,2.02,1.977v3.33c0,0.644,0.086,1.235,0.231,1.863H84.401z M76.507,123.75v-9.668h1.81v3.158
		c0.333-0.376,0.838-0.66,1.375-0.66c0.779,0,1.241,0.821,1.241,1.525v5.645h-1.81v-5.172c0-0.198,0.054-0.629-0.247-0.629
		c-0.231,0-0.446,0.27-0.559,0.404v5.397H76.507z M71.767,121.956v-3.008c0-1.433,0.65-2.368,2.154-2.368
		c1.509,0,2.154,0.93,2.154,2.368v0.614h-1.778v-0.801c0-0.484-0.038-0.812-0.376-0.812c-0.285,0-0.344,0.307-0.344,0.532v3.47
		c0,0.237,0.032,0.591,0.344,0.591c0.354,0,0.376-0.316,0.376-0.887v-0.746h1.778v1.047c0,1.203-1.01,1.95-2.154,1.95
		C72.782,123.906,71.767,123.154,71.767,121.956 M69.352,114.437h1.81v1.692h-1.81V114.437z M69.352,116.741h1.81v7.009h-1.81
		V116.741z M61.846,123.75v-9.668h2.342l1.031,6.445l1.112-6.445h2.261v9.668h-1.439l-0.043-6.8c-0.317,2.09-0.811,4.711-1.128,6.8
		h-1.461l-1.187-6.843l-0.043,6.843H61.846z"/>
	<path clip-path="url(#SVGID_8_)" fill="#C25679" d="M127.291,108.166l-0.005-1.725c-0.468,0.376-0.887,0.881-0.887,1.58
		c0,0.237,0.076,0.521,0.366,0.521C127.005,108.542,127.167,108.321,127.291,108.166 M127.655,109.75l-0.177-0.725
		c-0.226,0.699-0.752,0.881-1.391,0.881c-1.074,0-1.45-0.902-1.45-1.718c0-1.73,1.198-2.316,2.648-2.912v-0.59
		c0-0.467-0.097-0.737-0.403-0.737c-0.419,0-0.435,0.393-0.435,0.737v0.397h-1.757c0-1.601,0.817-2.503,2.369-2.503
		c1.064,0,2.02,0.892,2.02,1.977v3.33c0,0.644,0.086,1.235,0.231,1.863H127.655z M126.432,102.264l0.729-2.374h1.854l-1.488,2.374
		H126.432z M121.151,109.75l-1.456-7.009h1.698l0.692,4.733l0.586-4.733h1.697l-1.386,7.009H121.151z M117.521,107.951v-3.47
		c0-0.242-0.075-0.532-0.414-0.532c-0.327,0-0.37,0.307-0.37,0.532v3.47c0,0.237,0.011,0.591,0.37,0.591
		C117.478,108.542,117.521,108.198,117.521,107.951 M114.926,107.93v-2.982c0-1.433,0.634-2.362,2.18-2.362
		c1.547,0,2.208,0.924,2.208,2.362v2.982c0,1.203-1.037,1.976-2.208,1.976C115.941,109.906,114.926,109.128,114.926,107.93
		 M109.614,109.75v-7.009h1.81v0.494c0.333-0.376,0.838-0.649,1.375-0.649c0.779,0,1.241,0.81,1.241,1.515v5.649h-1.81v-5.333
		c0-0.15,0-0.468-0.301-0.468c-0.21,0-0.403,0.247-0.505,0.365v5.436H109.614z M106.896,107.951v-3.47
		c0-0.242-0.075-0.532-0.414-0.532c-0.327,0-0.37,0.307-0.37,0.532v3.47c0,0.237,0.011,0.591,0.37,0.591
		C106.854,108.542,106.896,108.198,106.896,107.951 M104.302,107.93v-2.982c0-1.433,0.634-2.362,2.18-2.362
		c1.547,0,2.208,0.924,2.208,2.362v2.982c0,1.203-1.037,1.976-2.208,1.976C105.317,109.906,104.302,109.128,104.302,107.93
		 M100.816,109.75v-7.009h1.799v0.57c0.231-0.376,0.554-0.671,0.967-0.671c0.167,0,0.322,0.026,0.489,0.052l-0.108,1.527
		c-0.198-0.023-0.386-0.055-0.596-0.055c-0.494,0-0.752,0.317-0.752,0.882v4.704H100.816z M98.034,108.166l-0.006-1.725
		c-0.467,0.376-0.886,0.881-0.886,1.58c0,0.237,0.075,0.521,0.365,0.521C97.75,108.542,97.91,108.321,98.034,108.166 M98.399,109.75
		l-0.177-0.725c-0.226,0.699-0.752,0.881-1.391,0.881c-1.075,0-1.451-0.902-1.451-1.718c0-1.73,1.198-2.316,2.648-2.912v-0.59
		c0-0.467-0.096-0.737-0.402-0.737c-0.419,0-0.436,0.393-0.436,0.737v0.397h-1.756c0-1.601,0.817-2.503,2.369-2.503
		c1.063,0,2.019,0.892,2.019,1.977v3.33c0,0.644,0.086,1.235,0.231,1.863H98.399z M92.147,107.345v-3.396h-0.516v-1.208h0.516
		v-2.304h1.81v2.304h0.87v1.208h-0.87v3.83c0,0.366,0.107,0.575,0.489,0.575c0.177,0,0.349-0.005,0.526-0.033l-0.107,1.403
		c-0.355,0.107-0.682,0.107-1.037,0.107C92.303,109.831,92.147,108.568,92.147,107.345 M86.063,106.984l1.981-0.38
		c0,0.847,0.07,1.846,0.747,1.846c0.462,0,0.58-0.333,0.58-0.741c0-0.806-0.58-1.524-1.144-2.02l-0.607-0.514
		c-0.763-0.646-1.552-1.355-1.552-2.745c0-1.584,1.101-2.546,2.728-2.546c1.375,0,2.466,1.123,2.466,2.491
		c0,0.033-0.006,0.076-0.006,0.231l-2.019,0.281c0-0.124,0.016-0.242,0.016-0.393c0-0.457-0.102-1.111-0.618-1.111
		c-0.462,0-0.644,0.439-0.644,0.847c0,0.694,0.365,1.124,0.827,1.51c0.247,0.209,0.489,0.408,0.714,0.613
		c0.994,0.885,1.741,1.793,1.741,3.287c0,1.385-1.139,2.309-2.487,2.309C86.933,109.949,86.137,108.499,86.063,106.984
		 M81.985,108.166l-0.005-1.725c-0.468,0.376-0.887,0.881-0.887,1.58c0,0.237,0.075,0.521,0.366,0.521
		C81.7,108.542,81.861,108.321,81.985,108.166 M82.351,109.75l-0.177-0.725c-0.226,0.699-0.752,0.881-1.391,0.881
		c-1.074,0-1.45-0.902-1.45-1.718c0-1.73,1.197-2.316,2.648-2.912v-0.59c0-0.467-0.097-0.737-0.403-0.737
		c-0.419,0-0.435,0.393-0.435,0.737v0.397h-1.757c0-1.601,0.817-2.503,2.369-2.503c1.063,0,2.019,0.892,2.019,1.977v3.33
		c0,0.644,0.086,1.235,0.231,1.863H82.351z M74.175,109.75v-9.668h1.81v5.093l1.107-2.434h1.939l-1.724,2.959l1.718,4.05h-1.874
		l-0.924-3.126l-0.242,0.408v2.718H74.175z M68.751,109.75v-7.009h1.81v0.494c0.333-0.376,0.837-0.649,1.375-0.649
		c0.778,0,1.24,0.81,1.24,1.515v5.649h-1.81v-5.333c0-0.15,0-0.468-0.301-0.468c-0.209,0-0.402,0.247-0.504,0.365v5.436H68.751z
		 M65.968,108.166l-0.005-1.725c-0.467,0.376-0.886,0.881-0.886,1.58c0,0.237,0.075,0.521,0.365,0.521
		C65.685,108.542,65.845,108.321,65.968,108.166 M66.334,109.75l-0.178-0.725c-0.225,0.699-0.752,0.881-1.391,0.881
		c-1.074,0-1.45-0.902-1.45-1.718c0-1.73,1.198-2.316,2.648-2.912v-0.59c0-0.467-0.097-0.737-0.403-0.737
		c-0.419,0-0.435,0.393-0.435,0.737v0.397h-1.756c0-1.601,0.816-2.503,2.368-2.503c1.064,0,2.02,0.892,2.02,1.977v3.33
		c0,0.644,0.086,1.235,0.231,1.863H66.334z M57.106,109.75v-9.668h1.955v3.965h1.402v-3.965h1.966v9.668h-1.966v-4.312h-1.402v4.312
		H57.106z"/>
	<path clip-path="url(#SVGID_8_)" d="M142.709,95.751h2.625v-2.625h-2.625V95.751z M139.264,83.281v5.906
		c0,2.708,0.154,4.594-2.625,4.594h-1.446V79.345h1.395C139.192,79.345,139.264,80.77,139.264,83.281 M141.889,89.845v-7.219
		c0-3.856-1.405-5.25-5.25-5.25h-4.071v18.375h4.051C140.536,95.751,141.889,93.751,141.889,89.845 M121.32,84.041v-1.415h-2.625
		v13.125h2.625V85.363c0.43-0.358,0.902-0.768,1.64-0.768c0.851,0,0.985,0.481,0.985,1.311v9.845h2.625V84.563
		c0-1.147-0.728-2.123-1.887-2.123C123.114,82.44,122.243,83.199,121.32,84.041 M114.368,87.876h-2.625
		c0-1.355-0.041-3.281,1.312-3.281C114.398,84.595,114.368,86.512,114.368,87.876 M111.743,89.845v-0.658h5.25v-0.306
		c0-3.559-0.513-6.441-3.938-6.441c-3.425,0-3.937,2.882-3.937,6.441c0,3.722,0.348,7.055,3.927,7.055
		c2.861,0,3.948-1.754,3.948-4.78h-2.615c0,1.323,0,2.625-1.323,2.625C111.579,93.781,111.743,91.361,111.743,89.845 M101.673,82.44
		c-3.281,0-3.24,3.958-3.24,7.394c0,2.655,0.646,6.102,3.281,6.102c1.19,0,2.02-0.749,2.625-1.374v1.189h2.625V77.386h-2.625v6.542
		C103.652,83.199,102.914,82.44,101.673,82.44 M101.058,88.521c0-1.579-0.226-3.926,1.313-3.926c0.728,0,1.486,0.236,1.968,0.522
		v8.254c-0.584,0.236-1.292,0.41-1.968,0.41C100.781,93.781,101.058,90.315,101.058,88.521 M91.43,86.562l1.968-0.656
		c-0.441-1.865-1.589-3.466-3.937-3.466c-2.328,0-3.938,1.169-3.938,3.466c0,1.56,0.974,2.39,1.969,3.076l2.625,1.969
		c0.369,0.34,0.656,0.801,0.656,1.519c0,0.841-0.482,1.311-1.312,1.311c-1.108,0-1.672-1.137-1.969-1.969l-1.969,0.658
		c0.441,1.866,1.631,3.466,3.938,3.466c2.327,0,3.937-1.169,3.937-3.466c0-1.661-0.933-2.657-1.968-3.488l-2.625-1.967
		c-0.288-0.216-0.657-0.595-0.657-1.109c0-0.841,0.482-1.311,1.313-1.311C90.589,84.595,91.112,85.732,91.43,86.562 M90.773,77.458
		l-1.312,2.625l-1.313-2.625H86.18l1.968,3.937h2.625l1.969-3.937H90.773z M81.309,89.187v3.63c-0.277,0.37-0.677,0.964-1.313,0.964
		c-0.943,0-1.312-0.645-1.312-1.63C78.684,90.562,80.273,89.886,81.309,89.187 M79.996,82.44c-2.491,0-3.906,1.642-3.937,4.122
		h2.625c0-1.147,0.236-2.09,1.312-2.09c1.098,0,1.313,0.932,1.313,2.09v0.945c-2.533,0.994-5.25,1.928-5.25,5.342
		c0,1.528,1.107,3.087,2.625,3.087s2.102-1.119,2.625-2.155l0.349,1.97h2.614c-0.256-0.934-0.338-1.939-0.338-3.281v-5.908
		C83.934,84.123,82.488,82.44,79.996,82.44 M80.822,81.395l2.625-3.937h-2.625l-1.313,3.937H80.822z M69.148,84.041v-1.415h-2.625
		v13.125h2.625V85.363c0.431-0.358,0.902-0.768,1.64-0.768c0.852,0,0.985,0.481,0.985,1.311v9.845h2.625V84.563
		c0-1.147-0.728-2.123-1.887-2.123C70.942,82.44,70.071,83.199,69.148,84.041 M58.094,89.187v3.63
		c-0.277,0.37-0.677,0.964-1.312,0.964c-0.944,0-1.313-0.645-1.313-1.63C55.469,90.562,57.058,89.886,58.094,89.187 M56.782,82.44
		c-2.492,0-3.907,1.642-3.938,4.122h2.625c0-1.147,0.236-2.09,1.313-2.09c1.097,0,1.312,0.932,1.312,2.09v0.945
		c-2.533,0.994-5.25,1.928-5.25,5.342c0,1.528,1.108,3.087,2.625,3.087c1.518,0,2.102-1.119,2.625-2.155l0.349,1.97h2.615
		c-0.257-0.934-0.339-1.939-0.339-3.281v-5.908C60.719,84.123,59.273,82.44,56.782,82.44 M45.933,84.041v-1.415h-2.625v13.125h2.625
		V85.363c0.431-0.358,0.902-0.768,1.641-0.768c0.851,0,0.984,0.481,0.984,1.311v9.845h2.625V84.563c0-1.147-0.728-2.123-1.887-2.123
		C47.727,82.44,46.856,83.199,45.933,84.041"/>
	<path clip-path="url(#SVGID_8_)" d="M155.534,66.709h1.151v-1.582c0-0.394-0.105-0.87-0.588-0.87c-0.466,0-0.563,0.501-0.563,0.87
		V66.709z M152.572,70.771v-4.878c0-2.348,1.064-3.876,3.525-3.876c2.469,0,3.524,1.52,3.524,3.876v2.373h-4.087v2.54
		c0,0.378,0.044,0.967,0.563,0.967c0.527,0,0.615-0.545,0.615-1.037v-1.257h2.909v1.292c0,1.969-1.652,3.233-3.524,3.233
		C154.232,74.004,152.572,72.731,152.572,70.771 M139.766,73.75V62.282h2.962v0.817c0.528-0.615,1.319-1.081,2.163-1.081
		c0.791,0,1.467,0.589,1.784,1.292c0.553-0.747,1.424-1.292,2.39-1.292c1.275,0,2.057,1.345,2.057,2.495v9.237h-2.962v-8.647
		c0-0.29,0-0.845-0.431-0.845c-0.298,0-0.668,0.467-0.808,0.652v8.84h-2.962v-8.666c0-0.281-0.009-0.826-0.404-0.826
		c-0.343,0-0.668,0.441-0.835,0.659l0.008,8.833H139.766z M134.326,66.709h1.151v-1.582c0-0.394-0.105-0.87-0.588-0.87
		c-0.466,0-0.563,0.501-0.563,0.87V66.709z M131.364,70.771v-4.878c0-2.348,1.064-3.876,3.525-3.876c2.469,0,3.524,1.52,3.524,3.876
		v2.373h-4.087v2.54c0,0.378,0.044,0.967,0.563,0.967c0.527,0,0.615-0.545,0.615-1.037v-1.257h2.909v1.292
		c0,1.969-1.652,3.233-3.524,3.233C133.024,74.004,131.364,72.731,131.364,70.771 M125.483,73.75l-2.382-11.468h2.778l1.134,7.743
		l0.958-7.743h2.777L128.48,73.75H125.483z M116.36,73.75v-2.004l3.155-7.33h-2.663v-2.134h5.722v1.96l-3.182,7.365h3.182v2.143
		H116.36z M106.183,70.982l2.268-0.81c0.193,0.589,0.536,1.661,1.274,1.661c0.44,0,0.554-0.281,0.554-0.649
		c0-0.81-0.835-1.503-1.758-2.294l-0.483-0.413c-1.028-0.898-2.013-1.942-2.013-3.366c0-2.067,1.828-3.085,3.709-3.085
		c1.767,0,3.085,1.582,3.533,3.208l-2.126,0.728c-0.247-0.633-0.695-1.749-1.495-1.749c-0.439,0-0.65,0.378-0.65,0.722
		c0,0.58,0.826,1.317,1.6,1.969l0.545,0.482c1.01,0.914,2.065,2.058,2.065,3.42c0,1.89-1.529,3.198-3.349,3.198
		C108.012,74.004,106.676,72.731,106.183,70.982 M102.009,71.159L102,68.335c-0.765,0.617-1.45,1.443-1.45,2.584
		c0,0.388,0.123,0.854,0.597,0.854C101.542,71.773,101.807,71.413,102.009,71.159 M102.605,73.75l-0.29-1.185
		c-0.369,1.141-1.23,1.44-2.276,1.44c-1.758,0-2.373-1.475-2.373-2.811c0-2.83,1.96-3.788,4.333-4.765v-0.967
		c0-0.763-0.158-1.204-0.659-1.204c-0.686,0-0.712,0.643-0.712,1.204v0.652h-2.874c0-2.619,1.336-4.096,3.876-4.096
		c1.74,0,3.304,1.459,3.304,3.233v5.451c0,1.053,0.141,2.02,0.378,3.048H102.605z M100.602,61.498l1.196-3.883h3.032l-2.435,3.883
		H100.602z M91.242,73.75l-2.909-15.82h3.032l1.398,9.59l1.546-9.59h2.989l-3.129,15.82H91.242z M81.029,66.709h1.152v-1.582
		c0-0.394-0.106-0.87-0.589-0.87c-0.466,0-0.563,0.501-0.563,0.87V66.709z M78.066,70.771v-4.878c0-2.348,1.064-3.876,3.525-3.876
		c2.469,0,3.524,1.52,3.524,3.876v2.373h-4.087v2.54c0,0.378,0.044,0.967,0.563,0.967c0.527,0,0.615-0.545,0.615-1.037v-1.257h2.909
		v1.292c0,1.969-1.652,3.233-3.524,3.233C79.728,74.004,78.066,72.731,78.066,70.771 M69.375,73.75V62.282h2.962v0.807
		c0.545-0.614,1.371-1.062,2.25-1.062c1.274,0,2.03,1.327,2.03,2.477v9.246h-2.962v-8.726c0-0.246,0-0.766-0.492-0.766
		c-0.343,0-0.659,0.405-0.826,0.599v8.893H69.375z M61.078,70.815v-4.922c0-2.348,1.063-3.876,3.524-3.876
		c2.47,0,3.525,1.52,3.525,3.876v1.002h-2.909v-1.311c0-0.791-0.062-1.327-0.616-1.327c-0.465,0-0.562,0.501-0.562,0.87v5.679
		c0,0.387,0.053,0.967,0.562,0.967c0.58,0,0.616-0.52,0.616-1.45v-1.222h2.909v1.714c0,1.969-1.653,3.189-3.525,3.189
		C62.739,74.004,61.078,72.775,61.078,70.815 M63.266,61.692l-1.766-3.57h2.408l0.642,1.768l0.659-1.768h2.417l-1.811,3.57H63.266z
		 M55.777,66.709h1.152v-1.582c0-0.394-0.106-0.87-0.589-0.87c-0.466,0-0.563,0.501-0.563,0.87V66.709z M52.815,70.771v-4.878
		c0-2.348,1.064-3.876,3.525-3.876c2.469,0,3.524,1.52,3.524,3.876v2.373h-4.087v2.54c0,0.378,0.044,0.967,0.563,0.967
		c0.527,0,0.615-0.545,0.615-1.037v-1.257h2.909v1.292c0,1.969-1.652,3.233-3.524,3.233C54.477,74.004,52.815,72.731,52.815,70.771
		 M44.044,71.553v-6.775c0-1.407,1.002-2.76,2.382-2.76c0.773,0,1.459,0.457,1.907,1.036V57.93h2.962v15.82h-2.962v-0.86
		c-0.466,0.686-1.195,1.115-1.995,1.115C45.012,74.004,44.044,72.829,44.044,71.553 M48.333,71.141v-6.224
		c-0.167-0.218-0.492-0.659-0.835-0.659c-0.448,0-0.492,0.413-0.492,0.757v5.933c0,0.369,0.035,0.826,0.492,0.826
		C47.85,71.773,48.176,71.36,48.333,71.141 M38.208,73.75V62.282h2.944v0.93c0.378-0.615,0.905-1.097,1.582-1.097
		c0.273,0,0.528,0.044,0.8,0.088l-0.176,2.496c-0.325-0.036-0.633-0.088-0.975-0.088c-0.809,0-1.231,0.517-1.231,1.44v7.699H38.208z
		 M28.453,69.225l3.243-0.624c0,1.389,0.114,3.022,1.222,3.022c0.756,0,0.949-0.544,0.949-1.211c0-1.32-0.949-2.498-1.872-3.305
		l-0.993-0.845c-1.248-1.055-2.54-2.215-2.54-4.49c0-2.594,1.802-4.166,4.465-4.166c2.25,0,4.034,1.837,4.034,4.078
		c0,0.053-0.009,0.123-0.009,0.378l-3.305,0.457c0-0.202,0.027-0.397,0.027-0.643c0-0.747-0.167-1.818-1.011-1.818
		c-0.756,0-1.055,0.721-1.055,1.389c0,1.132,0.598,1.837,1.354,2.468c0.404,0.343,0.8,0.668,1.169,1.002
		c1.626,1.452,2.847,2.937,2.847,5.379c0,2.269-1.863,3.781-4.069,3.781C29.876,74.077,28.576,71.704,28.453,69.225"/>
	<path clip-path="url(#SVGID_8_)" d="M168.34,52.048h1.746v1.703h-1.746V52.048z M165.617,46.742h1.81v7.01h-1.81V46.742z
		 M166.047,46.269l0.73-2.374h1.853l-1.487,2.374H166.047z M161.675,53.75l-1.456-7.009h1.698l0.692,4.732l0.586-4.732h1.697
		l-1.386,7.009H161.675z M157.201,51.345V47.95h-0.516v-1.208h0.516v-2.305h1.81v2.305h0.87v1.208h-0.87v3.83
		c0,0.365,0.107,0.574,0.489,0.574c0.177,0,0.349-0.005,0.526-0.032l-0.107,1.402c-0.355,0.109-0.683,0.109-1.037,0.109
		C157.357,53.833,157.201,52.568,157.201,51.345 M152.152,52.059l1.386-0.494c0.118,0.36,0.327,1.015,0.778,1.015
		c0.269,0,0.339-0.172,0.339-0.397c0-0.495-0.51-0.919-1.074-1.402l-0.296-0.253c-0.628-0.548-1.23-1.187-1.23-2.057
		c0-1.262,1.117-1.885,2.267-1.885c1.079,0,1.885,0.967,2.159,1.96l-1.3,0.446c-0.15-0.387-0.424-1.069-0.913-1.069
		c-0.268,0-0.397,0.231-0.397,0.441c0,0.354,0.505,0.805,0.978,1.203l0.333,0.295c0.618,0.559,1.262,1.257,1.262,2.09
		c0,1.154-0.934,1.955-2.046,1.955C153.27,53.907,152.453,53.127,152.152,52.059 M149.552,44.083h1.81v9.668h-1.81V44.083z
		 M146.217,49.449h0.703v-0.967c0-0.242-0.064-0.532-0.359-0.532c-0.285,0-0.344,0.306-0.344,0.532V49.449z M144.407,51.93v-2.981
		c0-1.434,0.65-2.367,2.154-2.367c1.509,0,2.153,0.928,2.153,2.367v1.45h-2.497v1.553c0,0.231,0.027,0.59,0.344,0.59
		c0.322,0,0.376-0.333,0.376-0.633v-0.768h1.777v0.789c0,1.203-1.009,1.977-2.153,1.977
		C145.422,53.907,144.407,53.127,144.407,51.93 M139.927,53.75v-1.225l1.929-4.479h-1.628v-1.305h3.497v1.197l-1.945,4.501h1.945
		v1.311H139.927z M141.012,46.312l-1.079-2.181h1.471l0.392,1.08l0.403-1.08h1.477l-1.106,2.181H141.012z M134.729,53.75v-7.009
		h1.81v0.494c0.333-0.376,0.838-0.65,1.375-0.65c0.779,0,1.241,0.811,1.241,1.515v5.65h-1.81v-5.334c0-0.15,0-0.467-0.301-0.467
		c-0.209,0-0.403,0.247-0.505,0.365v5.436H134.729z M131.946,52.166l-0.005-1.724c-0.468,0.376-0.887,0.881-0.887,1.579
		c0,0.237,0.075,0.521,0.366,0.521C131.661,52.542,131.822,52.322,131.946,52.166 M132.312,53.75l-0.177-0.725
		c-0.226,0.698-0.752,0.881-1.391,0.881c-1.074,0-1.45-0.903-1.45-1.719c0-1.73,1.197-2.314,2.648-2.911v-0.591
		c0-0.467-0.097-0.736-0.403-0.736c-0.419,0-0.435,0.392-0.435,0.736v0.397h-1.757c0-1.6,0.817-2.501,2.369-2.501
		c1.063,0,2.019,0.89,2.019,1.975v3.33c0,0.645,0.086,1.237,0.231,1.864H132.312z M121.574,53.75v-7.009h1.81v0.499
		c0.323-0.376,0.806-0.659,1.322-0.659c0.483,0,0.897,0.358,1.09,0.788c0.338-0.456,0.87-0.788,1.461-0.788
		c0.779,0,1.257,0.82,1.257,1.524v5.645h-1.81v-5.285c0-0.177,0-0.516-0.263-0.516c-0.183,0-0.409,0.285-0.495,0.398v5.403h-1.81
		v-5.296c0-0.172-0.005-0.505-0.247-0.505c-0.209,0-0.408,0.269-0.51,0.403l0.005,5.398H121.574z M116.3,53.75l-1.456-7.009h1.698
		l0.692,4.732l0.586-4.732h1.697l-1.386,7.009H116.3z M110.472,49.449h0.704v-0.967c0-0.242-0.065-0.532-0.36-0.532
		c-0.285,0-0.344,0.306-0.344,0.532V49.449z M108.663,51.93v-2.981c0-1.434,0.65-2.367,2.154-2.367c1.509,0,2.154,0.928,2.154,2.367
		v1.45h-2.498v1.553c0,0.231,0.027,0.59,0.344,0.59c0.322,0,0.376-0.333,0.376-0.633v-0.768h1.778v0.789
		c0,1.203-1.01,1.977-2.154,1.977C109.677,53.907,108.663,53.127,108.663,51.93 M100.836,53.75v-7.009h1.811v0.499
		c0.322-0.376,0.805-0.659,1.321-0.659c0.483,0,0.897,0.358,1.09,0.788c0.339-0.456,0.87-0.788,1.461-0.788
		c0.779,0,1.257,0.82,1.257,1.524v5.645h-1.81v-5.285c0-0.177,0-0.516-0.263-0.516c-0.183,0-0.408,0.285-0.494,0.398v5.403h-1.81
		v-5.296c0-0.172-0.006-0.505-0.248-0.505c-0.209,0-0.408,0.269-0.51,0.403l0.006,5.398H100.836z M98.141,46.742h1.81v7.01h-1.81
		V46.742z M98.57,46.269l0.73-2.374h1.853l-1.487,2.374H98.57z M92.582,53.75v-7.009h1.81v0.494c0.333-0.376,0.838-0.65,1.375-0.65
		c0.779,0,1.241,0.811,1.241,1.515v5.65h-1.81v-5.334c0-0.15,0-0.467-0.301-0.467c-0.209,0-0.403,0.247-0.505,0.365v5.436H92.582z
		 M89.256,49.449h0.704v-0.967c0-0.242-0.064-0.532-0.36-0.532c-0.284,0-0.344,0.306-0.344,0.532V49.449z M87.446,51.93v-2.981
		c0-1.434,0.65-2.367,2.154-2.367c1.509,0,2.154,0.928,2.154,2.367v1.45h-2.498v1.553c0,0.231,0.027,0.59,0.344,0.59
		c0.322,0,0.376-0.333,0.376-0.633v-0.768h1.778v0.789c0,1.203-1.01,1.977-2.154,1.977C88.461,53.907,87.446,53.127,87.446,51.93
		 M79.622,53.75v-7.009h1.81v0.499c0.322-0.376,0.805-0.659,1.321-0.659c0.483,0,0.897,0.358,1.09,0.788
		c0.339-0.456,0.87-0.788,1.461-0.788c0.779,0,1.257,0.82,1.257,1.524v5.645h-1.81v-5.285c0-0.177,0-0.516-0.263-0.516
		c-0.183,0-0.408,0.285-0.494,0.398v5.403h-1.81v-5.296c0-0.172-0.006-0.505-0.247-0.505c-0.21,0-0.409,0.269-0.511,0.403
		l0.006,5.398H79.622z M76.903,51.952v-3.47c0-0.242-0.075-0.532-0.414-0.532c-0.327,0-0.37,0.306-0.37,0.532v3.47
		c0,0.236,0.01,0.59,0.37,0.59C76.86,52.542,76.903,52.199,76.903,51.952 M74.31,51.93v-2.981c0-1.434,0.633-2.363,2.18-2.363
		s2.208,0.924,2.208,2.363v2.981c0,1.203-1.037,1.977-2.208,1.977C75.324,53.907,74.31,53.127,74.31,51.93 M70.823,53.75v-7.009
		h1.799v0.569c0.231-0.376,0.553-0.671,0.967-0.671c0.166,0,0.322,0.026,0.489,0.053l-0.108,1.526
		c-0.198-0.022-0.386-0.053-0.596-0.053c-0.494,0-0.752,0.316-0.752,0.88v4.705H70.823z M65.462,55.744v-9.002h1.811v0.472
		c0.273-0.354,0.692-0.632,1.165-0.632c0.843,0,1.456,0.826,1.456,1.685v4.141c0,0.779-0.591,1.499-1.402,1.499
		c-0.489,0-0.935-0.263-1.219-0.682v2.519H65.462z M68.084,52.038v-3.626c0-0.209-0.027-0.462-0.301-0.462
		c-0.21,0-0.408,0.269-0.51,0.403v3.803c0.096,0.135,0.295,0.386,0.51,0.386C68.063,52.542,68.084,52.263,68.084,52.038
		 M58.523,52.392v-5.65h1.81v5.21c0,0.198,0,0.59,0.247,0.59c0.236,0,0.451-0.257,0.564-0.397v-5.403h1.81v7.009h-1.81v-0.607
		c-0.338,0.414-0.849,0.763-1.38,0.763C58.98,53.907,58.523,53.096,58.523,52.392 M53.211,53.75v-9.668h1.81v5.092l1.107-2.433
		h1.938l-1.724,2.959l1.719,4.05h-1.874l-0.924-3.126l-0.242,0.408v2.718H53.211z M48.259,52.059l1.386-0.494
		c0.118,0.36,0.327,1.015,0.778,1.015c0.269,0,0.339-0.172,0.339-0.397c0-0.495-0.51-0.919-1.074-1.402l-0.296-0.253
		c-0.628-0.548-1.23-1.187-1.23-2.057c0-1.262,1.117-1.885,2.267-1.885c1.079,0,1.885,0.967,2.159,1.96l-1.3,0.446
		c-0.15-0.387-0.424-1.069-0.913-1.069c-0.268,0-0.397,0.231-0.397,0.441c0,0.354,0.504,0.805,0.977,1.203l0.333,0.295
		c0.618,0.559,1.262,1.257,1.262,2.09c0,1.154-0.934,1.955-2.046,1.955C49.376,53.907,48.561,53.127,48.259,52.059 M45.708,52.166
		l-0.006-1.724c-0.467,0.376-0.886,0.881-0.886,1.579c0,0.237,0.075,0.521,0.365,0.521C45.423,52.542,45.584,52.322,45.708,52.166
		 M46.073,53.75l-0.177-0.725c-0.226,0.698-0.752,0.881-1.392,0.881c-1.074,0-1.45-0.903-1.45-1.719c0-1.73,1.198-2.314,2.648-2.911
		v-0.591c0-0.467-0.096-0.736-0.403-0.736c-0.419,0-0.435,0.392-0.435,0.736v0.397h-1.756c0-1.6,0.816-2.501,2.369-2.501
		c1.063,0,2.019,0.89,2.019,1.975v3.33c0,0.645,0.086,1.237,0.231,1.864H46.073z M44.849,46.264l0.731-2.374h1.853l-1.488,2.374
		H44.849z M40.417,44.083h1.81v9.668h-1.81V44.083z M33.472,52.392v-5.65h1.81v5.21c0,0.198,0,0.59,0.247,0.59
		c0.237,0,0.452-0.257,0.564-0.397v-5.403h1.81v7.009h-1.81v-0.607c-0.338,0.414-0.848,0.763-1.38,0.763
		C33.929,53.907,33.472,53.096,33.472,52.392 M30.792,51.952v-3.47c0-0.242-0.075-0.532-0.414-0.532c-0.327,0-0.37,0.306-0.37,0.532
		v3.47c0,0.236,0.011,0.59,0.37,0.59C30.75,52.542,30.792,52.199,30.792,51.952 M28.198,51.93v-2.981
		c0-1.434,0.634-2.363,2.18-2.363c1.547,0,2.208,0.924,2.208,2.363v2.981c0,1.203-1.037,1.977-2.208,1.977
		C29.213,53.907,28.198,53.127,28.198,51.93 M24.605,53.75l-1.456-7.009h1.697l0.693,4.732l0.586-4.732h1.697l-1.386,7.009H24.605z
		 M18.67,52.059l1.385-0.494c0.118,0.36,0.328,1.015,0.779,1.015c0.269,0,0.338-0.172,0.338-0.397c0-0.495-0.51-0.919-1.074-1.402
		l-0.295-0.253c-0.629-0.548-1.23-1.187-1.23-2.057c0-1.262,1.117-1.885,2.266-1.885c1.08,0,1.886,0.967,2.16,1.96l-1.3,0.446
		c-0.151-0.387-0.425-1.069-0.913-1.069c-0.269,0-0.398,0.231-0.398,0.441c0,0.354,0.505,0.805,0.978,1.203l0.333,0.295
		c0.617,0.559,1.262,1.257,1.262,2.09c0,1.154-0.935,1.955-2.046,1.955C19.788,53.907,18.97,53.127,18.67,52.059 M14.083,49.449
		h0.703v-0.967c0-0.242-0.064-0.532-0.36-0.532c-0.284,0-0.343,0.306-0.343,0.532V49.449z M12.273,51.93v-2.981
		c0-1.434,0.649-2.367,2.153-2.367c1.51,0,2.154,0.928,2.154,2.367v1.45h-2.497v1.553c0,0.231,0.026,0.59,0.343,0.59
		c0.323,0,0.376-0.333,0.376-0.633v-0.768h1.778v0.789c0,1.203-1.01,1.977-2.154,1.977C13.289,53.907,12.273,53.127,12.273,51.93
		 M7.793,53.75v-1.225l1.928-4.479H8.094v-1.305h3.496v1.197l-1.944,4.501h1.944v1.311H7.793z M8.878,46.312l-1.08-2.181h1.472
		l0.392,1.08l0.403-1.08h1.477l-1.106,2.181H8.878z"/>
	<path clip-path="url(#SVGID_8_)" d="M177.878,39v1.751h0.875c0,0.609-0.24,0.875-0.875,0.875l0.438,0.874
		c1.108,0,1.258-0.738,1.292-1.844c0.014-0.446,0.021-0.998,0.021-1.656H177.878z M175.273,35.5h-1.75
		c0-0.902-0.027-2.187,0.875-2.187C175.294,33.313,175.273,34.59,175.273,35.5 M173.523,36.813v-0.437h3.5v-0.206
		c0-2.372-0.342-4.293-2.625-4.293c-2.283,0-2.625,1.921-2.625,4.293c0,2.483,0.233,4.705,2.618,4.705
		c1.908,0,2.632-1.169,2.632-3.187h-1.743c0,0.883,0,1.75-0.882,1.75C173.414,39.438,173.523,37.825,173.523,36.813 M168.218,33.313
		c0.479,0,0.438,0.567,0.438,1.054v6.384h1.75v-6.365c0-1.345,0.034-2.509-1.313-2.509c-1.086,0-1.674,0.487-2.187,1.157
		c-0.13-0.767-0.451-1.157-1.319-1.157c-1.033,0-1.709,0.554-2.181,1.116V32h-1.75v8.75h1.75v-6.883
		c0.314-0.26,0.752-0.555,1.312-0.555c0.486,0,0.438,0.589,0.438,1.088v6.35h1.75v-6.849
		C167.227,33.641,167.644,33.313,168.218,33.313 M158.771,35.5h-1.75c0-0.902-0.027-2.187,0.875-2.187
		C158.792,33.313,158.771,34.59,158.771,35.5 M157.021,36.813v-0.437h3.5v-0.206c0-2.372-0.342-4.293-2.625-4.293
		c-2.283,0-2.625,1.921-2.625,4.293c0,2.483,0.233,4.705,2.618,4.705c1.908,0,2.632-1.169,2.632-3.187h-1.743
		c0,0.883,0,1.75-0.882,1.75C156.912,39.438,157.021,37.825,157.021,36.813 M152.195,30.688h1.75v-1.75h-1.75V30.688z
		 M151.758,42.938c1.346,0,2.187-0.778,2.187-2.14V32h-1.75v8.607c0,0.607-0.239,1.018-0.875,1.018
		c-0.123,0-0.335-0.028-0.437-0.047v1.244C151.115,42.912,151.457,42.938,151.758,42.938 M148.62,39.807v0.944h1.75V32h-1.75v6.924
		c-0.294,0.241-0.636,0.617-1.149,0.617c-0.355,0-0.601-0.253-0.601-0.617V32h-1.75v7.458c0,0.78,0.492,1.416,1.271,1.416
		C147.437,40.875,147.998,40.361,148.62,39.807 M141.469,33.313c0.479,0,0.438,0.567,0.438,1.054v6.384h1.75v-6.365
		c0-1.345,0.034-2.509-1.313-2.509c-1.086,0-1.674,0.487-2.187,1.157c-0.13-0.767-0.451-1.157-1.319-1.157
		c-1.033,0-1.709,0.554-2.181,1.116V32h-1.75v8.75h1.75v-6.883c0.314-0.26,0.752-0.555,1.312-0.555c0.486,0,0.438,0.589,0.438,1.088
		v6.35h1.75v-6.849C140.478,33.641,140.895,33.313,141.469,33.313 M131.68,36.375v2.419c-0.184,0.247-0.451,0.643-0.875,0.643
		c-0.628,0-0.875-0.431-0.875-1.087C129.93,37.292,130.99,36.839,131.68,36.375 M130.805,31.876c-1.661,0-2.604,1.094-2.625,2.748
		h1.75c0-0.764,0.158-1.393,0.875-1.393c0.732,0,0.875,0.621,0.875,1.393v0.629c-1.688,0.663-3.5,1.287-3.5,3.563
		c0,1.017,0.739,2.058,1.75,2.058c1.012,0,1.402-0.747,1.75-1.437l0.233,1.313h1.743c-0.171-0.623-0.226-1.292-0.226-2.188v-3.938
		C133.43,33,132.467,31.876,130.805,31.876 M123.573,32.944V32h-1.75v8.75h1.75v-6.924c0.287-0.241,0.602-0.514,1.094-0.514
		c0.567,0,0.656,0.321,0.656,0.875v6.563h1.75v-7.459c0-0.764-0.485-1.415-1.258-1.415
		C124.769,31.876,124.188,32.382,123.573,32.944 M119.02,33.313l-3.062,6.125v1.313h4.812v-1.313h-3.062l3.062-6.125V32h-4.375
		v1.312H119.02z M112.417,33.313c0.875,0,0.875,0.875,0.875,1.75v2.625c0,0.875,0,1.75-0.875,1.75s-0.875-0.875-0.875-1.75v-2.625
		C111.542,34.188,111.542,33.313,112.417,33.313 M112.417,40.875c1.968,0,2.625-1.246,2.625-3.187v-2.625
		c0-1.94-0.657-3.186-2.625-3.186c-1.969,0-2.625,1.246-2.625,3.186v2.625C109.792,39.628,110.448,40.875,112.417,40.875
		 M104.138,40.75h1.75V32h-1.75V40.75z M105.451,31.18l1.75-2.625h-1.75l-0.875,2.625H105.451z M102.983,40.792v-1.421
		c-0.157,0.027-0.424,0.067-0.588,0.067c-0.629,0-0.724-0.396-0.724-1.019v-5.106h1.312V32h-1.312v-3.063h-1.75V32h-0.875v1.312
		h0.875v5.441c0.013,1.381,0.574,2.121,1.982,2.121C102.327,40.875,102.546,40.846,102.983,40.792 M97.125,34.625l1.312-0.437
		c-0.294-1.243-1.059-2.311-2.625-2.311c-1.552,0-2.625,0.781-2.625,2.311c0,1.039,0.65,1.594,1.313,2.052l1.75,1.311
		c0.246,0.227,0.437,0.533,0.437,1.012c0,0.562-0.321,0.875-0.875,0.875c-0.738,0-1.114-0.759-1.312-1.313l-1.313,0.438
		c0.294,1.244,1.087,2.312,2.625,2.312c1.552,0,2.625-0.781,2.625-2.312c0-1.106-0.622-1.771-1.312-2.323l-1.75-1.314
		c-0.192-0.142-0.438-0.395-0.438-0.738c0-0.561,0.322-0.875,0.875-0.875C96.564,33.313,96.913,34.072,97.125,34.625 M89.544,33.313
		c0.875,0,0.875,0.875,0.875,1.75v2.625c0,0.875,0,1.75-0.875,1.75s-0.875-0.875-0.875-1.75v-2.625
		C88.669,34.188,88.669,33.313,89.544,33.313 M89.544,40.875c1.968,0,2.625-1.246,2.625-3.187v-2.625
		c0-1.94-0.657-3.186-2.625-3.186c-1.969,0-2.625,1.246-2.625,3.186v2.625C86.919,39.628,87.575,40.875,89.544,40.875
		 M81.956,31.876c-2.188,0-2.16,2.639-2.16,4.929c0,1.772,0.43,4.069,2.187,4.069c0.793,0,1.347-0.499,1.75-0.916v0.792h1.75V28.506
		h-1.75v4.363C83.275,32.382,82.783,31.876,81.956,31.876 M81.546,35.931c0-1.053-0.151-2.618,0.875-2.618
		c0.485,0,0.991,0.157,1.312,0.35v5.503c-0.389,0.157-0.861,0.272-1.312,0.272C81.361,39.438,81.546,37.126,81.546,35.931
		 M76.733,36.375v2.419c-0.184,0.247-0.451,0.643-0.875,0.643c-0.629,0-0.875-0.431-0.875-1.087
		C74.983,37.292,76.043,36.839,76.733,36.375 M75.858,31.876c-1.661,0-2.604,1.094-2.625,2.748h1.75
		c0-0.764,0.157-1.393,0.875-1.393c0.732,0,0.875,0.621,0.875,1.393v0.629c-1.688,0.663-3.5,1.287-3.5,3.563
		c0,1.017,0.738,2.058,1.75,2.058c1.012,0,1.402-0.747,1.75-1.437l0.233,1.313h1.743c-0.171-0.623-0.226-1.292-0.226-2.188v-3.938
		C78.483,33,77.519,31.876,75.858,31.876 M70.82,33.168V32h-1.75v8.75h1.75v-5.907c0-0.723,0.492-1.195,1.217-1.195
		c0.342,0,0.711,0.089,0.971,0.19v-1.933c-0.13-0.015-0.192-0.029-0.281-0.029C71.825,31.876,71.135,32.561,70.82,33.168
		 M64.237,34.625l1.313-0.437c-0.294-1.243-1.06-2.311-2.625-2.311c-1.552,0-2.625,0.781-2.625,2.311
		c0,1.039,0.649,1.594,1.312,2.052l1.75,1.311c0.246,0.227,0.438,0.533,0.438,1.012c0,0.562-0.322,0.875-0.875,0.875
		c-0.739,0-1.115-0.759-1.313-1.313L60.3,38.563c0.294,1.244,1.086,2.312,2.625,2.312c1.551,0,2.625-0.781,2.625-2.312
		c0-1.106-0.623-1.771-1.313-2.323l-1.75-1.314c-0.191-0.142-0.437-0.395-0.437-0.738c0-0.561,0.321-0.875,0.875-0.875
		C63.677,33.313,64.025,34.072,64.237,34.625 M54.605,33.313c0.479,0,0.438,0.567,0.438,1.054v6.384h1.75v-6.365
		c0-1.345,0.034-2.509-1.313-2.509c-1.087,0-1.675,0.487-2.187,1.157c-0.13-0.767-0.451-1.157-1.32-1.157
		c-1.032,0-1.709,0.554-2.18,1.116V32h-1.75v8.75h1.75v-6.883c0.314-0.26,0.752-0.555,1.312-0.555c0.486,0,0.438,0.589,0.438,1.088
		v6.35h1.75v-6.849C53.614,33.641,54.031,33.313,54.605,33.313 M44.816,36.375v2.419c-0.184,0.247-0.451,0.643-0.875,0.643
		c-0.629,0-0.875-0.431-0.875-1.087C43.066,37.292,44.126,36.839,44.816,36.375 M43.941,31.876c-1.661,0-2.604,1.094-2.625,2.748
		h1.75c0-0.764,0.157-1.393,0.875-1.393c0.732,0,0.875,0.621,0.875,1.393v0.629c-1.688,0.663-3.5,1.287-3.5,3.563
		c0,1.017,0.738,2.058,1.75,2.058c1.012,0,1.402-0.747,1.75-1.437l0.233,1.313h1.743c-0.171-0.623-0.226-1.292-0.226-2.188v-3.938
		C46.566,33,45.602,31.876,43.941,31.876 M44.491,31.18l1.75-2.625h-1.75l-0.875,2.625H44.491z M38.65,35.063l-0.465,3.062
		l-0.451-3.062L36.442,28.5h-1.75l2.625,12.251h1.75L41.692,28.5h-1.75L38.65,35.063z M29.593,40.75h1.75V32h-1.75V40.75z
		 M30.905,31.18l1.75-2.625h-1.75L30.03,31.18H30.905z M24.486,32.944V32h-1.75v8.75h1.75v-6.924
		c0.287-0.241,0.602-0.514,1.094-0.514c0.567,0,0.656,0.321,0.656,0.875v6.563h1.75v-7.459c0-0.764-0.485-1.415-1.258-1.415
		C25.682,31.876,25.101,32.382,24.486,32.944 M16.686,41.625v1.312c1.682,0,2.748-0.39,3.063-1.75L21.936,32h-1.75
		c-0.362,2.043-0.759,4.046-1.087,6.124c-0.348-2.056-0.731-4.081-1.1-6.124h-1.75l1.982,8.353
		C18.231,41.244,17.589,41.625,16.686,41.625 M11.99,32.944V32h-1.75v8.75h1.75v-6.924c0.287-0.241,0.602-0.514,1.094-0.514
		c0.567,0,0.656,0.321,0.656,0.875v6.563h1.75v-7.459c0-0.764-0.485-1.415-1.258-1.415C13.186,31.876,12.605,32.382,11.99,32.944
		 M4.375,36.375h-1.75l0.875-5.25L4.375,36.375z M2.406,37.688h2.188L5.25,40.75H7L4.375,28.5h-1.75L0,40.75h1.75L2.406,37.688z"/>
	<path clip-path="url(#SVGID_8_)" d="M160.158,22.583h2.222v2.167h-2.222V22.583z M156.521,12.897h2.304v2.152h-2.304V12.897z
		 M156.521,15.829h2.304v8.921h-2.304V15.829z M152.905,12.447h2.304v12.305h-2.304V12.447z M149.351,22.735l-0.007-2.196
		c-0.594,0.48-1.128,1.121-1.128,2.01c0,0.302,0.096,0.663,0.465,0.663C148.988,23.212,149.193,22.933,149.351,22.735
		 M149.815,24.75l-0.226-0.923c-0.287,0.889-0.957,1.123-1.77,1.123c-1.367,0-1.846-1.15-1.846-2.189c0-2.2,1.525-2.945,3.37-3.704
		v-0.753c0-0.595-0.123-0.936-0.512-0.936c-0.534,0-0.554,0.5-0.554,0.936v0.507h-2.235c0-2.037,1.039-3.187,3.014-3.187
		c1.354,0,2.571,1.135,2.571,2.517v4.237c0,0.822,0.109,1.573,0.293,2.372H149.815z M141.538,24.75l-1.853-8.921h2.16l0.882,6.024
		l0.745-6.024h2.16l-1.763,8.921H141.538z M136.917,22.46v-4.416c0-0.306-0.096-0.676-0.527-0.676c-0.417,0-0.471,0.389-0.471,0.676
		v4.416c0,0.301,0.013,0.752,0.471,0.752C136.861,23.212,136.917,22.776,136.917,22.46 M133.614,22.434V18.64
		c0-1.825,0.806-3.009,2.775-3.009c1.969,0,2.81,1.177,2.81,3.009v3.794c0,1.53-1.32,2.516-2.81,2.516
		C134.906,24.95,133.614,23.957,133.614,22.434 M130.122,12.447h2.304v12.305h-2.304V12.447z M126.504,12.897h2.304v2.152h-2.304
		V12.897z M126.504,15.829h2.304v8.921h-2.304V15.829z M116.421,24.75v-8.921h2.304v0.636c0.41-0.477,1.026-0.841,1.682-0.841
		c0.615,0,1.141,0.458,1.388,1.005c0.43-0.581,1.107-1.005,1.859-1.005c0.991,0,1.599,1.046,1.599,1.943v7.183h-2.303v-6.725
		c0-0.227,0-0.657-0.335-0.657c-0.233,0-0.52,0.363-0.629,0.505v6.877h-2.304v-6.74c0-0.219-0.007-0.642-0.314-0.642
		c-0.267,0-0.52,0.341-0.65,0.512l0.007,6.87H116.421z M112.88,22.735l-0.006-2.196c-0.595,0.48-1.128,1.121-1.128,2.01
		c0,0.302,0.095,0.663,0.465,0.663C112.519,23.212,112.724,22.933,112.88,22.735 M113.345,24.75l-0.225-0.923
		c-0.287,0.889-0.957,1.123-1.771,1.123c-1.367,0-1.846-1.15-1.846-2.189c0-2.2,1.525-2.945,3.371-3.704v-0.753
		c0-0.595-0.123-0.936-0.513-0.936c-0.533,0-0.554,0.5-0.554,0.936v0.507h-2.235c0-2.037,1.039-3.187,3.015-3.187
		c1.353,0,2.57,1.135,2.57,2.517v4.237c0,0.822,0.109,1.573,0.294,2.372H113.345z M103.939,24.75v-1.557l2.454-5.701h-2.071v-1.663
		h4.45v1.526l-2.475,5.727h2.475v1.668H103.939z M73.39,26.418l-0.273-1.133c0.492,0,0.547,0.046,0.554-0.528h-0.752v-2.174h2.208
		C75.126,24.921,75.324,26.705,73.39,26.418 M69.383,12.897h2.304v2.152h-2.304V12.897z M69.383,15.829h2.304v8.921h-2.304V15.829z
		 M65.768,12.447h2.304v12.305h-2.304V12.447z M62.151,12.897h2.304v2.152h-2.304V12.897z M62.151,15.829h2.304v8.921h-2.304V15.829
		z M52.068,24.75v-8.921h2.304v0.636c0.41-0.477,1.025-0.841,1.681-0.841c0.616,0,1.142,0.458,1.388,1.005
		c0.431-0.581,1.107-1.005,1.859-1.005c0.992,0,1.6,1.046,1.6,1.943v7.183h-2.304v-6.725c0-0.227,0-0.657-0.335-0.657
		c-0.232,0-0.519,0.363-0.629,0.505v6.877H55.33v-6.74c0-0.219-0.007-0.642-0.315-0.642c-0.266,0-0.519,0.341-0.649,0.512
		l0.007,6.87H52.068z M48.527,22.735l-0.007-2.196c-0.595,0.48-1.128,1.121-1.128,2.01c0,0.302,0.096,0.663,0.465,0.663
		C48.166,23.212,48.371,22.933,48.527,22.735 M48.992,24.75l-0.226-0.923c-0.287,0.889-0.957,1.123-1.77,1.123
		c-1.368,0-1.846-1.15-1.846-2.189c0-2.2,1.524-2.945,3.37-3.704v-0.753c0-0.595-0.123-0.936-0.513-0.936
		c-0.533,0-0.553,0.5-0.553,0.936v0.507h-2.236c0-2.037,1.039-3.187,3.015-3.187c1.353,0,2.57,1.135,2.57,2.517v4.237
		c0,0.822,0.11,1.573,0.294,2.372H48.992z M47.434,15.221l0.93-3.02h2.358l-1.893,3.02H47.434z M38.526,24.75v-8.921h2.304v0.629
		c0.423-0.477,1.066-0.827,1.75-0.827c0.991,0,1.579,1.032,1.579,1.929v7.19h-2.304v-6.788c0-0.19,0-0.594-0.383-0.594
		c-0.266,0-0.512,0.315-0.642,0.464v6.918H38.526z M32.715,24.75v-1.557l2.455-5.701h-2.072v-1.663h4.45v1.526l-2.474,5.727h2.474
		v1.668H32.715z M28.737,19.276h0.895v-1.232c0-0.306-0.082-0.676-0.458-0.676c-0.362,0-0.437,0.389-0.437,0.676V19.276z
		 M26.434,22.434V18.64c0-1.825,0.827-3.016,2.741-3.016c1.921,0,2.742,1.184,2.742,3.016v1.846h-3.179v1.974
		c0,0.294,0.034,0.752,0.437,0.752c0.411,0,0.479-0.424,0.479-0.805v-0.979h2.263v1.006c0,1.53-1.286,2.516-2.742,2.516
		C27.726,24.95,26.434,23.957,26.434,22.434 M20.274,22.597l1.764-0.629c0.15,0.458,0.417,1.292,0.991,1.292
		c0.342,0,0.431-0.219,0.431-0.506c0-0.629-0.65-1.169-1.368-1.784l-0.376-0.32c-0.799-0.699-1.565-1.512-1.565-2.618
		c0-1.608,1.422-2.401,2.885-2.401c1.374,0,2.399,1.232,2.748,2.495l-1.655,0.569c-0.191-0.494-0.54-1.362-1.162-1.362
		c-0.341,0-0.505,0.294-0.505,0.562c0,0.45,0.642,1.024,1.244,1.53l0.423,0.376c0.787,0.711,1.607,1.601,1.607,2.659
		c0,1.47-1.19,2.49-2.605,2.49C21.696,24.95,20.657,23.957,20.274,22.597"/>
	<path clip-path="url(#SVGID_8_)" d="M142.852,7.5v1.25h0.625c0,0.436-0.171,0.625-0.625,0.625L143.164,10
		c0.791,0,0.899-0.526,0.923-1.317c0.01-0.319,0.015-0.713,0.015-1.183H142.852z M140.991,5h-1.25c0-0.645-0.02-1.562,0.625-1.562
		C141.005,3.438,140.991,4.352,140.991,5 M139.741,5.937V5.625h2.5V5.479c0-1.695-0.245-3.067-1.875-3.067
		c-1.631,0-1.875,1.372-1.875,3.067c0,1.773,0.166,3.36,1.87,3.36c1.362,0,1.88-0.835,1.88-2.277h-1.246c0,0.63,0,1.251-0.629,1.251
		C139.663,7.813,139.741,6.66,139.741,5.937 M136.865,4.375l0.937-0.312c-0.21-0.888-0.757-1.651-1.875-1.651
		c-1.108,0-1.875,0.558-1.875,1.651c0,0.743,0.464,1.137,0.938,1.464l1.25,0.939c0.175,0.161,0.312,0.381,0.312,0.722
		c0,0.401-0.229,0.625-0.625,0.625c-0.527,0-0.796-0.542-0.937-0.938l-0.938,0.313c0.21,0.888,0.776,1.651,1.875,1.651
		c1.109,0,1.875-0.558,1.875-1.651c0-0.792-0.444-1.264-0.937-1.661l-1.25-0.936c-0.137-0.104-0.313-0.283-0.313-0.528
		c0-0.401,0.23-0.625,0.625-0.625C136.464,3.438,136.713,3.979,136.865,4.375 M130.581,5h-1.25c0-0.645-0.019-1.562,0.625-1.562
		C130.595,3.438,130.581,4.352,130.581,5 M129.331,5.937V5.625h2.5V5.479c0-1.695-0.244-3.067-1.875-3.067
		c-1.63,0-1.875,1.372-1.875,3.067c0,1.773,0.166,3.36,1.871,3.36c1.362,0,1.879-0.835,1.879-2.277h-1.245
		c0,0.63,0,1.251-0.63,1.251C129.252,7.813,129.331,6.66,129.331,5.937 M125.542,3.438c0.342,0,0.313,0.406,0.313,0.751V8.75h1.25
		V4.204c0-0.962,0.024-1.792-0.938-1.792c-0.776,0-1.196,0.348-1.562,0.825c-0.093-0.547-0.322-0.825-0.943-0.825
		c-0.737,0-1.22,0.397-1.557,0.796V2.5h-1.25v6.25h1.25V3.833c0.224-0.186,0.537-0.395,0.937-0.395c0.347,0,0.313,0.419,0.313,0.777
		V8.75h1.25V3.857C124.833,3.673,125.131,3.438,125.542,3.438 M119.111,4.375l0.937-0.312c-0.21-0.888-0.757-1.651-1.875-1.651
		c-1.108,0-1.875,0.558-1.875,1.651c0,0.743,0.464,1.137,0.938,1.464l1.25,0.939c0.175,0.161,0.312,0.381,0.312,0.722
		c0,0.401-0.229,0.625-0.625,0.625c-0.527,0-0.796-0.542-0.937-0.938l-0.938,0.313c0.21,0.888,0.777,1.651,1.875,1.651
		c1.109,0,1.875-0.558,1.875-1.651c0-0.792-0.444-1.264-0.937-1.661l-1.25-0.936c-0.137-0.104-0.313-0.283-0.313-0.528
		c0-0.401,0.23-0.625,0.625-0.625C118.71,3.438,118.959,3.979,119.111,4.375 M114.282,1.563h1.25v-1.25h-1.25V1.563z
		 M113.969,10.312c0.962,0,1.563-0.555,1.563-1.528V2.5h-1.25v6.147c0,0.435-0.171,0.728-0.625,0.728
		c-0.088,0-0.24-0.02-0.313-0.033v0.887C113.51,10.294,113.754,10.312,113.969,10.312 M60.674,1.563h1.25v-1.25h-1.25V1.563z
		 M60.674,8.75h1.25V2.5h-1.25V8.75z M57.668,0h-1.25v8.75h1.25V0z M52.852,4.375l0.937-0.312c-0.21-0.888-0.757-1.651-1.875-1.651
		c-1.108,0-1.875,0.558-1.875,1.651c0,0.743,0.464,1.137,0.938,1.464l1.25,0.939c0.175,0.161,0.312,0.381,0.312,0.722
		c0,0.401-0.229,0.625-0.625,0.625c-0.527,0-0.796-0.542-0.937-0.938l-0.938,0.313c0.21,0.888,0.776,1.651,1.875,1.651
		c1.108,0,1.875-0.558,1.875-1.651c0-0.792-0.444-1.264-0.937-1.661l-1.25-0.936c-0.137-0.104-0.313-0.283-0.313-0.528
		c0-0.401,0.23-0.625,0.625-0.625C52.45,3.438,52.699,3.979,52.852,4.375 M52.539,0.039l-0.625,1.25l-0.625-1.25h-0.937l0.937,1.875
		h1.25l0.938-1.875H52.539z M46.231,5.625v1.729c-0.132,0.175-0.322,0.459-0.625,0.459c-0.449,0-0.625-0.307-0.625-0.777
		C44.981,6.279,45.738,5.957,46.231,5.625 M45.606,2.412c-1.186,0-1.86,0.781-1.875,1.963h1.25c0-0.547,0.113-0.995,0.625-0.995
		c0.523,0,0.625,0.443,0.625,0.995v0.449c-1.206,0.475-2.5,0.918-2.5,2.544c0,0.729,0.528,1.471,1.25,1.471
		c0.723,0,1.001-0.532,1.25-1.026l0.166,0.937h1.245c-0.122-0.443-0.161-0.923-0.161-1.562V4.375
		C47.481,3.214,46.793,2.412,45.606,2.412 M40.149,8.75h0.889V0h-1.25v5.41L37.601,0h-0.937v8.75h1.25V2.931L40.149,8.75z"/>
</g>
<polygon points="90.322,43.891 89.551,45.433 88.78,43.891 87.623,43.891 88.78,46.204 90.322,46.204 91.479,43.891 "/>
<polygon fill="#C25679" points="112.489,99.926 111.718,101.468 110.947,99.926 109.79,99.926 110.947,102.239 112.489,102.239 
	113.646,99.926 "/>
<g>
	<defs>
		<rect id="SVGID_9_" x="-229.489" y="-122.088" width="203.485" height="39.815"/>
	</defs>
	<clipPath id="SVGID_10_">
		<use xlink:href="#SVGID_9_"  overflow="visible"/>
	</clipPath>
	<path clip-path="url(#SVGID_10_)" fill="#725548" d="M-30.104-98.632l3.642-10.215h-3.457l-3.623,10.215
		c-0.072,0.215-0.107,0.407-0.107,0.576c0,0.657,0.481,0.986,1.445,0.986h3.76c0.468,0,0.908-0.097,1.318-0.292
		c0.586-0.274,0.96-0.697,1.123-1.27H-30.104z M-41.081-98.632c-1.107,0-1.66-0.283-1.66-0.851c0-0.116,0.019-0.246,0.058-0.389
		l0.684-2.277h2.158L-41.081-98.632z M-37.595-98.632l1.836-5.078h-5.576c-1.393,0-2.562,0.358-3.506,1.074
		c-1.041,0.788-1.562,1.861-1.562,3.223c0,0.755,0.237,1.367,0.713,1.836c0.475,0.467,1.093,0.703,1.855,0.703
		c1.035,0,1.908-0.404,2.617-1.211c0,0.677,0.528,1.015,1.582,1.015h3.701c1.283,0,2.081-0.52,2.393-1.562H-37.595z M-50.183-98.632
		l1.241-3.496c0.117-0.314,0.175-0.589,0.175-0.83c0-0.664-0.325-0.996-0.976-0.996c-0.977,0-1.849,0.316-2.617,0.947l-2.979,2.44
		l2.94-8.299h-3.516l-4.18,11.796h2.012c0.508,0,0.99-0.198,1.445-0.595l3.702-3.047l-0.704,2.08
		c-0.097,0.3-0.146,0.553-0.146,0.762c0,0.534,0.368,0.8,1.103,0.8h4.161c0.455,0,0.882-0.097,1.279-0.292
		c0.553-0.274,0.914-0.697,1.084-1.27H-50.183z M-66.882-98.632c-0.905,0-1.357-0.286-1.357-0.859c0-0.15,0.032-0.316,0.097-0.498
		l0.762-2.16h1.182v0.236c-0.007,0.521,0.184,0.962,0.571,1.323c0.387,0.361,0.858,0.542,1.411,0.542
		c0.547,0,1.017-0.179,1.411-0.537c0.394-0.359,0.591-0.794,0.591-1.309c0-0.509-0.195-0.937-0.586-1.289
		c-0.39-0.351-0.862-0.527-1.416-0.527h-2.461c-1.295,0-2.418,0.29-3.369,0.869c-1.081,0.658-1.686,1.569-1.816,2.733
		c-0.013,0.112-0.02,0.22-0.02,0.324c0,0.957,0.482,1.673,1.446,2.148c0.761,0.378,1.702,0.566,2.822,0.566h5.879
		c0.553,0,1.038-0.126,1.455-0.38c0.455-0.28,0.755-0.674,0.898-1.182H-66.882z M-75.583-98.632l1.807-5.078h-3.545l-1.699,4.756
		c-0.092,0.254-0.137,0.491-0.137,0.713c0,0.781,0.465,1.171,1.396,1.171h3.858c0.449,0,0.866-0.097,1.25-0.292
		c0.533-0.274,0.885-0.697,1.054-1.27H-75.583z M-73.059-109.364c-0.504-0.456-1.111-0.684-1.821-0.684
		c-0.723,0-1.336,0.228-1.841,0.684c-0.504,0.455-0.757,1.004-0.757,1.65c0,0.651,0.253,1.204,0.757,1.66
		c0.505,0.456,1.118,0.684,1.841,0.684c0.71,0,1.317-0.228,1.821-0.684c0.505-0.456,0.757-1.009,0.757-1.66
		C-72.302-108.36-72.554-108.909-73.059-109.364 M-83.415-98.632l2.334-6.162c0.13-0.339,0.195-0.649,0.195-0.928
		c0-0.488-0.195-0.859-0.586-1.113c-0.254-0.169-0.494-0.254-0.722-0.254c-0.573-0.006-1.013,0.078-1.319,0.254
		c-0.175,0.111-0.53,0.432-1.064,0.967l-3.76,3.779l1.895-4.922c0.143-0.358,0.214-0.681,0.214-0.967
		c0-0.463-0.179-0.81-0.537-1.046c-0.234-0.148-0.459-0.223-0.673-0.223c-0.756,0-1.371,0.15-1.846,0.449
		c-0.287,0.182-0.697,0.58-1.231,1.19l-4.199,4.757l2.1-6.054c0.123-0.358,0.185-0.665,0.185-0.918c0-0.659-0.449-0.987-1.347-0.987
		h-6.524l-1.474,2.461h5.42L-100.3-97.07h1.983c0.781,0,1.373-0.248,1.777-0.742l6.025-7.275l-2.402,6.201
		c-0.117,0.293-0.176,0.566-0.176,0.819c0,0.659,0.371,1.03,1.114,1.115c0.13,0.019,0.253,0.029,0.371,0.029
		c0.618,0,1.188-0.29,1.709-0.869l4.843-5.313l-1.621,4.219c-0.136,0.358-0.205,0.648-0.205,0.869c0,0.632,0.547,0.947,1.641,0.947
		h3.506c1.536,0,2.441-0.52,2.715-1.562H-83.415z"/>
	<path clip-path="url(#SVGID_10_)" fill="#C25679" d="M-162.595-98.632c-1.107,0-1.66-0.283-1.66-0.849
		c0-0.118,0.019-0.249,0.059-0.391l0.683-2.276h2.158L-162.595-98.632z M-159.109-98.632l1.836-5.078h-5.576
		c-1.393,0-2.562,0.357-3.506,1.074c-1.041,0.788-1.562,1.862-1.562,3.223c0,0.755,0.238,1.367,0.713,1.836
		c0.475,0.469,1.093,0.703,1.855,0.703c1.035,0,1.908-0.404,2.617-1.211c0,0.677,0.528,1.016,1.582,1.016h3.702
		c1.282,0,2.08-0.521,2.392-1.563H-159.109z M-171.726-98.632l0.957-2.638c0.104-0.293,0.156-0.549,0.156-0.77
		c0-0.697-0.452-1.045-1.357-1.045h-0.742l2.266-2.344h-2.247l-3.896,3.877l2.598-7.295h-3.516l-4.16,11.778h1.455
		c0.495,0,0.918-0.095,1.269-0.285c0.267-0.142,0.658-0.448,1.172-0.918c2.09-1.86,3.285-2.948,3.584-3.26l-1.006,2.724
		c-0.091,0.254-0.136,0.489-0.136,0.702c0,0.692,0.446,1.037,1.338,1.037h3.837c0.469,0,0.909-0.098,1.319-0.293
		c0.586-0.274,0.96-0.697,1.123-1.27H-171.726z M-184.988-98.632l1.26-3.516c0.104-0.299,0.156-0.569,0.156-0.81
		c0-0.651-0.319-0.99-0.957-1.016c-0.944-0.026-1.819,0.29-2.626,0.948l-2.979,2.441l1.104-3.125h-3.526l-2.334,6.641h1.797
		c0.508,0,1.156-0.274,1.943-0.821l3.36-2.841l-0.742,2.099c-0.092,0.261-0.137,0.487-0.137,0.684c0,0.586,0.446,0.879,1.338,0.879
		h3.896c0.469,0,0.908-0.098,1.319-0.293c0.579-0.274,0.953-0.697,1.123-1.27H-184.988z M-201.892-98.632
		c-1.107,0-1.66-0.283-1.66-0.849c0-0.118,0.02-0.249,0.059-0.391l0.683-2.276h2.158L-201.892-98.632z M-198.405-98.632l1.835-5.078
		h-5.576c-1.393,0-2.562,0.357-3.506,1.074c-1.041,0.788-1.562,1.862-1.562,3.223c0,0.755,0.238,1.367,0.713,1.836
		c0.475,0.469,1.094,0.703,1.855,0.703c1.035,0,1.908-0.404,2.617-1.211c0,0.677,0.528,1.016,1.583,1.016h3.701
		c1.282,0,2.08-0.521,2.392-1.563H-198.405z M-221.989-98.925c-0.918,1.315-1.846,1.973-2.784,1.973c-0.748,0-1.123-0.42-1.123-1.26
		c0-1.211,0.589-2.194,1.768-2.949c1.022-0.658,2.174-0.987,3.457-0.987h0.283C-220.772-100.982-221.306-99.908-221.989-98.925
		 M-209.509-103.71l2.52-7.1h-3.526l-2.5,7.1h-3.359l3.066-8.584h-3.506l-3.017,8.584h-1.426c-3.607,0-6.084,1.019-7.432,3.057
		c-0.533,0.807-0.8,1.608-0.8,2.402c0,1.016,0.416,1.777,1.25,2.285c0.69,0.423,1.572,0.635,2.646,0.635
		c3.978-0.007,6.891-2.279,8.74-6.817h3.301l-1.816,5.079h3.515l1.797-5.079h5.781c1.257,0,1.976-0.52,2.159-1.562H-209.509z"/>
	<path clip-path="url(#SVGID_10_)" fill="#C25679" d="M-131.015-118.352c-4.982-4.981-13.058-4.981-18.04,0
		c-4.981,4.981-4.981,13.058,0,18.039l18.04,18.04V-118.352z"/>
	<path clip-path="url(#SVGID_10_)" fill="#725548" d="M-129.121-118.352c4.981-4.981,13.058-4.981,18.039,0
		c4.982,4.981,4.982,13.058,0,18.039l-18.039,18.04V-118.352z"/>
</g>
</svg>
